<svg width="500" height="409" viewBox="0 0 500 409" fill="none" xmlns="http://www.w3.org/2000/svg">
<path d="M144.891 403.89C68.0525 379.122 38.0695 356.993 17.8237 296.605C-1.00668 186.021 19.4003 116.24 109.13 74.0469C173.405 32.0037 213.618 32.7281 286.796 42.4703C418.339 61.7683 465.76 106.91 458.375 239.919C442.187 281.731 428.241 303.854 391.037 339.976C374.455 373.826 354.455 384.503 306.959 394.379C244.754 410.798 209.219 412.306 144.891 403.89Z" fill="#FBE9DB"/>
<path d="M75.2298 307.596C-1.60891 282.828 4.03029 264.225 4.03029 254.494C-14.8001 143.91 75.665 176.307 165.394 134.114C229.67 92.071 232.6 79.8604 305.777 89.6026C383.768 89.6026 429.958 93.5524 422.573 226.562C406.385 268.373 377.601 271.474 340.397 307.596C323.816 341.446 228.488 319.025 180.992 328.9C118.787 345.32 139.558 316.012 75.2298 307.596Z" fill="#FEF7F1"/>
<path d="M156.934 398.056C39.4151 410.643 21.6563 342.907 40.8993 246.26C38.4445 135.366 82.3674 175.498 111.661 86.8547C140.955 -1.78812 253.946 -1.0273 281.719 44.6257C309.491 90.2787 450.568 198.934 454.382 231.583C458.197 264.231 468.816 296.879 431.613 333C415.837 369.553 375.046 364.074 326.23 369.523C265.334 361.361 222.342 386.179 156.934 398.056Z" stroke="#D9D5D2" stroke-width="5"/>
<path fill-rule="evenodd" clip-rule="evenodd" d="M427.049 202.405C433.092 193.307 434.684 182.409 435.569 171.734C437.294 150.953 439.125 139.025 452.17 121.291C459.842 110.861 468.056 99.9091 468.746 86.473C469.249 76.6893 465.616 63.5881 455.802 59.2162C439.527 53.4696 423.02 62.0098 411.471 73.5478C397.158 87.8484 393.617 103.026 399.464 121.676C402.759 132.182 402.845 140.916 398.988 151.31C395.905 159.623 390.152 167.756 388.347 176.483C385.648 189.53 388.734 200.487 398.256 209.241C407.575 185.889 415.761 160.849 419.254 135.948C419.68 133.535 419.215 121.776 422.87 121.188C426.896 120.543 422.886 136.342 422.904 136.239C421.705 143.628 419.999 150.961 418.197 158.268C418.185 158.263 418.174 158.255 418.162 158.249C416.322 165.758 414.389 173.298 412.339 180.821C411.419 183.94 410.441 187.043 409.363 190.132C407.78 194.665 401.31 205.149 401.953 209.882C402.091 210.894 402.37 211.703 402.753 212.359C401.039 217.377 399.249 222.361 397.333 227.278C392.329 240.12 386.203 252.663 377.416 263.385C374.851 266.514 363.074 275.592 362.602 279.511C361.735 286.676 368.576 279.104 370.732 276.928C388.578 258.899 399.33 238.182 407.245 214.495C413.89 214.231 424.6 206.091 427.049 202.405Z" fill="#FFA63A"/>
<path fill-rule="evenodd" clip-rule="evenodd" d="M75.2098 182.072C69.0239 173.398 66.5899 163.17 64.7996 153.171C61.3142 133.705 58.572 122.507 45.399 105.566C37.6514 95.602 29.3775 85.1349 27.4985 72.561C26.1296 63.4052 28.0916 51.2674 36.3256 47.462C50.1244 42.5561 65.4782 51.0059 76.7463 62.1154C90.712 75.8851 95.2683 90.1678 91.8806 107.426C89.9704 117.15 90.7209 125.307 95.1033 135.129C98.6068 142.984 104.445 150.747 106.862 158.953C110.474 171.22 108.792 181.371 101.229 189.279C90.8078 167.194 81.2252 143.564 75.7914 120.199C75.1875 117.932 74.4849 106.957 71.2083 106.304C67.5999 105.586 72.628 120.463 72.6024 120.366C74.3581 127.305 76.5549 134.205 78.8343 141.083C78.8442 141.079 78.8531 141.072 78.8637 141.067C81.1952 148.136 83.6121 155.235 86.1302 162.323C87.2361 165.263 88.3912 168.191 89.6337 171.108C91.457 175.388 98.1505 185.368 98.0315 189.772C98.0058 190.714 97.8361 191.462 97.5608 192.064C99.5464 196.802 101.595 201.509 103.749 206.158C109.373 218.299 115.958 230.194 124.716 240.462C127.272 243.459 138.508 252.277 139.295 255.952C140.737 262.671 133.992 255.401 131.886 253.306C114.455 235.953 103.021 216.289 93.8046 193.932C87.924 193.495 77.7165 185.585 75.2098 182.072Z" fill="#FFA63A"/>
<path fill-rule="evenodd" clip-rule="evenodd" d="M452.199 199.968C436.101 199.711 420.473 205.855 412.678 210.129C403.031 215.418 396.126 221.73 390.828 227.899C382.099 238.061 380.213 249.868 379.371 260.824C379.269 262.145 377.396 278.229 382.749 278.325C388.052 278.421 385.84 261.445 386.526 258.007C387.987 250.67 387.047 243.272 392.452 236.297C398.048 229.074 407.85 222.574 420.069 216.836C421.637 216.1 425.047 213.198 428.632 214.164C432.138 215.11 422.012 218.597 420.559 219.31C414.561 222.253 409.309 225.445 404.912 228.791C396.674 235.061 392.152 241.899 391.793 249.232C403.957 250.722 414.764 248.915 419.145 244.98C422.93 241.579 423.562 237.367 427.815 234.197C430.744 232.014 435.284 230.298 440.784 228.961C455.293 225.433 470.199 225.314 474.938 218.149C478.653 212.531 475.338 200.343 452.199 199.968Z" fill="#FF7635"/>
<path d="M25.5406 164.999C50.7037 185.262 79.0189 252.364 112.524 283.317C142.531 317.951 152.051 323.769 130.853 263.055L130.828 263.001C108.592 214.717 96.118 187.63 51.6356 144.737C25.9671 123.462 0.377592 144.737 25.5406 164.999Z" fill="#FF7635"/>
<path d="M36.7241 154.144C40.0869 156.951 43.293 159.701 46.3544 162.407M124.95 282.594C112.017 249.871 101.616 226.001 84.5136 202.991M40.7626 167.894L59.7126 174.818M59.7126 174.818C64.3194 179.339 68.5435 183.773 72.4494 188.176M59.7126 174.818C55.583 170.764 51.1458 166.641 46.3544 162.407M52.5675 184.9L72.4494 188.176M72.4494 188.176C76.8425 193.128 80.8332 198.04 84.5136 202.991M66.2363 202.991H84.5136M46.3544 147.27V162.407" stroke="white" stroke-opacity="0.55" stroke-width="4" stroke-linecap="round"/>
<path d="M402.581 59.7466C389.197 85.7759 388.508 157.035 371.976 195.457C359.413 236.416 353.75 244.513 350.867 181.24L350.869 181.182C352.84 129.403 353.947 100.354 375.311 47.6387C388.767 20.5128 415.964 33.7173 402.581 59.7466Z" fill="#F8590D"/>
<path d="M390.189 52.5009C388.433 56.0727 386.782 59.5492 385.232 62.9436M361.886 198.146C361.529 163.635 362.034 138.197 368.133 111.754M391.447 66.6231L378.664 78.3289M378.664 78.3289C376.477 83.8636 374.565 89.2114 372.895 94.443M378.664 78.3289C380.624 73.3676 382.805 68.2561 385.232 62.9436M387.601 85.9395L372.895 94.443M372.895 94.443C371.018 100.327 369.446 106.064 368.133 111.754M382.629 106.79L368.133 111.754M380.321 48.6038L385.232 62.9436" stroke="white" stroke-opacity="0.55" stroke-width="4" stroke-linecap="round"/>
<path d="M93.6482 298.306C114.518 303.585 124.052 304.153 137.996 301.785C134.468 289.709 133.724 283.187 116.145 273.465C98.5662 263.744 56.8456 217.965 40.9153 216.846C24.9849 215.726 19.8134 215.448 27.1199 238.1C50.209 269.374 64.6779 282.818 93.6482 298.306Z" fill="#FFA63A"/>
<path d="M37.7046 224.689C45.457 224.662 52.4955 232.012 57.829 237.062C61.3796 240.424 64.6461 244.102 68.3442 247.302C74.3593 252.506 80.1352 257.963 86.2642 263.05C96.8332 271.822 107.844 279.696 117.814 289.205C122.778 293.94 128.306 298.087 133.679 302.1" stroke="white" stroke-opacity="0.55" stroke-width="4" stroke-linecap="round" stroke-linejoin="round"/>
<path d="M45.3195 245.103C49.2087 244.416 52.5473 242.381 56.2961 241.589C57.5321 241.327 59.0852 241.496 60.0435 240.632" stroke="white" stroke-opacity="0.55" stroke-width="4" stroke-linecap="round" stroke-linejoin="round"/>
<path d="M58.0842 259.085C63.3136 258.163 70.0133 257.286 74.2459 253.818" stroke="white" stroke-opacity="0.55" stroke-width="4" stroke-linecap="round" stroke-linejoin="round"/>
<path d="M87.7625 256.553C88.6545 259.294 90.385 261.838 90.8062 264.704C90.9705 265.822 91.066 266.602 91.6805 267.513" stroke="white" stroke-opacity="0.55" stroke-width="4" stroke-linecap="round" stroke-linejoin="round"/>
<path fill-rule="evenodd" clip-rule="evenodd" d="M95.6837 312.424H97.4731C97.3478 310.153 97.1845 307.886 96.8008 305.64C95.3623 297.223 90.8646 284.861 81.0001 283.494C80.6362 283.444 79.2975 283.435 77.6759 283.529C76.9074 283.104 76.0465 282.847 75.1395 282.788C66.7408 282.176 57.3615 288.879 53.3103 295.854C50.0444 301.478 50.5946 308.863 52.6118 314.838C53.9626 318.838 56.9107 324.542 61.8271 324.597C67.9781 324.667 68.2747 317.146 68.3937 312.75C68.5518 306.904 69.2984 301.812 73.9542 297.828C75.0393 296.9 76.2254 296.083 77.3214 295.168C79.0377 293.736 80.9344 292.269 81.1555 289.899C81.4607 286.629 79.5949 286.04 76.7462 286.648C76.2606 286.751 71.3688 288.923 72.0931 287.206C72.3142 286.682 73.1219 286.266 74.1412 285.955C76.7791 285.671 79.9248 285.342 80.8295 285.539C90.5895 287.657 94.3895 301.032 95.3987 309.529C95.513 310.491 95.6043 311.457 95.6837 312.424Z" fill="#F8590D"/>
<path fill-rule="evenodd" clip-rule="evenodd" d="M309.989 351.692C303.351 343.996 293.329 339.594 287.652 337.979C280.629 335.981 274.186 335.764 268.502 336.234C259.137 337.007 251.733 341.79 245.247 346.655C244.465 347.241 234.673 354.084 236.874 356.649C239.055 359.19 247.625 349.996 249.838 348.668C254.56 345.832 258.304 341.838 264.486 341.031C270.885 340.194 278.653 341.685 287.012 344.677C288.085 345.061 291.146 345.272 292.115 347.423C293.063 349.526 286.845 346.437 285.834 346.096C281.66 344.687 277.661 343.749 273.936 343.288C266.956 342.423 261.223 343.58 256.968 346.932C261.258 353.37 266.823 357.587 270.87 357.758C274.369 357.905 276.993 356.18 280.558 356.658C283.014 356.988 285.887 358.3 288.953 360.245C297.04 365.376 303.385 372.332 309.392 371.12C314.102 370.17 319.527 362.758 309.989 351.692Z" fill="#FF7635"/>
<path fill-rule="evenodd" clip-rule="evenodd" d="M248.922 349.597L247.248 350.393C246.903 349.363 246.593 348.319 246.495 347.186C246.125 342.938 247.814 335.637 256.765 330.663C257.096 330.48 258.346 329.88 259.883 329.199C260.515 328.675 261.268 328.182 262.105 327.754C269.839 323.755 279.981 322.456 285.193 323.644C289.395 324.601 290.385 328.012 289.716 331.471C289.267 333.786 287.671 337.543 283.082 339.754C277.341 342.52 275.531 339.428 274.523 337.596C273.184 335.161 271.448 333.31 266.279 333.673C265.075 333.758 263.799 333.936 262.587 334.031C260.689 334.18 258.615 334.395 257.925 333.478C256.973 332.212 258.599 331.13 261.388 330.123C261.864 329.951 266.883 328.706 265.856 328.292C265.542 328.166 264.702 328.347 263.685 328.667C261.159 329.719 258.148 330.977 257.342 331.464C248.641 336.714 247.812 344.137 248.599 348.229C248.688 348.692 248.8 349.147 248.922 349.597Z" fill="#FFA63A"/>
<rect x="208.482" y="321.554" width="41.0877" height="53.2618" fill="#3F4256"/>
<path d="M138.481 375.925C138.481 369.849 143.406 364.925 149.481 364.925H305.528C311.603 364.925 316.528 369.849 316.528 375.925V379.381H138.481V375.925Z" fill="#68668B"/>
<rect x="64.6753" y="122.203" width="327.941" height="210.004" rx="22" fill="#68668B"/>
<rect x="73.8062" y="133.616" width="309.679" height="189.46" rx="10" fill="#FFFCFC"/>
<rect x="85.2195" y="143.508" width="287.614" height="170.438" fill="url(#paint0_linear)"/>
<rect x="84.4585" y="142.747" width="288.375" height="32.718" fill="#ECD0BA"/>
<rect x="96.6326" y="157.203" width="258.7" height="6.84795" fill="white"/>
<rect x="269.353" y="194.487" width="38.0441" height="37.2833" fill="#FFA63A" fill-opacity="0.66"/>
<rect x="315.006" y="195.248" width="46.4139" height="3.80441" fill="#D7B790"/>
<rect x="315.006" y="205.139" width="46.4139" height="3.80441" fill="#D7B790"/>
<rect x="142" y="195" width="46.4139" height="3.80441" fill="#D7B790"/>
<rect x="142" y="235" width="46.4139" height="3.80441" fill="#D7B790"/>
<rect x="142" y="275" width="46.4139" height="3.80441" fill="#D7B790"/>
<rect x="315.006" y="215.031" width="41.0877" height="3.80441" fill="#D7B790"/>
<rect x="142" y="204.891" width="41.0877" height="3.80441" fill="#D7B790"/>
<rect x="142" y="244.891" width="41.0877" height="3.80441" fill="#D7B790"/>
<rect x="142" y="284.891" width="41.0877" height="3.80441" fill="#D7B790"/>
<rect x="315.006" y="224.922" width="31.1962" height="3.80441" fill="#D7B790"/>
<rect x="269" y="247" width="38.0441" height="37.2833" fill="#FFA63A" fill-opacity="0.66"/>
<rect x="314.653" y="247.761" width="46.4139" height="3.80441" fill="#D7B790"/>
<rect x="314.653" y="257.652" width="46.4139" height="3.80441" fill="#D7B790"/>
<rect x="314.653" y="267.544" width="41.0877" height="3.80441" fill="#D7B790"/>
<rect x="314.653" y="277.435" width="31.1962" height="3.80441" fill="#D7B790"/>
<path opacity="0.5" d="M170.522 238.456C170.688 236.718 171.283 235.122 172.33 233.658L168.313 230.248C167.044 231.175 165.598 231.689 163.961 231.78C162.46 231.895 161.038 231.653 159.7 231.052C158.324 231.633 156.907 231.876 155.431 231.78C153.928 231.674 152.491 231.191 151.289 230.389L147.262 233.798C148.253 235.282 148.805 236.835 148.912 238.456C148.964 239.203 148.713 240.231 148.15 241.559C147.894 242.186 147.67 242.823 147.48 243.468C147.339 243.999 147.251 244.429 147.221 244.752C147.201 246.168 147.669 247.445 148.628 248.582C149.378 249.411 150.614 250.327 152.331 251.329C154.209 252.141 155.663 252.667 156.681 252.892L157.526 253.226C157.791 253.333 158.076 253.439 158.372 253.553C159.014 253.879 159.463 254.232 159.7 254.597C159.991 254.202 160.451 253.858 161.061 253.553C161.428 253.42 161.791 253.28 162.151 253.134L162.788 252.892C163.006 252.801 163.291 252.696 163.637 252.58C164.065 252.436 164.495 252.297 164.928 252.164C165.92 251.866 166.642 251.584 167.101 251.329C168.766 250.328 169.984 249.426 170.759 248.621C171.752 247.481 172.235 246.196 172.213 244.753C172.154 244.107 171.831 243.073 171.245 241.664C170.688 240.291 170.442 239.225 170.522 238.456Z" fill="#8B4CBC"/>
<g opacity="0.5">
<path d="M238.411 204.44L241.767 202.08M238.411 204.44V193.819V204.44ZM238.411 204.44L235.056 202.08L238.411 204.44Z" stroke="#910000" stroke-width="4" stroke-linecap="round" stroke-linejoin="round"/>
<path d="M229.061 189.237C227.791 189.518 226.682 190.196 225.942 191.146C225.201 192.095 224.881 193.249 225.04 194.391C225.199 195.534 225.827 196.586 226.807 197.349C227.786 198.113 229.049 198.537 230.358 198.54H231.7" stroke="#910000" stroke-width="4" stroke-linecap="round" stroke-linejoin="round"/>
<path d="M243.552 186.901C243.093 185.304 241.961 183.92 240.385 183.03C238.808 182.139 236.906 181.809 235.063 182.107C233.22 182.404 231.574 183.306 230.46 184.63C229.345 185.954 228.845 187.602 229.061 189.238C229.061 189.238 229.266 190.279 229.686 190.869" stroke="#910000" stroke-width="4" stroke-linecap="round" stroke-linejoin="round"/>
<path d="M245.123 198.54C246.07 198.539 247.007 198.362 247.871 198.02C248.736 197.678 249.508 197.18 250.137 196.556C250.766 195.933 251.238 195.2 251.522 194.405C251.805 193.61 251.894 192.771 251.783 191.944C251.671 191.117 251.361 190.319 250.874 189.605C250.387 188.89 249.733 188.274 248.955 187.798C248.178 187.322 247.294 186.995 246.363 186.841C245.432 186.686 244.474 186.707 243.552 186.901L241.767 187.329" stroke="#910000" stroke-width="4" stroke-linecap="round" stroke-linejoin="round"/>
</g>
<g opacity="0.44">
<path d="M242.752 31.332L242.763 31.3377C242.939 30.2684 243.023 29.1765 243.023 28.0959C243.023 27.1285 242.95 26.1554 242.814 25.2049C242.95 26.1497 243.018 27.1058 243.018 28.062C243.018 29.1595 242.927 30.2571 242.752 31.332ZM199.737 21.6237C199.709 21.601 199.686 21.5784 199.658 21.5501C199.698 21.5897 199.737 21.6293 199.783 21.6689L203.488 24.8315V24.8258L199.737 21.6237ZM230.096 9.4033H230.102L229.225 4.66226C229.213 4.60568 229.202 4.55476 229.185 4.50385C229.191 4.53213 229.202 4.56608 229.208 4.59437L230.096 9.4033ZM233.151 40.3219L234.927 38.8623L240.178 40.7236C241.14 39.428 241.949 38.0363 242.588 36.5596L238.362 32.9445L238.735 30.6758C238.876 29.8215 238.95 28.9445 238.95 28.0676C238.95 27.1907 238.876 26.3138 238.735 25.4595L238.367 23.2021L242.594 19.5869C241.949 18.116 241.145 16.7185 240.183 15.423L234.933 17.2843L233.157 15.8246C231.805 14.7158 230.294 13.8445 228.67 13.2335L226.515 12.4244L225.502 6.9366C223.904 6.75556 222.291 6.75556 220.693 6.9366L219.68 12.4358L217.536 13.2448C215.924 13.8558 214.424 14.7271 213.084 15.8303L211.307 17.2956L206.023 15.4173C205.061 16.7129 204.252 18.1046 203.613 19.5813L207.884 23.2304L207.517 25.4934C207.375 26.3364 207.307 27.202 207.307 28.0676C207.307 28.9276 207.381 29.7988 207.517 30.6418L207.884 32.9048L203.613 36.554C204.258 38.0249 205.061 39.4224 206.023 40.7179L211.307 38.8396L213.084 40.3049C214.424 41.4082 215.924 42.2794 217.536 42.8905L219.675 43.7108L220.687 49.21C222.283 49.391 223.907 49.391 225.496 49.21L226.509 43.7221L228.665 42.9131C230.294 42.3021 231.799 41.4308 233.151 40.3219ZM223.131 37.4762C221.406 37.4762 219.782 37.0349 218.362 36.2598C215.256 34.5738 213.146 31.2868 213.146 27.5019C213.146 22.0027 217.604 17.5445 223.103 17.5445C226.888 17.5445 230.175 19.6548 231.861 22.7608C232.636 24.1752 233.077 25.7989 233.077 27.5302C233.077 33.0237 228.625 37.4762 223.131 37.4762ZM205.859 45.0856C205.548 45.1931 205.225 45.2157 204.92 45.1535C205.242 45.2214 205.582 45.2101 205.91 45.0969L210.515 43.4562C210.509 43.4506 210.498 43.4449 210.492 43.4392L205.859 45.0856ZM246.458 21.6237L242.752 24.7919C242.752 24.8032 242.758 24.8202 242.758 24.8315L246.458 21.6689C246.859 21.3238 247.086 20.8259 247.091 20.3111C247.074 20.809 246.848 21.2899 246.458 21.6237Z" fill="#F70000" fill-opacity="0.27"/>
<path d="M247.08 35.6827C247.108 35.9486 247.08 36.2202 246.984 36.4805L246.933 36.6276C245.91 39.4776 244.383 42.1204 242.424 44.4293L242.322 44.5482C242.085 44.8287 241.768 45.0304 241.413 45.1264C241.058 45.2224 240.683 45.2082 240.336 45.0856L235.737 43.4506C234.049 44.8408 232.143 45.9419 230.096 46.7093L229.208 51.5183C229.141 51.8801 228.965 52.213 228.704 52.4727C228.444 52.7324 228.11 52.9067 227.748 52.9723L227.595 53.0006C226.117 53.2678 224.617 53.4023 223.115 53.4023H223.131C224.642 53.4023 226.153 53.2665 227.624 53.0006L227.776 52.9723C228.138 52.9067 228.472 52.7324 228.733 52.4727C228.993 52.213 229.169 51.8801 229.236 51.5183L230.124 46.715C232.172 45.9456 234.062 44.8537 235.759 43.4619L240.353 45.0969C240.7 45.2195 241.075 45.2337 241.43 45.1377C241.784 45.0417 242.102 44.84 242.339 44.5595L242.441 44.4407C244.41 42.1154 245.92 39.4959 246.944 36.6502L246.995 36.5031C247.086 36.2372 247.114 35.9543 247.08 35.6827Z" fill="black" fill-opacity="0.15"/>
<path d="M233.061 27.5019C233.061 25.7876 232.625 24.1696 231.861 22.7608C230.175 19.6548 226.888 17.5446 223.103 17.5446C217.604 17.5446 213.146 22.0027 213.146 27.5019C213.146 31.2868 215.256 34.5738 218.362 36.2598C219.771 37.0236 221.383 37.4592 223.103 37.4592C228.602 37.4592 233.061 33.001 233.061 27.5019ZM216.767 27.5019C216.767 25.8103 217.429 24.2205 218.623 23.0211C219.822 21.8217 221.412 21.1654 223.103 21.1654C224.795 21.1654 226.385 21.8217 227.584 23.0211C228.174 23.6088 228.641 24.3072 228.959 25.0762C229.278 25.8452 229.441 26.6696 229.44 27.5019C229.44 29.1935 228.778 30.7833 227.584 31.9827C226.996 32.5721 226.298 33.0394 225.529 33.3579C224.76 33.6764 223.936 33.8397 223.103 33.8384C221.412 33.8384 219.822 33.1764 218.623 31.9827C218.033 31.395 217.566 30.6965 217.247 29.9276C216.929 29.1586 216.766 28.3342 216.767 27.5019Z" fill="#7E84B7"/>
<path d="M227.748 52.9723C228.11 52.9067 228.444 52.7325 228.705 52.4728C228.965 52.2131 229.141 51.8802 229.208 51.5183L230.096 46.7094C232.143 45.942 234.049 44.8409 235.737 43.4507L240.336 45.0857C240.683 45.2082 241.058 45.2224 241.413 45.1264C241.768 45.0304 242.085 44.8288 242.322 44.5482L242.424 44.4294C244.393 42.1042 245.909 39.479 246.933 36.6276L246.984 36.4805C247.08 36.2203 247.108 35.9487 247.08 35.6828C247.029 35.2359 246.814 34.8115 246.458 34.5004L242.763 31.3378L242.752 31.3321C242.928 30.2572 243.018 29.1596 243.018 28.0621C243.018 27.1059 242.95 26.1441 242.814 25.205C242.797 25.0805 242.775 24.9561 242.758 24.8316C242.758 24.8203 242.752 24.8033 242.752 24.792L246.458 21.6237C246.848 21.2899 247.075 20.8091 247.092 20.3112C247.097 20.0849 247.063 19.8529 246.984 19.6323L246.933 19.4852C245.913 16.6339 244.385 13.9908 242.424 11.6834L242.322 11.5646C242.084 11.2848 241.767 11.0837 241.413 10.9878C241.058 10.8918 240.683 10.9056 240.336 11.0271L235.737 12.6622C234.04 11.2704 232.15 10.1728 230.102 9.40339H230.096L229.208 4.59446C229.202 4.56617 229.197 4.53223 229.185 4.50394C229.104 4.16188 228.924 3.85092 228.669 3.60886C228.414 3.3668 228.094 3.20408 227.748 3.14046L227.596 3.11218C224.648 2.58036 221.548 2.58036 218.6 3.11218L218.447 3.14046C218.085 3.20607 217.752 3.38031 217.491 3.64002C217.23 3.89972 217.055 4.23261 216.988 4.59446L216.094 9.42602C214.062 10.1956 212.17 11.2926 210.493 12.6735L205.859 11.0271C205.513 10.9046 205.137 10.8904 204.782 10.9864C204.428 11.0824 204.111 11.2841 203.873 11.5646L203.772 11.6834C201.813 13.9924 200.285 16.6351 199.262 19.4852L199.212 19.6323C199.094 19.9611 199.073 20.3169 199.152 20.6571C199.232 20.9973 199.407 21.3074 199.658 21.5502C199.687 21.5728 199.709 21.6011 199.738 21.6237L203.489 24.8259V24.8316C203.313 25.8952 203.228 26.9758 203.228 28.0564C203.228 29.1427 203.313 30.2289 203.489 31.2869L199.738 34.4891C199.458 34.7283 199.258 35.047 199.164 35.4028C199.07 35.7585 199.087 36.1344 199.212 36.4805L199.262 36.6276C200.286 39.479 201.803 42.1098 203.772 44.4294L203.873 44.5482C204.151 44.8707 204.518 45.08 204.92 45.1536C205.226 45.2102 205.548 45.1932 205.859 45.0857L210.493 43.4393C210.498 43.445 210.51 43.4507 210.515 43.4563C212.196 44.8311 214.068 45.923 216.094 46.6868L216.988 51.5183C217.055 51.8802 217.23 52.2131 217.491 52.4728C217.752 52.7325 218.085 52.9067 218.447 52.9723L218.6 53.0006C220.077 53.2665 221.587 53.4023 223.098 53.4023H223.115C224.62 53.4023 226.13 53.2665 227.596 53.0006L227.748 52.9723ZM225.497 49.2101C223.899 49.3911 222.286 49.3911 220.688 49.2101L219.675 43.7109L217.536 42.8906C215.924 42.2795 214.425 41.4083 213.084 40.305L211.307 38.8397L206.023 40.718C205.061 39.4225 204.258 38.025 203.613 36.5541L207.885 32.9049L207.517 30.6419C207.381 29.7989 207.307 28.9277 207.307 28.0677C207.307 27.2021 207.375 26.3365 207.517 25.4935L207.885 23.2305L203.613 19.5814C204.252 18.1047 205.061 16.713 206.023 15.4174L211.307 17.2957L213.084 15.8304C214.425 14.7272 215.924 13.8559 217.536 13.2449L219.681 12.4359L220.693 6.93669C222.283 6.75565 223.907 6.75565 225.502 6.93669L226.515 12.4245L228.67 13.2336C230.294 13.8446 231.805 14.7159 233.157 15.8247L234.933 17.2844L240.184 15.423C241.145 16.7186 241.949 18.1161 242.594 19.587L238.368 23.2022L238.735 25.4596C238.877 26.3139 238.95 27.1908 238.95 28.0677C238.95 28.9446 238.877 29.8216 238.735 30.6759L238.362 32.9445L242.588 36.5597C241.947 38.0357 241.139 39.4329 240.178 40.7237L234.928 38.8624L233.151 40.322C231.799 41.4309 230.294 42.3022 228.665 42.9132L226.509 43.7222L225.497 49.2101Z" fill="#7E84B7"/>
</g>
<path d="M240.717 28.6188L240.728 28.6245C240.903 27.5552 240.988 26.4633 240.988 25.3827C240.988 24.4153 240.915 23.4422 240.779 22.4917C240.915 23.4365 240.983 24.3926 240.983 25.3488C240.983 26.4463 240.892 27.5439 240.717 28.6188ZM197.702 18.9105C197.674 18.8878 197.651 18.8652 197.623 18.8369C197.663 18.8765 197.702 18.9161 197.748 18.9557L201.453 22.1183V22.1126L197.702 18.9105ZM228.061 6.69011H228.066L227.19 1.94906C227.178 1.89249 227.167 1.84157 227.15 1.79065C227.156 1.81894 227.167 1.85288 227.173 1.88117L228.061 6.69011ZM231.116 37.6087L232.892 36.1491L238.143 38.0104C239.104 36.7148 239.913 35.3231 240.553 33.8464L236.326 30.2313L236.7 27.9626C236.841 27.1083 236.915 26.2313 236.915 25.3544C236.915 24.4775 236.841 23.6006 236.7 22.7463L236.332 20.4889L240.558 16.8737C239.913 15.4028 239.11 14.0053 238.148 12.7098L232.898 14.5711L231.122 13.1114C229.769 12.0026 228.259 11.1313 226.635 10.5203L224.48 9.71125L223.467 4.2234C221.869 4.04236 220.256 4.04236 218.658 4.2234L217.645 9.72256L215.501 10.5316C213.889 11.1426 212.389 12.0139 211.048 13.1171L209.272 14.5824L203.988 12.7041C203.026 13.9997 202.217 15.3914 201.578 16.8681L205.849 20.5172L205.481 22.7802C205.34 23.6232 205.272 24.4888 205.272 25.3544C205.272 26.2144 205.346 27.0856 205.481 27.9286L205.849 30.1917L201.578 33.8408C202.223 35.3118 203.026 36.7092 203.988 38.0048L209.272 36.1264L211.048 37.5918C212.389 38.695 213.889 39.5662 215.501 40.1773L217.64 40.9976L218.652 46.4968C220.248 46.6778 221.871 46.6778 223.461 46.4968L224.474 41.0089L226.629 40.1999C228.259 39.5889 229.764 38.7176 231.116 37.6087ZM221.096 34.763C219.371 34.763 217.747 34.3217 216.327 33.5466C213.221 31.8606 211.111 28.5736 211.111 24.7887C211.111 19.2895 215.569 14.8313 221.068 14.8313C224.853 14.8313 228.14 16.9416 229.826 20.0476C230.601 21.462 231.042 23.0857 231.042 24.817C231.042 30.3105 226.59 34.763 221.096 34.763ZM203.824 42.3724C203.513 42.4799 203.19 42.5025 202.885 42.4403C203.207 42.5082 203.547 42.4969 203.875 42.3837L208.48 40.743C208.474 40.7374 208.463 40.7317 208.457 40.726L203.824 42.3724ZM244.422 18.9105L240.717 22.0787C240.717 22.09 240.722 22.107 240.722 22.1183L244.422 18.9557C244.824 18.6106 245.05 18.1127 245.056 17.5979C245.039 18.0958 244.813 18.5767 244.422 18.9105Z" fill="#F70000" fill-opacity="0.27"/>
<path d="M245.045 32.9695C245.073 33.2354 245.045 33.507 244.949 33.7672L244.898 33.9143C243.875 36.7644 242.348 39.4071 240.389 41.7161L240.287 41.8349C240.05 42.1154 239.733 42.3171 239.378 42.4131C239.023 42.5091 238.648 42.4949 238.301 42.3724L233.702 40.7373C232.014 42.1275 230.108 43.2287 228.061 43.9961L227.173 48.805C227.106 49.1669 226.93 49.4998 226.67 49.7595C226.409 50.0192 226.075 50.1934 225.713 50.259L225.56 50.2873C224.082 50.5546 222.582 50.689 221.08 50.689H221.097C222.607 50.689 224.118 50.5532 225.589 50.2873L225.741 50.259C226.104 50.1934 226.437 50.0192 226.698 49.7595C226.959 49.4998 227.134 49.1669 227.201 48.805L228.089 44.0017C230.137 43.2323 232.027 42.1404 233.724 40.7486L238.318 42.3837C238.665 42.5062 239.04 42.5204 239.395 42.4244C239.75 42.3284 240.067 42.1267 240.304 41.8462L240.406 41.7274C242.375 39.4021 243.885 36.7827 244.909 33.9369L244.96 33.7898C245.051 33.5239 245.079 33.241 245.045 32.9695Z" fill="black" fill-opacity="0.15"/>
<path d="M231.025 24.7887C231.025 23.0744 230.59 21.4564 229.826 20.0476C228.14 16.9416 224.853 14.8314 221.068 14.8314C215.569 14.8314 211.111 19.2895 211.111 24.7887C211.111 28.5736 213.221 31.8606 216.327 33.5466C217.736 34.3104 219.348 34.746 221.068 34.746C226.567 34.746 231.025 30.2878 231.025 24.7887ZM214.732 24.7887C214.732 23.0971 215.394 21.5073 216.587 20.3079C217.787 19.1085 219.377 18.4522 221.068 18.4522C222.76 18.4522 224.35 19.1085 225.549 20.3079C226.138 20.8956 226.606 21.594 226.924 22.363C227.243 23.132 227.406 23.9564 227.405 24.7887C227.405 26.4803 226.743 28.0701 225.549 29.2695C224.961 29.8589 224.263 30.3262 223.494 30.6447C222.725 30.9632 221.9 31.1265 221.068 31.1252C219.377 31.1252 217.787 30.4632 216.587 29.2695C215.998 28.6818 215.531 27.9834 215.212 27.2144C214.894 26.4454 214.73 25.621 214.732 24.7887Z" fill="#7E84B7"/>
<path d="M225.713 50.259C226.075 50.1934 226.409 50.0192 226.67 49.7595C226.93 49.4998 227.106 49.1669 227.173 48.805L228.061 43.9961C230.108 43.2287 232.014 42.1275 233.702 40.7373L238.301 42.3724C238.648 42.4949 239.023 42.5091 239.378 42.4131C239.733 42.3171 240.05 42.1154 240.287 41.8349L240.389 41.7161C242.358 39.3908 243.874 36.7657 244.898 33.9143L244.949 33.7672C245.045 33.507 245.073 33.2354 245.045 32.9695C244.994 32.5225 244.779 32.0982 244.423 31.7871L240.728 28.6245L240.717 28.6188C240.892 27.5439 240.983 26.4463 240.983 25.3487C240.983 24.3926 240.915 23.4308 240.779 22.4917C240.762 22.3672 240.74 22.2427 240.723 22.1183C240.723 22.107 240.717 22.09 240.717 22.0787L244.423 18.9104C244.813 18.5766 245.039 18.0957 245.056 17.5979C245.062 17.3716 245.028 17.1396 244.949 16.919L244.898 16.7719C243.878 13.9206 242.35 11.2774 240.389 8.97008L240.287 8.85127C240.049 8.57151 239.732 8.37041 239.378 8.27447C239.023 8.17852 238.648 8.19223 238.301 8.3138L233.702 9.94884C232.004 8.55707 230.115 7.45951 228.067 6.69008H228.061L227.173 1.88114C227.167 1.85285 227.161 1.81891 227.15 1.79062C227.068 1.44856 226.889 1.1376 226.634 0.895544C226.379 0.653486 226.059 0.490759 225.713 0.427147L225.56 0.398859C222.613 -0.132953 219.512 -0.132953 216.565 0.398859L216.412 0.427147C216.05 0.492756 215.716 0.666989 215.456 0.926697C215.195 1.18641 215.019 1.5193 214.952 1.88114L214.059 6.71271C212.027 7.4823 210.135 8.57928 208.458 9.96015L203.824 8.3138C203.478 8.19127 203.102 8.17706 202.747 8.27306C202.393 8.36907 202.076 8.57073 201.838 8.85127L201.736 8.97008C199.777 11.2791 198.25 13.9218 197.227 16.7719L197.176 16.919C197.058 17.2478 197.038 17.6036 197.117 17.9438C197.196 18.284 197.372 18.5941 197.623 18.8369C197.652 18.8595 197.674 18.8878 197.703 18.9104L201.453 22.1126V22.1183C201.278 23.1819 201.193 24.2625 201.193 25.3431C201.193 26.4293 201.278 27.5156 201.453 28.5736L197.703 31.7757C197.423 32.015 197.223 32.3337 197.129 32.6894C197.035 33.0452 197.052 33.4211 197.176 33.7672L197.227 33.9143C198.251 36.7657 199.768 39.3965 201.736 41.7161L201.838 41.8349C202.115 42.1574 202.483 42.3667 202.885 42.4403C203.19 42.4968 203.513 42.4799 203.824 42.3724L208.458 40.726C208.463 40.7317 208.475 40.7373 208.48 40.743C210.16 42.1178 212.033 43.2097 214.059 43.9735L214.952 48.805C215.019 49.1669 215.195 49.4998 215.456 49.7595C215.716 50.0192 216.05 50.1934 216.412 50.259L216.565 50.2873C218.041 50.5532 219.552 50.689 221.063 50.689H221.08C222.585 50.689 224.095 50.5532 225.56 50.2873L225.713 50.259ZM223.461 46.4967C221.864 46.6778 220.25 46.6778 218.652 46.4967L217.64 40.9976L215.501 40.1772C213.889 39.5662 212.39 38.695 211.049 37.5917L209.272 36.1264L203.988 38.0047C203.026 36.7091 202.223 35.3117 201.578 33.8408L205.849 30.1916L205.482 27.9286C205.346 27.0856 205.272 26.2143 205.272 25.3544C205.272 24.4888 205.34 23.6232 205.482 22.7802L205.849 20.5172L201.578 16.868C202.217 15.3914 203.026 13.9997 203.988 12.7041L209.272 14.5824L211.049 13.1171C212.39 12.0139 213.889 11.1426 215.501 10.5316L217.645 9.72253L218.658 4.22338C220.248 4.04233 221.872 4.04233 223.467 4.22338L224.48 9.71122L226.635 10.5203C228.259 11.1313 229.77 12.0025 231.122 13.1114L232.898 14.5711L238.148 12.7097C239.11 14.0053 239.914 15.4027 240.559 16.8737L236.332 20.4889L236.7 22.7463C236.842 23.6006 236.915 24.4775 236.915 25.3544C236.915 26.2313 236.842 27.1082 236.7 27.9625L236.327 30.2312L240.553 33.8464C239.912 35.3224 239.104 36.7196 238.143 38.0104L232.893 36.149L231.116 37.6087C229.764 38.7176 228.259 39.5888 226.63 40.1999L224.474 41.0089L223.461 46.4967Z" fill="#7E84B7"/>
<g opacity="0.74">
<path d="M82.6322 81.3381L64.6252 74.7998L71.1694 56.795L65.6296 54.7903L57.0401 78.3424L80.6137 86.8729L82.6322 81.3381Z" fill="#FF0D0D" fill-opacity="0.35"/>
<path d="M82.6322 81.3381L64.6252 74.7998L71.1694 56.795L65.6296 54.7903L57.0401 78.3424L80.6137 86.8729L82.6322 81.3381Z" stroke="black"/>
<path d="M102.493 72.0623L109.037 54.0575L91.0301 47.5191L93.0486 41.9844L116.622 50.5149L108.033 74.067L102.493 72.0623Z" fill="#FF0D0D" fill-opacity="0.35"/>
<line x1="81.1996" y1="40.0345" x2="92.384" y2="81.9561" stroke="#FF0505" stroke-opacity="0.35" stroke-width="6"/>
<path d="M79.0673 83.003L61.0603 76.4647L67.6044 58.4598L62.0646 56.4552L53.4752 80.0073L77.0487 88.5377L79.0673 83.003Z" fill="#FF0D0D"/>
<path d="M79.0673 83.003L61.0603 76.4647L67.6044 58.4598L62.0646 56.4552L53.4752 80.0073L77.0487 88.5377L79.0673 83.003Z" stroke="black"/>
<path d="M98.928 73.7272L105.472 55.7223L87.4652 49.184L89.4837 43.6493L113.057 52.1797L104.468 75.7318L98.928 73.7272Z" fill="#FF0D0D"/>
<line x1="77.6347" y1="41.6994" x2="88.8191" y2="83.6209" stroke="#FF0505" stroke-width="6"/>
</g>
<g opacity="0.74">
<path d="M351.52 29.1095C352.225 27.6036 352.435 25.9244 352.113 24.3657C351.792 22.807 350.959 21.4679 349.76 20.5829C348.561 19.6979 347.074 19.3232 345.557 19.5244C344.04 19.7256 342.591 20.4899 341.463 21.6836C340.335 22.8773 339.601 24.4243 339.387 26.054C339.174 27.6837 339.496 29.2923 340.297 30.5984C341.098 31.9045 342.326 32.8249 343.768 33.1986C345.209 33.5722 346.772 33.3753 348.182 32.6424L359.827 47.8579C358.885 48.9488 358.254 50.297 358.02 51.7192L338.876 52.5241C338.515 50.8851 337.588 49.5024 336.273 48.644C334.958 47.7855 333.35 47.5124 331.76 47.8776C330.17 48.2427 328.711 49.2202 327.667 50.6205C326.623 52.0208 326.067 53.7442 326.108 55.4568C326.148 57.1694 326.782 58.7491 327.886 59.8898C328.991 61.0306 330.487 61.6511 332.085 61.6311C333.683 61.6112 335.269 60.9521 336.536 59.7818C337.803 58.6114 338.66 57.0131 338.942 55.2965L358.085 54.4916C358.382 55.8433 359.065 57.0284 360.044 57.8875C361.023 58.7466 362.251 59.2385 363.561 59.2969C364.872 59.3553 366.202 58.9776 367.375 58.2144C368.547 57.4512 369.504 56.3393 370.118 55.0281C370.732 53.717 370.972 52.2696 370.807 50.8805C370.642 49.4915 370.08 48.2275 369.196 47.2586C368.311 46.2897 367.147 45.6624 365.861 45.461C364.574 45.2597 363.226 45.4939 361.998 46.1323L350.353 30.9168C350.821 30.3741 351.214 29.7646 351.52 29.1095Z" fill="#FB0000" fill-opacity="0.35"/>
<path d="M350.477 25.1773C351.182 23.6715 351.392 21.9923 351.07 20.4336C350.748 18.8748 349.915 17.5358 348.717 16.6508C347.518 15.7658 346.03 15.3911 344.514 15.5923C342.997 15.7935 341.548 16.5578 340.42 17.7515C339.292 18.9451 338.557 20.4922 338.344 22.1219C338.131 23.7516 338.453 25.3602 339.254 26.6663C340.054 27.9724 341.283 28.8928 342.725 29.2664C344.166 29.6401 345.729 29.4432 347.139 28.7103L358.784 43.9257C357.842 45.0167 357.211 46.3648 356.977 47.7871L337.833 48.592C337.472 46.953 336.544 45.5703 335.23 44.7118C333.915 43.8534 332.306 43.5803 330.716 43.9454C329.126 44.3106 327.668 45.2881 326.624 46.6884C325.58 48.0887 325.024 49.8121 325.064 51.5247C325.105 53.2372 325.739 54.817 326.843 55.9577C327.947 57.0984 329.444 57.719 331.042 57.699C332.64 57.679 334.226 57.02 335.493 55.8497C336.76 54.6793 337.617 53.081 337.899 51.3644L357.042 50.5595C357.339 51.9112 358.022 53.0963 359.001 53.9554C359.98 54.8145 361.207 55.3063 362.518 55.3648C363.828 55.4232 365.159 55.0454 366.332 54.2823C367.504 53.5191 368.461 52.4072 369.075 51.096C369.688 49.7849 369.929 48.3374 369.764 46.9484C369.599 45.5594 369.037 44.2954 368.152 43.3265C367.268 42.3576 366.104 41.7303 364.817 41.5289C363.531 41.3275 362.183 41.5618 360.955 42.2001L349.31 26.9847C349.777 26.442 350.171 25.8325 350.477 25.1773Z" fill="#FB0000"/>
</g>
<g opacity="0.35">
<path d="M444.903 275.597C440.461 272.835 434.76 273.898 432.235 277.96L430.398 280.914L433.629 282.923L435.465 279.969C436.981 277.532 440.401 276.894 443.067 278.551C445.732 280.208 446.673 283.558 445.158 285.995L443.321 288.949L446.552 290.958L448.389 288.004C450.914 283.942 449.346 278.359 444.903 275.597Z" fill="#424242"/>
<path d="M436.438 311.548L417.053 299.496C415.276 298.391 414.656 296.145 415.676 294.504L424.02 281.084C425.04 279.444 427.328 279.005 429.105 280.11L448.491 292.163C450.268 293.268 450.887 295.514 449.867 297.154L441.523 310.574C440.503 312.215 438.215 312.653 436.438 311.548Z" fill="#FB8C00"/>
<path d="M431.165 298.414C432.592 299.301 434.379 299.008 435.156 297.759C435.932 296.51 435.405 294.778 433.977 293.891C432.55 293.003 430.763 293.296 429.986 294.545C429.21 295.794 429.737 297.526 431.165 298.414Z" fill="#C76E00"/>
</g>
<path d="M441.958 275.899C437.515 273.137 431.814 274.2 429.289 278.262L427.452 281.216L430.683 283.224L432.52 280.27C434.035 277.833 437.456 277.195 440.121 278.853C442.786 280.51 443.728 283.86 442.212 286.297L440.376 289.251L443.607 291.259L445.443 288.305C447.969 284.244 446.4 278.661 441.958 275.899Z" fill="#424242"/>
<path d="M433.493 311.85L414.107 299.797C412.33 298.693 411.711 296.447 412.731 294.806L421.075 281.386C422.095 279.745 424.383 279.307 426.16 280.412L445.545 292.465C447.322 293.569 447.942 295.815 446.922 297.456L438.578 310.876C437.558 312.517 435.27 312.955 433.493 311.85Z" fill="#FB8C00"/>
<path d="M428.219 298.716C429.647 299.603 431.433 299.31 432.21 298.061C432.987 296.812 432.459 295.08 431.031 294.192C429.604 293.305 427.817 293.598 427.041 294.847C426.264 296.096 426.792 297.828 428.219 298.716Z" fill="#C76E00"/>
<rect x="102" y="193" width="32.4359" height="23" rx="7" fill="#FF7635"/>
<path d="M124.115 204.795L114.385 210.668V198.921L124.115 204.795Z" fill="white"/>
<rect x="102" y="232" width="32.4359" height="23" rx="7" fill="#FF7635"/>
<path d="M124.115 243.795L114.385 249.668V237.921L124.115 243.795Z" fill="white"/>
<rect x="102" y="271" width="32.4359" height="23" rx="7" fill="#FF7635"/>
<path d="M124.115 282.795L114.385 288.668V276.921L124.115 282.795Z" fill="white"/>
<g opacity="0.5">
<path d="M172.671 208H257.931L247.815 253.52H180.619L172.671 208Z" fill="#23373E"/>
<path d="M176.283 211.613H255.041L245.697 249.908H183.625L176.283 211.613Z" fill="#9796A5"/>
<path d="M265.741 272.997L164 272.997L181.446 252.854L247.454 252.854L265.741 272.997Z" fill="#3F4256"/>
<path d="M196.131 263.053L186.048 263.053L187.777 261.056L194.319 261.056L196.131 263.053Z" fill="#00D1FF"/>
<path d="M209.488 262.963L199.405 262.963L201.134 260.966L207.676 260.966L209.488 262.963Z" fill="#00D1FF"/>
<path d="M222.845 262.873L212.761 262.873L214.49 260.876L221.032 260.876L222.845 262.873Z" fill="#00D1FF"/>
<path d="M236.201 262.783L226.118 262.783L227.847 260.786L234.389 260.786L236.201 262.783Z" fill="#00D1FF"/>
<path d="M188.534 268.021L178.451 268.021L180.18 266.024L186.722 266.024L188.534 268.021Z" fill="#00D1FF"/>
<path d="M204.43 268.743L194.347 268.743L196.076 266.747L202.618 266.747L204.43 268.743Z" fill="#00D1FF"/>
<path d="M219.603 268.743L209.52 268.743L211.249 266.747L217.791 266.747L219.603 268.743Z" fill="#00D1FF"/>
<path d="M236.222 268.743L226.139 268.743L227.868 266.747L234.41 266.747L236.222 268.743Z" fill="#00D1FF"/>
<path d="M251.396 268.743L241.312 268.743L243.041 266.747L249.583 266.747L251.396 268.743Z" fill="#00D1FF"/>
<rect x="164" y="272.307" width="101.156" height="4.33527" fill="#23373E"/>
<path d="M237.7 234.247L237.706 234.25C237.796 233.701 237.839 233.141 237.839 232.586C237.839 232.09 237.801 231.591 237.732 231.103C237.801 231.588 237.836 232.078 237.836 232.569C237.836 233.132 237.79 233.695 237.7 234.247ZM215.626 229.265C215.611 229.253 215.6 229.242 215.585 229.227C215.606 229.248 215.626 229.268 215.649 229.288L217.551 230.911V230.908L215.626 229.265ZM231.205 222.994H231.208L230.758 220.561C230.752 220.532 230.746 220.506 230.738 220.48C230.74 220.494 230.746 220.511 230.749 220.526L231.205 222.994ZM232.773 238.86L233.684 238.111L236.379 239.067C236.872 238.402 237.287 237.687 237.616 236.93L235.447 235.074L235.638 233.91C235.711 233.472 235.749 233.022 235.749 232.572C235.749 232.122 235.711 231.672 235.638 231.233L235.45 230.075L237.618 228.22C237.287 227.465 236.875 226.748 236.382 226.083L233.687 227.038L232.776 226.289C232.082 225.72 231.307 225.273 230.473 224.959L229.367 224.544L228.848 221.728C228.028 221.635 227.2 221.635 226.38 221.728L225.86 224.55L224.76 224.965C223.932 225.279 223.163 225.726 222.475 226.292L221.563 227.044L218.851 226.08C218.358 226.745 217.943 227.459 217.615 228.217L219.807 230.09L219.618 231.251C219.545 231.683 219.51 232.128 219.51 232.572C219.51 233.013 219.548 233.46 219.618 233.893L219.807 235.054L217.615 236.927C217.946 237.682 218.358 238.399 218.851 239.064L221.563 238.1L222.475 238.852C223.163 239.418 223.932 239.865 224.76 240.178L225.857 240.599L226.377 243.421C227.196 243.514 228.029 243.514 228.845 243.421L229.364 240.605L230.47 240.19C231.307 239.877 232.079 239.429 232.773 238.86ZM227.631 237.4C226.746 237.4 225.912 237.174 225.184 236.776C223.59 235.911 222.507 234.224 222.507 232.281C222.507 229.459 224.794 227.172 227.617 227.172C229.559 227.172 231.246 228.255 232.111 229.849C232.509 230.574 232.735 231.408 232.735 232.296C232.735 235.115 230.45 237.4 227.631 237.4ZM218.767 241.305C218.608 241.36 218.442 241.372 218.285 241.34C218.451 241.375 218.625 241.369 218.793 241.311L221.157 240.469C221.154 240.466 221.148 240.463 221.145 240.46L218.767 241.305ZM239.601 229.265L237.7 230.891C237.7 230.897 237.703 230.905 237.703 230.911L239.601 229.288C239.808 229.111 239.924 228.856 239.927 228.591C239.918 228.847 239.802 229.094 239.601 229.265Z" fill="black" fill-opacity="0.15"/>
<path d="M239.921 236.48C239.935 236.616 239.921 236.756 239.871 236.889L239.845 236.965C239.32 238.427 238.537 239.783 237.531 240.968L237.479 241.029C237.357 241.173 237.195 241.277 237.012 241.326C236.83 241.375 236.638 241.368 236.46 241.305L234.1 240.466C233.234 241.179 232.256 241.744 231.205 242.138L230.749 244.606C230.715 244.792 230.625 244.963 230.491 245.096C230.357 245.229 230.186 245.319 230 245.352L229.922 245.367C229.163 245.504 228.393 245.573 227.622 245.573H227.631C228.406 245.573 229.181 245.503 229.936 245.367L230.015 245.352C230.2 245.319 230.372 245.229 230.505 245.096C230.639 244.963 230.729 244.792 230.764 244.606L231.22 242.141C232.271 241.746 233.24 241.186 234.111 240.472L236.469 241.311C236.646 241.374 236.839 241.381 237.021 241.332C237.203 241.282 237.366 241.179 237.488 241.035L237.54 240.974C238.55 239.781 239.326 238.437 239.851 236.976L239.877 236.901C239.924 236.764 239.938 236.619 239.921 236.48Z" fill="black" fill-opacity="0.15"/>
<path d="M232.726 232.281C232.726 231.402 232.503 230.571 232.111 229.848C231.246 228.255 229.559 227.172 227.617 227.172C224.795 227.172 222.507 229.459 222.507 232.281C222.507 234.224 223.59 235.911 225.184 236.776C225.907 237.168 226.734 237.391 227.617 237.391C230.439 237.391 232.726 235.103 232.726 232.281ZM224.365 232.281C224.365 231.413 224.705 230.598 225.317 229.982C225.933 229.367 226.749 229.03 227.617 229.03C228.485 229.03 229.301 229.367 229.916 229.982C230.219 230.284 230.458 230.642 230.622 231.037C230.785 231.431 230.869 231.854 230.868 232.281C230.868 233.15 230.529 233.965 229.916 234.581C229.614 234.883 229.256 235.123 228.861 235.287C228.467 235.45 228.044 235.534 227.617 235.533C226.749 235.533 225.933 235.193 225.317 234.581C225.015 234.279 224.775 233.921 224.612 233.526C224.448 233.132 224.364 232.709 224.365 232.281Z" fill="black"/>
<path d="M230 245.352C230.186 245.319 230.357 245.229 230.491 245.096C230.625 244.963 230.715 244.792 230.749 244.606L231.205 242.138C232.255 241.744 233.234 241.179 234.099 240.466L236.46 241.305C236.638 241.368 236.83 241.375 237.012 241.326C237.194 241.277 237.357 241.173 237.479 241.029L237.531 240.968C238.542 239.775 239.32 238.428 239.845 236.965L239.871 236.889C239.921 236.756 239.935 236.616 239.921 236.48C239.894 236.25 239.784 236.033 239.601 235.873L237.705 234.25L237.7 234.247C237.79 233.695 237.836 233.132 237.836 232.569C237.836 232.078 237.801 231.585 237.731 231.103C237.723 231.039 237.711 230.975 237.702 230.911C237.702 230.905 237.7 230.897 237.7 230.891L239.601 229.265C239.802 229.094 239.918 228.847 239.926 228.591C239.929 228.475 239.912 228.356 239.871 228.243L239.845 228.168C239.322 226.704 238.538 225.348 237.531 224.164L237.479 224.103C237.357 223.959 237.194 223.856 237.012 223.807C236.83 223.758 236.638 223.765 236.46 223.827L234.099 224.666C233.228 223.952 232.259 223.389 231.208 222.994H231.205L230.749 220.526C230.746 220.512 230.743 220.494 230.737 220.48C230.696 220.304 230.604 220.145 230.473 220.02C230.342 219.896 230.177 219.813 230 219.78L229.922 219.765C228.409 219.493 226.818 219.493 225.305 219.765L225.227 219.78C225.041 219.814 224.87 219.903 224.736 220.036C224.602 220.17 224.512 220.34 224.478 220.526L224.019 223.006C222.977 223.4 222.006 223.963 221.145 224.672L218.767 223.827C218.589 223.764 218.397 223.757 218.215 223.806C218.033 223.856 217.87 223.959 217.748 224.103L217.696 224.164C216.69 225.349 215.907 226.705 215.382 228.168L215.356 228.243C215.295 228.412 215.285 228.594 215.325 228.769C215.366 228.944 215.456 229.103 215.585 229.227C215.6 229.239 215.611 229.253 215.626 229.265L217.551 230.908V230.911C217.461 231.457 217.417 232.012 217.417 232.566C217.417 233.124 217.461 233.681 217.551 234.224L215.626 235.867C215.482 235.99 215.38 236.153 215.331 236.336C215.283 236.519 215.292 236.712 215.356 236.889L215.382 236.965C215.907 238.428 216.685 239.778 217.696 240.968L217.748 241.029C217.89 241.195 218.079 241.302 218.285 241.34C218.442 241.369 218.607 241.36 218.767 241.305L221.145 240.46C221.148 240.463 221.154 240.466 221.157 240.469C222.019 241.174 222.98 241.735 224.019 242.127L224.478 244.606C224.512 244.792 224.602 244.963 224.736 245.096C224.87 245.229 225.041 245.319 225.227 245.352L225.305 245.367C226.063 245.503 226.838 245.573 227.613 245.573H227.622C228.394 245.573 229.17 245.503 229.922 245.367L230 245.352ZM228.844 243.422C228.024 243.514 227.197 243.514 226.377 243.422L225.857 240.6L224.76 240.179C223.932 239.865 223.163 239.418 222.475 238.852L221.563 238.1L218.851 239.064C218.358 238.399 217.945 237.682 217.614 236.927L219.806 235.054L219.618 233.893C219.548 233.46 219.51 233.013 219.51 232.572C219.51 232.128 219.545 231.683 219.618 231.251L219.806 230.09L217.614 228.217C217.943 227.459 218.358 226.745 218.851 226.08L221.563 227.044L222.475 226.292C223.163 225.726 223.932 225.279 224.76 224.965L225.86 224.55L226.38 221.728C227.195 221.635 228.029 221.635 228.847 221.728L229.367 224.544L230.473 224.959C231.306 225.273 232.082 225.72 232.776 226.289L233.687 227.038L236.381 226.083C236.875 226.748 237.287 227.465 237.618 228.22L235.449 230.075L235.638 231.233C235.711 231.672 235.749 232.122 235.749 232.572C235.749 233.022 235.711 233.472 235.638 233.91L235.447 235.075L237.615 236.93C237.287 237.687 236.872 238.404 236.379 239.067L233.684 238.111L232.773 238.86C232.079 239.43 231.306 239.877 230.47 240.19L229.364 240.605L228.844 243.422Z" fill="black"/>
<path d="M215.975 238.397L215.979 238.399C216.036 238.046 216.064 237.686 216.064 237.329C216.064 237.01 216.04 236.689 215.995 236.375C216.04 236.687 216.063 237.003 216.063 237.318C216.063 237.68 216.033 238.043 215.975 238.397ZM201.781 235.194C201.772 235.186 201.764 235.179 201.755 235.169C201.768 235.183 201.781 235.196 201.796 235.209L203.019 236.252V236.25L201.781 235.194ZM211.799 231.161H211.801L211.511 229.597C211.507 229.578 211.504 229.561 211.498 229.545C211.5 229.554 211.504 229.565 211.506 229.575L211.799 231.161ZM212.807 241.364L213.393 240.882L215.125 241.496C215.443 241.069 215.71 240.609 215.921 240.122L214.526 238.929L214.649 238.181C214.696 237.899 214.72 237.609 214.72 237.32C214.72 237.031 214.696 236.741 214.649 236.459L214.528 235.715L215.923 234.522C215.71 234.036 215.445 233.575 215.127 233.148L213.395 233.762L212.809 233.28C212.362 232.914 211.864 232.627 211.328 232.425L210.617 232.158L210.283 230.347C209.756 230.288 209.223 230.288 208.696 230.347L208.362 232.162L207.654 232.429C207.122 232.631 206.628 232.918 206.185 233.282L205.599 233.766L203.855 233.146C203.538 233.573 203.271 234.033 203.06 234.52L204.47 235.724L204.348 236.471C204.301 236.749 204.279 237.034 204.279 237.32C204.279 237.604 204.303 237.891 204.348 238.169L204.47 238.916L203.06 240.12C203.273 240.606 203.538 241.067 203.855 241.494L205.599 240.874L206.185 241.358C206.628 241.722 207.122 242.01 207.654 242.211L208.36 242.482L208.694 244.296C209.221 244.356 209.756 244.356 210.281 244.296L210.615 242.486L211.326 242.219C211.864 242.017 212.361 241.729 212.807 241.364ZM209.501 240.425C208.931 240.425 208.395 240.279 207.927 240.023C206.902 239.467 206.206 238.382 206.206 237.133C206.206 235.319 207.677 233.848 209.491 233.848C210.74 233.848 211.825 234.544 212.381 235.569C212.637 236.036 212.783 236.571 212.783 237.143C212.783 238.955 211.313 240.425 209.501 240.425ZM203.801 242.935C203.699 242.971 203.592 242.978 203.491 242.958C203.598 242.98 203.71 242.977 203.818 242.939L205.338 242.398C205.336 242.396 205.332 242.394 205.33 242.392L203.801 242.935ZM217.198 235.194L215.975 236.239C215.975 236.243 215.977 236.248 215.977 236.252L217.198 235.209C217.33 235.095 217.405 234.93 217.407 234.761C217.401 234.925 217.326 235.084 217.198 235.194Z" fill="black" fill-opacity="0.15"/>
<path d="M217.403 239.833C217.412 239.921 217.403 240.01 217.371 240.096L217.354 240.145C217.017 241.085 216.513 241.957 215.867 242.719L215.833 242.758C215.755 242.851 215.65 242.917 215.533 242.949C215.416 242.981 215.292 242.976 215.178 242.935L213.66 242.396C213.103 242.855 212.474 243.218 211.799 243.471L211.506 245.058C211.484 245.177 211.426 245.287 211.34 245.373C211.254 245.459 211.144 245.516 211.024 245.538L210.974 245.547C210.486 245.635 209.991 245.68 209.495 245.68H209.501C209.999 245.68 210.498 245.635 210.983 245.547L211.033 245.538C211.153 245.516 211.263 245.459 211.349 245.373C211.435 245.287 211.493 245.177 211.515 245.058L211.808 243.473C212.484 243.219 213.107 242.859 213.667 242.4L215.183 242.939C215.298 242.98 215.422 242.984 215.539 242.953C215.656 242.921 215.76 242.854 215.839 242.762L215.872 242.723C216.522 241.955 217.02 241.091 217.358 240.152L217.375 240.103C217.405 240.016 217.414 239.922 217.403 239.833Z" fill="black" fill-opacity="0.15"/>
<path d="M212.777 237.133C212.777 236.568 212.633 236.034 212.381 235.569C211.825 234.544 210.74 233.848 209.491 233.848C207.677 233.848 206.206 235.319 206.206 237.133C206.206 238.382 206.902 239.467 207.927 240.023C208.392 240.275 208.924 240.419 209.491 240.419C211.306 240.419 212.777 238.948 212.777 237.133ZM207.4 237.133C207.4 236.575 207.619 236.051 208.013 235.655C208.408 235.259 208.933 235.042 209.491 235.042C210.049 235.042 210.574 235.259 210.97 235.655C211.164 235.849 211.318 236.079 211.424 236.333C211.529 236.587 211.582 236.859 211.582 237.133C211.582 237.692 211.364 238.216 210.97 238.612C210.776 238.806 210.545 238.961 210.292 239.066C210.038 239.171 209.766 239.225 209.491 239.224C208.933 239.224 208.408 239.006 208.013 238.612C207.818 238.418 207.664 238.187 207.559 237.934C207.454 237.68 207.4 237.408 207.4 237.133Z" fill="#00D1FF"/>
<path d="M211.024 245.538C211.144 245.516 211.254 245.459 211.34 245.373C211.426 245.287 211.484 245.177 211.506 245.058L211.799 243.471C212.474 243.218 213.103 242.855 213.66 242.396L215.178 242.936C215.292 242.976 215.416 242.981 215.533 242.949C215.65 242.917 215.755 242.851 215.833 242.758L215.867 242.719C216.516 241.952 217.017 241.085 217.354 240.145L217.371 240.096C217.403 240.01 217.412 239.921 217.403 239.833C217.386 239.685 217.315 239.545 217.198 239.443L215.979 238.399L215.975 238.397C216.033 238.043 216.063 237.68 216.063 237.318C216.063 237.003 216.04 236.685 215.995 236.375C215.99 236.334 215.982 236.293 215.977 236.252C215.977 236.249 215.975 236.243 215.975 236.239L217.198 235.194C217.326 235.084 217.401 234.925 217.407 234.761C217.409 234.686 217.397 234.609 217.371 234.537L217.354 234.488C217.018 233.547 216.514 232.675 215.867 231.914L215.833 231.875C215.755 231.782 215.65 231.716 215.533 231.684C215.416 231.653 215.292 231.657 215.178 231.697L213.66 232.237C213.1 231.777 212.476 231.415 211.801 231.161H211.799L211.506 229.575C211.504 229.565 211.502 229.554 211.498 229.545C211.471 229.432 211.412 229.329 211.328 229.249C211.244 229.169 211.138 229.116 211.024 229.095L210.974 229.085C210.001 228.91 208.978 228.91 208.005 229.085L207.955 229.095C207.835 229.116 207.725 229.174 207.639 229.26C207.553 229.345 207.495 229.455 207.473 229.575L207.178 231.169C206.508 231.423 205.884 231.785 205.33 232.24L203.801 231.697C203.687 231.657 203.563 231.652 203.446 231.684C203.329 231.715 203.224 231.782 203.146 231.875L203.112 231.914C202.466 232.676 201.962 233.548 201.625 234.488L201.608 234.537C201.569 234.645 201.562 234.763 201.588 234.875C201.614 234.987 201.672 235.089 201.755 235.169C201.765 235.177 201.772 235.186 201.781 235.194L203.019 236.25V236.252C202.961 236.603 202.933 236.96 202.933 237.316C202.933 237.675 202.961 238.033 203.019 238.382L201.781 239.439C201.689 239.518 201.623 239.623 201.592 239.74C201.561 239.858 201.567 239.982 201.608 240.096L201.625 240.145C201.962 241.085 202.463 241.954 203.112 242.719L203.146 242.758C203.237 242.865 203.359 242.934 203.491 242.958C203.592 242.977 203.699 242.971 203.801 242.936L205.33 242.392C205.332 242.394 205.336 242.396 205.338 242.398C205.892 242.851 206.51 243.212 207.178 243.464L207.473 245.058C207.495 245.177 207.553 245.287 207.639 245.373C207.725 245.459 207.835 245.516 207.955 245.538L208.005 245.547C208.493 245.635 208.991 245.68 209.49 245.68H209.495C209.992 245.68 210.49 245.635 210.974 245.547L211.024 245.538ZM210.281 244.296C209.754 244.356 209.221 244.356 208.694 244.296L208.36 242.482L207.654 242.211C207.122 242.01 206.628 241.722 206.185 241.358L205.599 240.875L203.855 241.494C203.538 241.067 203.273 240.606 203.06 240.12L204.47 238.916L204.348 238.169C204.303 237.891 204.279 237.604 204.279 237.32C204.279 237.034 204.302 236.749 204.348 236.471L204.47 235.724L203.06 234.52C203.271 234.033 203.538 233.573 203.855 233.146L205.599 233.766L206.185 233.282C206.628 232.918 207.122 232.631 207.654 232.429L208.362 232.162L208.696 230.347C209.221 230.288 209.756 230.288 210.283 230.347L210.617 232.158L211.328 232.425C211.864 232.627 212.363 232.914 212.809 233.28L213.395 233.762L215.127 233.148C215.445 233.575 215.71 234.036 215.923 234.522L214.528 235.715L214.649 236.459C214.696 236.741 214.72 237.031 214.72 237.32C214.72 237.609 214.696 237.899 214.649 238.181L214.526 238.929L215.921 240.122C215.709 240.609 215.442 241.07 215.125 241.496L213.393 240.882L212.807 241.364C212.361 241.73 211.864 242.017 211.326 242.219L210.615 242.486L210.281 244.296Z" fill="#00D1FF"/>
<path d="M211.64 223.946L211.644 223.948C211.701 223.595 211.729 223.235 211.729 222.878C211.729 222.559 211.705 222.238 211.66 221.924C211.705 222.236 211.728 222.552 211.728 222.867C211.728 223.229 211.698 223.592 211.64 223.946ZM197.446 220.743C197.437 220.735 197.43 220.728 197.42 220.719C197.433 220.732 197.446 220.745 197.461 220.758L198.684 221.801V221.799L197.446 220.743ZM207.464 216.71H207.466L207.176 215.146C207.173 215.127 207.169 215.111 207.163 215.094C207.165 215.103 207.169 215.114 207.171 215.124L207.464 216.71ZM208.472 226.913L209.058 226.431L210.79 227.045C211.108 226.618 211.375 226.158 211.586 225.671L210.191 224.478L210.314 223.73C210.361 223.448 210.385 223.158 210.385 222.869C210.385 222.58 210.361 222.29 210.314 222.008L210.193 221.264L211.588 220.071C211.375 219.585 211.11 219.124 210.792 218.697L209.06 219.311L208.474 218.829C208.028 218.463 207.529 218.176 206.993 217.974L206.282 217.707L205.948 215.896C205.421 215.837 204.888 215.837 204.361 215.896L204.027 217.711L203.319 217.978C202.787 218.18 202.293 218.467 201.85 218.831L201.264 219.315L199.52 218.695C199.203 219.122 198.936 219.582 198.725 220.069L200.135 221.273L200.013 222.02C199.967 222.298 199.944 222.583 199.944 222.869C199.944 223.153 199.968 223.44 200.013 223.719L200.135 224.465L198.725 225.669C198.938 226.155 199.203 226.616 199.52 227.043L201.264 226.424L201.85 226.907C202.293 227.271 202.787 227.559 203.319 227.76L204.025 228.031L204.359 229.845C204.886 229.905 205.421 229.905 205.946 229.845L206.28 228.035L206.991 227.768C207.529 227.566 208.026 227.279 208.472 226.913ZM205.166 225.974C204.596 225.974 204.06 225.828 203.592 225.572C202.567 225.016 201.871 223.931 201.871 222.682C201.871 220.868 203.342 219.397 205.156 219.397C206.405 219.397 207.49 220.093 208.046 221.118C208.302 221.585 208.448 222.121 208.448 222.692C208.448 224.504 206.978 225.974 205.166 225.974ZM199.466 228.485C199.364 228.52 199.257 228.527 199.156 228.507C199.263 228.529 199.375 228.526 199.483 228.488L201.003 227.947C201.001 227.945 200.997 227.943 200.995 227.941L199.466 228.485ZM212.863 220.743L211.64 221.788C211.64 221.792 211.642 221.798 211.642 221.801L212.863 220.758C212.995 220.644 213.07 220.48 213.072 220.31C213.066 220.474 212.991 220.633 212.863 220.743Z" fill="#0888FE" fill-opacity="0.97"/>
<path d="M213.068 225.382C213.077 225.47 213.068 225.559 213.036 225.645L213.019 225.694C212.682 226.634 212.178 227.506 211.531 228.268L211.498 228.307C211.419 228.4 211.315 228.466 211.198 228.498C211.081 228.53 210.957 228.525 210.842 228.485L209.325 227.945C208.768 228.404 208.139 228.767 207.463 229.02L207.17 230.607C207.148 230.727 207.09 230.836 207.004 230.922C206.918 231.008 206.808 231.065 206.689 231.087L206.638 231.096C206.15 231.184 205.655 231.229 205.16 231.229H205.165C205.664 231.229 206.162 231.184 206.648 231.096L206.698 231.087C206.817 231.065 206.927 231.008 207.014 230.922C207.1 230.836 207.157 230.727 207.18 230.607L207.473 229.022C208.148 228.768 208.772 228.408 209.332 227.949L210.848 228.488C210.962 228.529 211.086 228.533 211.203 228.502C211.32 228.47 211.425 228.404 211.503 228.311L211.537 228.272C212.186 227.504 212.685 226.64 213.023 225.701L213.04 225.653C213.069 225.565 213.079 225.472 213.068 225.382Z" fill="#0888FE" fill-opacity="0.97"/>
<path d="M208.442 222.682C208.442 222.117 208.298 221.583 208.046 221.118C207.49 220.093 206.405 219.397 205.156 219.397C203.342 219.397 201.871 220.868 201.871 222.682C201.871 223.931 202.567 225.016 203.592 225.572C204.057 225.824 204.589 225.968 205.156 225.968C206.971 225.968 208.442 224.497 208.442 222.682ZM203.065 222.682C203.065 222.124 203.284 221.6 203.678 221.204C204.073 220.808 204.598 220.592 205.156 220.592C205.714 220.592 206.239 220.808 206.635 221.204C206.829 221.398 206.983 221.628 207.089 221.882C207.194 222.136 207.248 222.408 207.247 222.682C207.247 223.241 207.029 223.765 206.635 224.161C206.441 224.355 206.21 224.51 205.957 224.615C205.703 224.72 205.431 224.774 205.156 224.773C204.598 224.773 204.073 224.555 203.678 224.161C203.483 223.967 203.329 223.737 203.224 223.483C203.119 223.229 203.065 222.957 203.065 222.682Z" fill="#20373B"/>
<path d="M206.689 231.087C206.808 231.065 206.918 231.008 207.004 230.922C207.09 230.836 207.148 230.727 207.17 230.607L207.463 229.02C208.139 228.767 208.768 228.404 209.325 227.945L210.842 228.485C210.957 228.525 211.081 228.53 211.198 228.498C211.315 228.466 211.419 228.4 211.498 228.307L211.531 228.268C212.181 227.501 212.681 226.635 213.019 225.694L213.036 225.645C213.068 225.559 213.077 225.47 213.068 225.382C213.051 225.234 212.98 225.094 212.862 224.992L211.643 223.948L211.639 223.946C211.697 223.592 211.727 223.229 211.727 222.867C211.727 222.552 211.705 222.234 211.66 221.925C211.654 221.883 211.647 221.842 211.641 221.801C211.641 221.798 211.639 221.792 211.639 221.788L212.862 220.743C212.991 220.633 213.066 220.474 213.071 220.31C213.073 220.235 213.062 220.159 213.036 220.086L213.019 220.037C212.682 219.096 212.178 218.224 211.531 217.463L211.498 217.424C211.419 217.331 211.314 217.265 211.197 217.233C211.08 217.202 210.957 217.206 210.842 217.246L209.325 217.786C208.765 217.327 208.141 216.964 207.465 216.71H207.463L207.17 215.124C207.168 215.114 207.167 215.103 207.163 215.094C207.136 214.981 207.077 214.878 206.992 214.798C206.908 214.719 206.803 214.665 206.689 214.644L206.638 214.635C205.666 214.459 204.643 214.459 203.67 214.635L203.62 214.644C203.5 214.666 203.39 214.723 203.304 214.809C203.218 214.894 203.16 215.004 203.138 215.124L202.843 216.718C202.173 216.972 201.548 217.334 200.995 217.789L199.466 217.246C199.352 217.206 199.228 217.201 199.111 217.233C198.994 217.264 198.889 217.331 198.811 217.424L198.777 217.463C198.131 218.225 197.627 219.097 197.289 220.037L197.272 220.086C197.233 220.194 197.227 220.312 197.253 220.424C197.279 220.536 197.337 220.638 197.42 220.719C197.429 220.726 197.437 220.735 197.446 220.743L198.684 221.799V221.801C198.626 222.152 198.598 222.509 198.598 222.865C198.598 223.224 198.626 223.582 198.684 223.931L197.446 224.988C197.354 225.067 197.288 225.172 197.257 225.289C197.226 225.407 197.231 225.531 197.272 225.645L197.289 225.694C197.627 226.635 198.127 227.503 198.777 228.268L198.811 228.307C198.902 228.414 199.023 228.483 199.156 228.507C199.257 228.526 199.363 228.52 199.466 228.485L200.995 227.941C200.997 227.943 201 227.945 201.002 227.947C201.557 228.401 202.175 228.761 202.843 229.013L203.138 230.607C203.16 230.727 203.218 230.836 203.304 230.922C203.39 231.008 203.5 231.065 203.62 231.087L203.67 231.096C204.157 231.184 204.656 231.229 205.154 231.229H205.16C205.656 231.229 206.155 231.184 206.638 231.096L206.689 231.087ZM205.946 229.846C205.418 229.905 204.886 229.905 204.359 229.846L204.025 228.031L203.319 227.76C202.787 227.559 202.292 227.271 201.85 226.907L201.264 226.424L199.52 227.043C199.203 226.616 198.938 226.155 198.725 225.669L200.134 224.465L200.013 223.719C199.968 223.44 199.944 223.153 199.944 222.869C199.944 222.584 199.966 222.298 200.013 222.02L200.134 221.273L198.725 220.069C198.936 219.582 199.203 219.122 199.52 218.695L201.264 219.315L201.85 218.831C202.292 218.467 202.787 218.18 203.319 217.978L204.026 217.711L204.361 215.897C204.885 215.837 205.421 215.837 205.947 215.897L206.282 217.707L206.993 217.974C207.529 218.176 208.027 218.463 208.473 218.829L209.059 219.311L210.792 218.697C211.109 219.124 211.374 219.585 211.587 220.071L210.193 221.264L210.314 222.009C210.361 222.29 210.385 222.58 210.385 222.869C210.385 223.159 210.361 223.448 210.314 223.73L210.191 224.478L211.585 225.671C211.374 226.158 211.107 226.619 210.79 227.045L209.058 226.431L208.471 226.913C208.025 227.279 207.529 227.566 206.991 227.768L206.28 228.035L205.946 229.846Z" fill="#20373B"/>
</g>
<path d="M132.092 374.656C133.698 370.701 133.931 367.11 132.612 366.635C131.293 366.161 128.922 368.982 127.316 372.937C125.71 376.892 125.477 380.483 126.796 380.957C128.115 381.432 130.486 378.61 132.092 374.656Z" fill="#FD4322"/>
<path d="M130.727 387.831C132.168 379.472 126.138 371.596 117.258 370.24C108.378 368.884 100.012 374.56 98.5708 382.919C97.1298 391.277 103.16 399.153 112.04 400.509C120.919 401.865 129.286 396.189 130.727 387.831Z" fill="#FD4322"/>
<path d="M112.175 397.408H107.226V405.753H112.175V397.408Z" fill="#FD4322"/>
<path d="M122.071 397.408H117.123V405.753H122.071V397.408Z" fill="#FD4322"/>
<path d="M111.35 407.306C113.627 407.306 115.474 406.654 115.474 405.85C115.474 405.046 113.627 404.394 111.35 404.394C109.073 404.394 107.226 405.046 107.226 405.85C107.226 406.654 109.073 407.306 111.35 407.306Z" fill="#FD4322"/>
<path d="M121.246 407.112C123.524 407.112 125.37 406.46 125.37 405.656C125.37 404.852 123.524 404.2 121.246 404.2C118.969 404.2 117.123 404.852 117.123 405.656C117.123 406.46 118.969 407.112 121.246 407.112Z" fill="#FD4322"/>
<path opacity="0.85" d="M115.061 386.733C118.136 386.733 120.628 384.387 120.628 381.493C120.628 378.599 118.136 376.253 115.061 376.253C111.987 376.253 109.494 378.599 109.494 381.493C109.494 384.387 111.987 386.733 115.061 386.733Z" fill="white"/>
<path d="M115.061 383.24C116.086 383.24 116.917 382.458 116.917 381.493C116.917 380.528 116.086 379.746 115.061 379.746C114.036 379.746 113.205 380.528 113.205 381.493C113.205 382.458 114.036 383.24 115.061 383.24Z" fill="#FEEDE2"/>
<path d="M98.8487 371.116C97.5335 365.571 101.738 359.969 108.239 358.602C114.74 357.236 121.077 360.623 122.392 366.167C123.707 371.712 119.399 373.757 112.897 375.123C106.396 376.49 100.164 376.66 98.8487 371.116Z" fill="#6C63FF"/>
<path d="M104.297 379.724C104.567 378.419 101.206 376.706 96.7907 375.898C92.3755 375.09 88.5777 375.492 88.3082 376.797C88.0386 378.101 91.3993 379.814 95.8145 380.623C100.23 381.431 104.027 381.029 104.297 379.724Z" fill="#FD4322"/>
<path opacity="0.85" d="M106.648 390.906C106.648 392.406 110.753 395.37 115.308 395.37C119.862 395.37 124.133 391.145 124.133 389.644C124.133 388.144 119.862 389.935 115.308 389.935C110.753 389.935 106.648 389.405 106.648 390.906Z" fill="white"/>
<path d="M118.484 360.769L116.501 353.805L97.3686 358.63L99.3511 365.595C102.716 361.642 114.471 359.031 118.484 360.769Z" fill="url(#paint1_linear)"/>
<rect width="0.530347" height="5.00643" transform="matrix(-1.00532 0.0400046 -0.00643067 0.991873 92.2312 358.119)" fill="#C1BFAA"/>
<path d="M92.5467 364.254L93.9738 370.231L91.7079 370.321L91.7158 369.099L90.5527 370.367L89.8418 370.396L91.747 364.286L92.5467 364.254Z" fill="#FF0606"/>
<ellipse rx="1.32587" ry="1.15533" transform="matrix(-1.00532 0.0400046 -0.00643067 0.991873 91.9294 363.553)" fill="#FDC501"/>
<path d="M126.949 349.205L104.435 349.305L86.4815 359.412L107.127 358.762L126.949 349.205Z" fill="url(#paint2_linear)" stroke="white"/>
<path d="M349.945 359.168C348.319 355.162 348.083 351.525 349.419 351.045C350.755 350.564 353.157 353.422 354.783 357.428C356.41 361.433 356.645 365.07 355.309 365.551C353.973 366.032 351.572 363.174 349.945 359.168Z" fill="#FD4322"/>
<path d="M351.328 372.513C349.869 364.047 355.977 356.07 364.971 354.696C373.965 353.322 382.439 359.071 383.899 367.538C385.358 376.004 379.25 383.981 370.256 385.355C361.262 386.728 352.788 380.979 351.328 372.513Z" fill="#FD4322"/>
<path d="M370.119 382.213H375.132V390.666H370.119V382.213Z" fill="#FD4322"/>
<path d="M360.095 382.213H365.107V390.666H360.095V382.213Z" fill="#FD4322"/>
<path d="M370.955 392.239C368.648 392.239 366.778 391.579 366.778 390.765C366.778 389.95 368.648 389.29 370.955 389.29C373.262 389.29 375.132 389.95 375.132 390.765C375.132 391.579 373.262 392.239 370.955 392.239Z" fill="#FD4322"/>
<path d="M360.931 392.042C358.624 392.042 356.754 391.382 356.754 390.568C356.754 389.754 358.624 389.094 360.931 389.094C363.237 389.094 365.107 389.754 365.107 390.568C365.107 391.382 363.237 392.042 360.931 392.042Z" fill="#FD4322"/>
<path d="M383.617 355.583C384.949 349.967 380.691 344.292 374.106 342.908C367.521 341.524 361.103 344.955 359.77 350.57C358.438 356.186 362.802 358.258 369.388 359.642C375.973 361.026 382.285 361.199 383.617 355.583Z" fill="#6C63FF"/>
<path d="M378.124 364.421C377.829 363.103 381.204 361.318 385.662 360.434C390.12 359.55 393.973 359.901 394.268 361.218C394.563 362.535 391.188 364.32 386.73 365.204C382.272 366.089 378.419 365.738 378.124 364.421Z" fill="#FD4322"/>
<path d="M363.976 344.713L365.923 337.731L384.803 342.398L382.855 349.38C379.531 345.455 367.932 342.941 363.976 344.713Z" fill="url(#paint3_linear)"/>
<rect width="0.522421" height="5.01366" transform="matrix(1.00648 0.0139322 0.0309956 0.991068 389.726 341.845)" fill="#C1BFAA"/>
<path d="M389.568 347.994L388.311 354.013L390.546 354.044L390.508 352.821L391.685 354.059L392.386 354.069L390.357 348.005L389.568 347.994Z" fill="#FF0606"/>
<ellipse rx="1.30605" ry="1.157" transform="matrix(1.00648 0.0139322 0.0309956 0.991068 390.159 347.276)" fill="#FDC501"/>
<path d="M355.611 333.218L377.822 333.131L395.544 343.089L375.177 342.611L355.611 333.218Z" fill="url(#paint4_linear)" stroke="white"/>
<defs>
<linearGradient id="paint0_linear" x1="229.026" y1="143.508" x2="229.026" y2="313.945" gradientUnits="userSpaceOnUse">
<stop stop-color="#FAE8DA"/>
<stop offset="1" stop-color="#FCECD5" stop-opacity="0.28"/>
</linearGradient>
<linearGradient id="paint1_linear" x1="104.701" y1="360.757" x2="118.489" y2="355.296" gradientUnits="userSpaceOnUse">
<stop stop-color="#040404"/>
<stop offset="1" stop-color="#1C1919" stop-opacity="0.54"/>
<stop offset="1" stop-color="#4D4646" stop-opacity="0.54"/>
</linearGradient>
<linearGradient id="paint2_linear" x1="106.363" y1="356.736" x2="124.246" y2="348.1" gradientUnits="userSpaceOnUse">
<stop/>
<stop offset="1" stop-color="#4D4646" stop-opacity="0.54"/>
</linearGradient>
<linearGradient id="paint3_linear" x1="382.341" y1="346.901" x2="358.052" y2="339.565" gradientUnits="userSpaceOnUse">
<stop/>
<stop offset="1" stop-color="#1C1919" stop-opacity="0.62"/>
</linearGradient>
<linearGradient id="paint4_linear" x1="379.457" y1="337.623" x2="357.746" y2="331.793" gradientUnits="userSpaceOnUse">
<stop/>
<stop offset="1" stop-color="#4D4646" stop-opacity="0.56"/>
</linearGradient>
</defs>
</svg>
