<svg width="507" height="367" viewBox="0 0 507 367" fill="none" xmlns="http://www.w3.org/2000/svg">
<path d="M158.672 362.074C88.3838 339.418 60.957 319.175 42.4372 263.936C25.2122 162.78 43.8794 98.9477 125.959 60.3517C184.754 21.8928 221.539 22.5555 288.478 31.4671C408.807 49.1199 452.185 90.4133 445.43 212.083C430.622 250.33 417.864 270.567 383.832 303.609C368.665 334.573 350.369 344.34 306.923 353.374C250.021 368.393 217.516 369.773 158.672 362.074Z" fill="#FBE9DB"/>
<path d="M94.949 273.989C24.6612 251.334 29.8196 234.317 29.8196 225.415C12.5946 124.259 95.3472 153.894 177.427 115.298C236.222 76.8392 238.902 65.6696 305.841 74.5812C377.183 74.5812 419.435 78.1943 412.68 199.864C397.872 238.111 371.542 240.947 337.51 273.989C322.342 304.954 235.142 284.444 191.695 293.478C134.793 308.497 153.793 281.688 94.949 273.989Z" fill="#FEF7F1"/>
<path d="M169.688 356.738C62.1877 368.251 45.943 306.29 63.5454 217.883C61.2999 116.443 101.478 153.153 128.275 72.0676C155.071 -9.01811 258.429 -8.32215 283.834 33.4388C309.239 75.1997 438.288 174.592 441.777 204.457C445.266 234.322 454.981 264.186 420.949 297.228C406.518 330.665 369.205 325.653 324.551 330.637C268.846 323.172 229.52 345.873 169.688 356.738Z" stroke="#D9D5D2" stroke-width="5"/>
<path fill-rule="evenodd" clip-rule="evenodd" d="M397.251 185.069C406.134 180.496 412.264 172.501 417.73 164.369C428.371 148.538 435.151 139.827 453.477 131.476C464.255 126.566 475.698 121.479 482.239 111.054C487.002 103.464 489.941 91.3794 484.051 83.5126C473.612 71.6668 456.62 71.1298 442.252 75.1978C424.444 80.24 414.849 90.7852 411.205 108.288C409.154 118.149 405.33 125.164 397.615 131.747C391.446 137.012 383.225 140.944 377.893 147.11C369.921 156.329 367.501 166.457 371.205 177.694C389.059 163.195 406.76 146.843 420.651 128.511C422.067 126.773 426.938 117.173 430.119 118.333C433.623 119.612 423.376 130.445 423.437 130.37C419.185 135.738 414.553 140.835 409.857 145.868C409.849 145.858 409.844 145.847 409.837 145.837C405.02 151.015 400.114 156.176 395.123 161.271C392.998 163.352 390.834 165.395 388.595 167.382C385.31 170.297 375.468 175.787 373.872 179.854C373.531 180.724 373.394 181.495 373.407 182.189C369.8 185.433 366.149 188.616 362.427 191.69C352.705 199.716 342.22 207.005 330.421 211.652C326.978 213.008 313.524 215.01 311.4 217.929C307.513 223.266 316.354 220.267 319.046 219.49C341.337 213.044 359.161 201.289 376.043 185.898C381.468 188.649 393.651 186.922 397.251 185.069Z" fill="#FFA63A"/>
<path fill-rule="evenodd" clip-rule="evenodd" d="M439.78 175.537C425.055 175.302 410.759 180.922 403.628 184.832C394.804 189.67 388.487 195.444 383.641 201.087C375.657 210.383 373.931 221.183 373.161 231.206C373.068 232.413 371.354 247.126 376.251 247.215C381.102 247.302 379.079 231.773 379.706 228.628C381.042 221.917 380.183 215.15 385.127 208.769C390.245 202.162 399.212 196.216 410.389 190.967C411.824 190.294 414.943 187.639 418.223 188.523C421.43 189.388 412.167 192.578 410.838 193.23C405.351 195.923 400.547 198.842 396.525 201.903C388.989 207.638 384.852 213.894 384.524 220.602C395.651 221.965 405.537 220.312 409.544 216.712C413.006 213.601 413.585 209.748 417.475 206.848C420.154 204.851 424.307 203.282 429.338 202.058C442.61 198.831 456.245 198.723 460.58 192.168C463.979 187.03 460.947 175.881 439.78 175.537Z" fill="#FF7635"/>
<path d="M49.496 143.55C72.5138 162.085 98.4151 223.467 129.064 251.781C156.512 283.462 165.22 288.784 145.83 233.246L145.807 233.197C125.467 189.029 114.056 164.251 73.3663 125.015C49.8861 105.554 26.4782 125.015 49.496 143.55Z" fill="#FF7635"/>
<path d="M59.7262 133.621C62.8023 136.188 65.735 138.704 68.5355 141.178M140.431 251.119C128.6 221.186 119.086 199.351 103.441 178.303M63.4204 146.198L80.7548 152.531M80.7548 152.531C84.9689 156.667 88.8328 160.724 92.4058 164.751M80.7548 152.531C76.9773 148.824 72.9184 145.052 68.5355 141.178M74.2189 161.754L92.4058 164.751M92.4058 164.751C96.4243 169.28 100.075 173.773 103.441 178.303M86.7224 178.303H103.441M68.5355 127.332V141.178" stroke="white" stroke-opacity="0.55" stroke-width="4" stroke-linecap="round"/>
<path d="M415.272 45.1825C403.029 68.9927 402.4 134.176 387.277 169.323C375.785 206.79 370.605 214.197 367.967 156.318L367.969 156.265C369.772 108.9 370.784 82.3277 390.327 34.1068C402.637 9.29349 427.515 21.3722 415.272 45.1825Z" fill="#F8590D"/>
<path d="M403.937 38.5545C402.33 41.8218 400.82 45.0019 399.402 48.1069M378.047 171.783C377.72 140.214 378.182 116.945 383.761 92.7564M405.087 51.4726L393.394 62.1805M393.394 62.1805C391.393 67.2433 389.645 72.1352 388.117 76.9208M393.394 62.1805C395.187 57.6421 397.183 52.9664 399.402 48.1069M401.569 69.1422L388.117 76.9208M388.117 76.9208C386.4 82.3032 384.962 87.5511 383.761 92.7564M397.021 88.2156L383.761 92.7564M394.91 34.9896L399.402 48.1069" stroke="white" stroke-opacity="0.55" stroke-width="4" stroke-linecap="round"/>
<path d="M111.797 265.491C130.888 270.321 139.609 270.84 152.364 268.674C149.137 257.627 148.456 251.661 132.376 242.769C116.296 233.876 78.1322 192 63.5599 190.976C48.9877 189.952 44.257 189.698 50.9407 210.418C72.0613 239.026 85.2967 251.324 111.797 265.491Z" fill="#FFA63A"/>
<path d="M60.6233 198.151C67.7147 198.126 74.1532 204.85 79.032 209.469C82.2799 212.544 85.268 215.909 88.6507 218.836C94.1531 223.597 99.4365 228.588 105.043 233.241C114.711 241.266 124.783 248.468 133.903 257.167C138.444 261.498 143.501 265.292 148.415 268.963" stroke="white" stroke-opacity="0.55" stroke-width="4" stroke-linecap="round" stroke-linejoin="round"/>
<path d="M67.589 216.825C71.1467 216.196 74.2007 214.335 77.6298 213.61C78.7605 213.371 80.1812 213.525 81.0577 212.735" stroke="white" stroke-opacity="0.55" stroke-width="4" stroke-linecap="round" stroke-linejoin="round"/>
<path d="M79.2654 229.615C84.049 228.771 90.1775 227.969 94.0492 224.797" stroke="white" stroke-opacity="0.55" stroke-width="4" stroke-linecap="round" stroke-linejoin="round"/>
<path d="M106.413 227.299C107.229 229.806 108.812 232.133 109.198 234.755C109.348 235.777 109.435 236.491 109.997 237.324" stroke="white" stroke-opacity="0.55" stroke-width="4" stroke-linecap="round" stroke-linejoin="round"/>
<path fill-rule="evenodd" clip-rule="evenodd" d="M113.659 278.406H115.296C115.181 276.328 115.031 274.255 114.68 272.2C113.365 264.501 109.25 253.193 100.227 251.943C99.894 251.896 98.6695 251.889 97.1861 251.975C96.4831 251.586 95.6956 251.351 94.8659 251.297C87.1832 250.737 78.6036 256.868 74.8977 263.249C71.9103 268.393 72.4136 275.149 74.2588 280.615C75.4944 284.274 78.1912 289.491 82.6885 289.542C88.3151 289.605 88.5864 282.726 88.6952 278.704C88.8398 273.357 89.5228 268.699 93.7817 265.055C94.7743 264.206 95.8592 263.459 96.8618 262.621C98.4318 261.311 100.167 259.969 100.369 257.801C100.648 254.81 98.9415 254.272 96.3356 254.827C95.8914 254.922 91.4167 256.908 92.0793 255.338C92.2815 254.859 93.0203 254.479 93.9528 254.194C96.3657 253.934 99.2432 253.633 100.071 253.813C108.999 255.751 112.475 267.985 113.398 275.758C113.502 276.638 113.586 277.521 113.659 278.406Z" fill="#F8590D"/>
<rect x="101.063" y="107.479" width="308.712" height="191.787" rx="23" fill="#364964"/>
<rect x="108.192" y="115.322" width="294.453" height="163.981" rx="15" fill="#FFFBFB"/>
<path d="M52.5815 294.275H462.534C462.534 306.875 452.32 317.09 439.719 317.09H75.3963C62.796 317.09 52.5815 306.875 52.5815 294.275Z" fill="#64678E"/>
<rect x="118.703" y="122.499" width="274.23" height="147.555" fill="#FBE9DD"/>
<rect x="119.399" y="121.107" width="273.534" height="18.7924" fill="#F3CBB7"/>
<path fill-rule="evenodd" clip-rule="evenodd" d="M124.695 248.3C131.559 225.881 201.015 238.653 246.55 231.722C292.084 224.791 345.955 192.514 381.608 208.325C417.261 224.136 379.327 262.357 297.554 270.982C215.782 279.607 117.831 270.718 124.695 248.3Z" fill="#FDFDFD"/>
<path d="M371.605 152.461L367.559 151.254C367.279 150.279 366.895 149.336 366.412 148.443L368.392 144.74C368.467 144.6 368.494 144.44 368.47 144.283C368.446 144.127 368.372 143.982 368.26 143.871L365.373 140.976C365.262 140.863 365.117 140.789 364.961 140.765C364.804 140.741 364.644 140.769 364.504 140.843L360.821 142.809C359.918 142.303 358.962 141.899 357.971 141.603L356.763 137.61C356.712 137.462 356.616 137.335 356.488 137.246C356.359 137.158 356.207 137.112 356.051 137.115H351.969C351.812 137.116 351.66 137.166 351.534 137.26C351.408 137.353 351.315 137.484 351.269 137.634L350.061 141.615C349.061 141.909 348.097 142.314 347.187 142.821L343.564 140.867C343.424 140.793 343.264 140.766 343.107 140.789C342.951 140.813 342.806 140.887 342.695 141L339.76 143.859C339.647 143.97 339.574 144.115 339.55 144.271C339.526 144.428 339.553 144.588 339.627 144.727L341.584 148.347C341.076 149.252 340.671 150.211 340.376 151.206L336.379 152.412C336.229 152.459 336.098 152.551 336.004 152.677C335.911 152.803 335.86 152.955 335.859 153.112V157.19C335.86 157.346 335.911 157.499 336.004 157.625C336.098 157.751 336.229 157.843 336.379 157.89L340.4 159.096C340.699 160.074 341.104 161.017 341.608 161.907L339.627 165.695C339.553 165.835 339.526 165.995 339.55 166.151C339.574 166.308 339.647 166.452 339.76 166.564L342.646 169.447C342.758 169.56 342.902 169.633 343.059 169.657C343.216 169.681 343.376 169.654 343.516 169.58L347.247 167.589C348.13 168.065 349.061 168.445 350.025 168.723L351.232 172.789C351.279 172.938 351.371 173.07 351.497 173.163C351.623 173.256 351.776 173.307 351.933 173.308H356.014C356.171 173.307 356.324 173.256 356.45 173.163C356.576 173.07 356.669 172.938 356.715 172.789L357.922 168.711C358.878 168.432 359.801 168.052 360.676 167.577L364.431 169.58C364.571 169.654 364.732 169.681 364.888 169.657C365.045 169.633 365.19 169.56 365.301 169.447L368.187 166.564C368.3 166.452 368.374 166.308 368.398 166.151C368.421 165.995 368.394 165.835 368.32 165.695L366.315 161.955C366.795 161.078 367.18 160.152 367.463 159.192L371.532 157.986C371.682 157.94 371.813 157.847 371.907 157.721C372 157.595 372.051 157.443 372.051 157.286V153.172C372.059 153.022 372.02 152.874 371.94 152.747C371.86 152.619 371.743 152.52 371.605 152.461ZM354.01 161.847C352.696 161.847 351.412 161.457 350.32 160.728C349.228 159.999 348.376 158.963 347.874 157.751C347.371 156.538 347.239 155.204 347.496 153.917C347.752 152.63 348.384 151.447 349.313 150.519C350.242 149.591 351.426 148.959 352.714 148.703C354.002 148.447 355.338 148.579 356.552 149.081C357.765 149.583 358.802 150.434 359.532 151.525C360.262 152.616 360.652 153.899 360.652 155.211C360.652 156.971 359.952 158.659 358.706 159.903C357.461 161.148 355.771 161.847 354.01 161.847Z" fill="#195663"/>
<path d="M341.9 133.651L339.877 133.048C339.737 132.56 339.545 132.089 339.303 131.643L340.294 129.791C340.331 129.721 340.344 129.641 340.332 129.563C340.321 129.485 340.284 129.412 340.227 129.357L338.784 127.909C338.728 127.853 338.656 127.816 338.578 127.804C338.499 127.792 338.419 127.805 338.349 127.843L336.508 128.826C336.057 128.573 335.579 128.371 335.083 128.223L334.479 126.226C334.454 126.152 334.405 126.089 334.341 126.044C334.277 126 334.201 125.977 334.123 125.979H332.082C332.004 125.979 331.927 126.004 331.864 126.051C331.801 126.098 331.755 126.163 331.732 126.238L331.128 128.229C330.628 128.376 330.146 128.578 329.691 128.832L327.879 127.855C327.81 127.818 327.729 127.804 327.651 127.816C327.573 127.828 327.5 127.865 327.445 127.921L325.978 129.351C325.921 129.406 325.884 129.479 325.872 129.557C325.86 129.635 325.874 129.715 325.911 129.785L326.889 131.595C326.636 132.047 326.433 132.527 326.285 133.024L324.287 133.627C324.212 133.65 324.146 133.697 324.1 133.76C324.053 133.823 324.028 133.899 324.027 133.977V136.016C324.028 136.094 324.053 136.171 324.1 136.234C324.146 136.296 324.212 136.343 324.287 136.366L326.298 136.969C326.447 137.458 326.649 137.93 326.901 138.375L325.911 140.269C325.874 140.339 325.86 140.419 325.872 140.497C325.884 140.575 325.921 140.647 325.978 140.703L327.421 142.145C327.476 142.201 327.549 142.238 327.627 142.25C327.705 142.262 327.785 142.248 327.855 142.211L329.721 141.216C330.162 141.454 330.628 141.644 331.11 141.783L331.714 143.816C331.737 143.89 331.783 143.956 331.846 144.003C331.909 144.049 331.985 144.075 332.064 144.075H334.105C334.183 144.075 334.259 144.049 334.322 144.003C334.385 143.956 334.432 143.89 334.455 143.816L335.059 141.777C335.536 141.637 335.998 141.447 336.435 141.21L338.313 142.211C338.383 142.248 338.463 142.262 338.542 142.25C338.62 142.238 338.692 142.201 338.748 142.145L340.191 140.703C340.247 140.647 340.284 140.575 340.296 140.497C340.308 140.419 340.295 140.339 340.257 140.269L339.255 138.399C339.495 137.96 339.687 137.497 339.829 137.017L341.864 136.414C341.938 136.391 342.004 136.345 342.051 136.282C342.097 136.219 342.123 136.143 342.123 136.064V134.007C342.127 133.932 342.107 133.858 342.067 133.794C342.027 133.731 341.969 133.681 341.9 133.651ZM333.102 138.344C332.446 138.344 331.803 138.15 331.257 137.785C330.711 137.421 330.286 136.903 330.034 136.296C329.783 135.69 329.717 135.023 329.845 134.38C329.973 133.736 330.29 133.145 330.754 132.681C331.219 132.217 331.81 131.901 332.454 131.773C333.099 131.645 333.766 131.711 334.373 131.962C334.98 132.213 335.499 132.638 335.864 133.184C336.229 133.729 336.423 134.371 336.423 135.027C336.423 135.907 336.073 136.751 335.451 137.373C334.828 137.995 333.983 138.344 333.102 138.344Z" fill="#195663"/>
<g opacity="0.44">
<path d="M247.152 28.6609L247.163 28.666C247.323 27.6879 247.401 26.6891 247.401 25.7006C247.401 24.8157 247.333 23.9255 247.209 23.0561C247.333 23.9203 247.396 24.795 247.396 25.6696C247.396 26.6736 247.313 27.6776 247.152 28.6609ZM207.805 19.7801C207.779 19.7594 207.758 19.7387 207.733 19.7129C207.769 19.7491 207.805 19.7853 207.846 19.8215L211.236 22.7145V22.7093L207.805 19.7801ZM235.575 8.60163H235.581L234.778 4.26478C234.768 4.21303 234.758 4.16645 234.742 4.11987C234.747 4.14575 234.758 4.1768 234.763 4.20268L235.575 8.60163ZM238.37 36.8843L239.995 35.5491L244.798 37.2518C245.677 36.0666 246.417 34.7935 247.002 33.4428L243.136 30.1358L243.478 28.0605C243.607 27.2791 243.675 26.4769 243.675 25.6747C243.675 24.8726 243.607 24.0704 243.478 23.289L243.142 21.224L247.007 17.9171C246.417 16.5715 245.683 15.2932 244.803 14.1081L240 15.8107L238.375 14.4755C237.138 13.4612 235.756 12.6642 234.271 12.1053L232.299 11.3652L231.373 6.34523C229.911 6.17962 228.436 6.17962 226.974 6.34523L226.048 11.3756L224.086 12.1156C222.611 12.6745 221.24 13.4715 220.013 14.4807L218.388 15.8211L213.555 14.1029C212.675 15.288 211.935 16.5611 211.35 17.9119L215.257 21.2499L214.921 23.32C214.792 24.0911 214.729 24.8829 214.729 25.6747C214.729 26.4614 214.797 27.2584 214.921 28.0295L215.257 30.0996L211.35 33.4376C211.94 34.7832 212.675 36.0614 213.555 37.2466L218.388 35.5284L220.013 36.8688C221.24 37.878 222.611 38.6749 224.086 39.2339L226.043 39.9843L226.969 45.0146C228.428 45.1802 229.914 45.1802 231.368 45.0146L232.294 39.9946L234.266 39.2546C235.756 38.6956 237.133 37.8987 238.37 36.8843ZM229.205 34.2812C227.626 34.2812 226.141 33.8775 224.842 33.1685C222.001 31.6263 220.07 28.6195 220.07 25.1572C220.07 20.1269 224.148 16.0488 229.179 16.0488C232.641 16.0488 235.648 17.9792 237.19 20.8204C237.899 22.1142 238.303 23.5995 238.303 25.1831C238.303 30.2083 234.23 34.2812 229.205 34.2812ZM213.405 41.2419C213.12 41.3402 212.825 41.3609 212.546 41.304C212.841 41.3661 213.151 41.3557 213.451 41.2522L217.664 39.7514C217.659 39.7462 217.648 39.741 217.643 39.7359L213.405 41.2419ZM250.542 19.7801L247.152 22.6783C247.152 22.6886 247.158 22.7042 247.158 22.7145L250.542 19.8215C250.91 19.5059 251.117 19.0504 251.122 18.5795C251.106 19.0349 250.899 19.4748 250.542 19.7801Z" fill="#F70000" fill-opacity="0.27"/>
<path d="M251.111 32.6407C251.137 32.8839 251.111 33.1323 251.023 33.3704L250.977 33.505C250.041 36.112 248.644 38.5295 246.852 40.6416L246.759 40.7503C246.542 41.0069 246.252 41.1914 245.927 41.2792C245.603 41.367 245.259 41.354 244.943 41.2419L240.735 39.7463C239.191 41.018 237.448 42.0252 235.575 42.7272L234.763 47.1262C234.702 47.4572 234.541 47.7617 234.302 47.9993C234.064 48.2368 233.759 48.3962 233.428 48.4562L233.288 48.4821C231.935 48.7266 230.564 48.8496 229.189 48.8495H229.205C230.586 48.8495 231.968 48.7253 233.314 48.4821L233.453 48.4562C233.785 48.3962 234.09 48.2368 234.328 47.9993C234.567 47.7617 234.727 47.4572 234.789 47.1262L235.601 42.7324C237.475 42.0286 239.203 41.0297 240.756 39.7566L244.958 41.2523C245.275 41.3644 245.618 41.3774 245.943 41.2895C246.267 41.2017 246.557 41.0173 246.775 40.7606L246.868 40.652C248.669 38.5249 250.05 36.1288 250.987 33.5257L251.034 33.3911C251.117 33.1479 251.142 32.8891 251.111 32.6407Z" fill="black" fill-opacity="0.15"/>
<path d="M238.287 25.1573C238.287 23.5892 237.889 22.109 237.19 20.8204C235.648 17.9792 232.641 16.0488 229.179 16.0488C224.149 16.0488 220.071 20.1269 220.071 25.1573C220.071 28.6195 222.001 31.6263 224.842 33.1685C226.131 33.8672 227.606 34.2657 229.179 34.2657C234.209 34.2657 238.287 30.1876 238.287 25.1573ZM223.383 25.1573C223.383 23.6099 223.988 22.1556 225.08 21.0585C226.177 19.9613 227.632 19.361 229.179 19.361C230.726 19.361 232.181 19.9613 233.278 21.0585C233.817 21.5961 234.244 22.2349 234.536 22.9384C234.827 23.6418 234.976 24.3959 234.975 25.1573C234.975 26.7046 234.37 28.1589 233.278 29.256C232.74 29.7952 232.101 30.2227 231.398 30.514C230.694 30.8053 229.94 30.9547 229.179 30.9535C227.632 30.9535 226.177 30.348 225.08 29.256C224.541 28.7184 224.114 28.0796 223.822 27.3761C223.531 26.6727 223.382 25.9186 223.383 25.1573Z" fill="#7E84B7"/>
<path d="M233.428 48.4562C233.759 48.3962 234.064 48.2368 234.303 47.9993C234.541 47.7617 234.702 47.4572 234.763 47.1262L235.576 42.7272C237.448 42.0253 239.192 41.018 240.735 39.7463L244.943 41.242C245.26 41.354 245.603 41.367 245.928 41.2792C246.252 41.1914 246.542 41.0069 246.759 40.7503L246.853 40.6416C248.654 38.5146 250.04 36.1133 250.977 33.505L251.024 33.3704C251.112 33.1324 251.138 32.8839 251.112 32.6407C251.065 32.2319 250.869 31.8437 250.542 31.5591L247.163 28.6661L247.153 28.6609C247.313 27.6776 247.396 26.6736 247.396 25.6697C247.396 24.795 247.334 23.9152 247.21 23.0562C247.194 22.9423 247.173 22.8284 247.158 22.7146C247.158 22.7042 247.153 22.6887 247.153 22.6784L250.542 19.7802C250.9 19.4749 251.107 19.035 251.122 18.5796C251.127 18.3726 251.096 18.1604 251.024 17.9585L250.977 17.824C250.044 15.2158 248.647 12.798 246.853 10.6873L246.759 10.5787C246.542 10.3228 246.252 10.1388 245.927 10.051C245.603 9.96326 245.26 9.97581 244.943 10.087L240.735 11.5827C239.183 10.3095 237.454 9.30555 235.581 8.60172H235.576L234.763 4.20276C234.758 4.17689 234.753 4.14583 234.742 4.11996C234.668 3.80706 234.504 3.52261 234.27 3.30119C234.037 3.07977 233.744 2.93091 233.428 2.87273L233.288 2.84685C230.592 2.36038 227.756 2.36038 225.06 2.84685L224.92 2.87273C224.589 2.93274 224.283 3.09212 224.045 3.32969C223.807 3.56725 223.646 3.87176 223.585 4.20276L222.767 8.62242C220.908 9.3264 219.178 10.3299 217.643 11.593L213.405 10.087C213.088 9.97492 212.745 9.96193 212.42 10.0497C212.096 10.1376 211.806 10.322 211.588 10.5787L211.495 10.6873C209.703 12.7995 208.306 15.2169 207.371 17.824L207.324 17.9585C207.216 18.2593 207.197 18.5848 207.27 18.896C207.342 19.2072 207.503 19.4908 207.733 19.713C207.759 19.7337 207.779 19.7595 207.805 19.7802L211.237 22.7094V22.7146C211.076 23.6875 210.998 24.676 210.998 25.6645C210.998 26.6581 211.076 27.6518 211.237 28.6195L207.805 31.5487C207.55 31.7676 207.367 32.0591 207.281 32.3845C207.195 32.7099 207.21 33.0538 207.324 33.3704L207.371 33.505C208.307 36.1133 209.694 38.5198 211.495 40.6416L211.588 40.7503C211.842 41.0453 212.178 41.2368 212.546 41.3041C212.825 41.3558 213.12 41.3403 213.405 41.242L217.643 39.736C217.649 39.7411 217.659 39.7463 217.664 39.7515C219.201 41.0091 220.914 42.0079 222.767 42.7065L223.585 47.1262C223.646 47.4572 223.807 47.7617 224.045 47.9993C224.283 48.2368 224.589 48.3962 224.92 48.4562L225.06 48.4821C226.41 48.7253 227.792 48.8496 229.174 48.8496H229.189C230.566 48.8496 231.948 48.7253 233.288 48.4821L233.428 48.4562ZM231.368 45.0147C229.907 45.1803 228.431 45.1803 226.969 45.0147L226.043 39.9844L224.087 39.234C222.612 38.675 221.24 37.878 220.014 36.8689L218.389 35.5285L213.555 37.2467C212.675 36.0615 211.94 34.7833 211.35 33.4377L215.258 30.0997L214.921 28.0296C214.797 27.2585 214.73 26.4615 214.73 25.6748C214.73 24.883 214.792 24.0912 214.921 23.3201L215.258 21.25L211.35 17.912C211.935 16.5612 212.675 15.2881 213.555 14.103L218.389 15.8212L220.014 14.4808C221.24 13.4716 222.612 12.6746 224.087 12.1157L226.048 11.3756L226.974 6.34531C228.429 6.1797 229.914 6.1797 231.373 6.34531L232.3 11.3653L234.272 12.1054C235.757 12.6643 237.139 13.4613 238.375 14.4756L240.001 15.8108L244.803 14.1082C245.683 15.2933 246.418 16.5716 247.008 17.9171L243.142 21.2241L243.478 23.289C243.608 24.0705 243.675 24.8727 243.675 25.6748C243.675 26.477 243.608 27.2792 243.478 28.0606L243.137 30.1359L247.003 33.4429C246.417 34.793 245.677 36.0711 244.798 37.2518L239.995 35.5492L238.37 36.8844C237.133 37.8987 235.757 38.6957 234.266 39.2547L232.295 39.9947L231.368 45.0147Z" fill="#7E84B7"/>
</g>
<path d="M245.291 26.179L245.301 26.1842C245.462 25.206 245.539 24.2072 245.539 23.2187C245.539 22.3338 245.472 21.4436 245.348 20.5742C245.472 21.4385 245.534 22.3131 245.534 23.1877C245.534 24.1917 245.451 25.1957 245.291 26.179ZM205.944 17.2983C205.918 17.2776 205.897 17.2569 205.871 17.231C205.907 17.2672 205.944 17.3034 205.985 17.3397L209.375 20.2326V20.2275L205.944 17.2983ZM233.714 6.11976H233.719L232.917 1.78291C232.907 1.73115 232.896 1.68458 232.881 1.638C232.886 1.66388 232.896 1.69493 232.901 1.7208L233.714 6.11976ZM236.509 34.4024L238.134 33.0672L242.936 34.7699C243.816 33.5848 244.556 32.3116 245.141 30.9609L241.275 27.6539L241.616 25.5787C241.746 24.7972 241.813 23.995 241.813 23.1929C241.813 22.3907 241.746 21.5885 241.616 20.8071L241.28 18.7422L245.146 15.4352C244.556 14.0896 243.821 12.8113 242.941 11.6262L238.139 13.3289L236.514 11.9937C235.277 10.9793 233.895 10.1823 232.41 9.62339L230.438 8.88334L229.512 3.86335C228.05 3.69774 226.574 3.69774 225.113 3.86335L224.186 8.89369L222.225 9.63375C220.75 10.1927 219.378 10.9897 218.152 11.9988L216.527 13.3392L211.693 11.621C210.813 12.8062 210.073 14.0793 209.489 15.43L213.396 18.768L213.06 20.8381C212.93 21.6092 212.868 22.4011 212.868 23.1929C212.868 23.9795 212.935 24.7765 213.06 25.5476L213.396 27.6177L209.489 30.9557C210.079 32.3013 210.813 33.5796 211.693 34.7647L216.527 33.0465L218.152 34.3869C219.378 35.3961 220.75 36.1931 222.225 36.752L224.181 37.5024L225.107 42.5327C226.567 42.6983 228.052 42.6983 229.506 42.5327L230.433 37.5128L232.405 36.7727C233.895 36.2138 235.272 35.4168 236.509 34.4024ZM227.343 31.7993C225.765 31.7993 224.279 31.3956 222.98 30.6866C220.139 29.1444 218.209 26.1376 218.209 22.6753C218.209 17.645 222.287 13.5669 227.317 13.5669C230.78 13.5669 233.786 15.4973 235.329 18.3385C236.038 19.6323 236.441 21.1176 236.441 22.7012C236.441 27.7264 232.368 31.7993 227.343 31.7993ZM211.543 38.76C211.259 38.8583 210.964 38.879 210.684 38.8221C210.979 38.8842 211.29 38.8738 211.59 38.7703L215.802 37.2695C215.797 37.2643 215.787 37.2592 215.782 37.254L211.543 38.76ZM248.681 17.2983L245.291 20.1964C245.291 20.2068 245.296 20.2223 245.296 20.2326L248.681 17.3397C249.048 17.024 249.255 16.5686 249.26 16.0976C249.245 16.553 249.038 16.9929 248.681 17.2983Z" fill="#F70000" fill-opacity="0.27"/>
<path d="M249.25 30.1587C249.276 30.4019 249.25 30.6503 249.162 30.8884L249.116 31.023C248.18 33.6301 246.783 36.0475 244.991 38.1596L244.898 38.2683C244.681 38.5249 244.391 38.7094 244.066 38.7972C243.742 38.885 243.398 38.872 243.081 38.7599L238.874 37.2643C237.33 38.536 235.587 39.5432 233.714 40.2452L232.902 44.6442C232.84 44.9752 232.68 45.2797 232.441 45.5173C232.203 45.7548 231.898 45.9142 231.566 45.9742L231.427 46.0001C230.074 46.2446 228.702 46.3676 227.328 46.3675H227.343C228.725 46.3675 230.107 46.2433 231.453 46.0001L231.592 45.9742C231.924 45.9142 232.229 45.7548 232.467 45.5173C232.706 45.2797 232.866 44.9752 232.927 44.6442L233.74 40.2504C235.613 39.5466 237.342 38.5478 238.895 37.2746L243.097 38.7703C243.414 38.8824 243.757 38.8954 244.082 38.8076C244.406 38.7197 244.696 38.5353 244.913 38.2786L245.006 38.17C246.807 36.0429 248.189 33.6468 249.126 31.0437L249.173 30.9091C249.255 30.6659 249.281 30.4071 249.25 30.1587Z" fill="black" fill-opacity="0.15"/>
<path d="M236.426 22.6754C236.426 21.1073 236.027 19.6272 235.329 18.3385C233.787 15.4973 230.78 13.567 227.318 13.567C222.287 13.567 218.209 17.645 218.209 22.6754C218.209 26.1376 220.139 29.1444 222.981 30.6866C224.269 31.3853 225.744 31.7838 227.318 31.7838C232.348 31.7838 236.426 27.7057 236.426 22.6754ZM221.521 22.6754C221.521 21.128 222.127 19.6737 223.219 18.5766C224.316 17.4794 225.77 16.8791 227.318 16.8791C228.865 16.8791 230.319 17.4794 231.416 18.5766C231.955 19.1142 232.383 19.7531 232.674 20.4565C232.966 21.1599 233.115 21.914 233.114 22.6754C233.114 24.2228 232.508 25.677 231.416 26.7742C230.879 27.3133 230.24 27.7408 229.536 28.0322C228.833 28.3235 228.079 28.4728 227.318 28.4716C225.77 28.4716 224.316 27.8661 223.219 26.7742C222.68 26.2366 222.252 25.5977 221.961 24.8943C221.669 24.1908 221.52 23.4367 221.521 22.6754Z" fill="#7E84B7"/>
<path d="M231.566 45.9742C231.898 45.9142 232.203 45.7548 232.441 45.5173C232.68 45.2797 232.84 44.9752 232.902 44.6442L233.714 40.2453C235.587 39.5433 237.33 38.536 238.874 37.2643L243.081 38.76C243.398 38.872 243.742 38.885 244.066 38.7972C244.391 38.7094 244.681 38.5249 244.898 38.2683L244.991 38.1596C246.792 36.0326 248.179 33.6313 249.116 31.023L249.162 30.8884C249.25 30.6504 249.276 30.4019 249.25 30.1587C249.204 29.7499 249.007 29.3617 248.681 29.0771L245.301 26.1841L245.291 26.1789C245.452 25.1957 245.534 24.1917 245.534 23.1877C245.534 22.313 245.472 21.4333 245.348 20.5742C245.333 20.4603 245.312 20.3465 245.296 20.2326C245.296 20.2222 245.291 20.2067 245.291 20.1964L248.681 17.2982C249.038 16.9929 249.245 16.553 249.261 16.0976C249.266 15.8906 249.235 15.6784 249.162 15.4766L249.116 15.342C248.182 12.7338 246.785 10.316 244.991 8.20534L244.898 8.09666C244.68 7.84076 244.39 7.6568 244.066 7.56903C243.742 7.48127 243.398 7.49381 243.081 7.60501L238.874 9.10066C237.321 7.82755 235.593 6.82355 233.719 6.11972H233.714L232.902 1.72077C232.896 1.69489 232.891 1.66384 232.881 1.63796C232.806 1.32507 232.642 1.04062 232.409 0.819195C232.175 0.597774 231.883 0.44892 231.566 0.390731L231.427 0.364854C228.73 -0.121618 225.894 -0.121618 223.198 0.364854L223.058 0.390731C222.727 0.450746 222.422 0.610125 222.183 0.847693C221.945 1.08526 221.784 1.38977 221.723 1.72077L220.905 6.14042C219.047 6.8444 217.316 7.84786 215.782 9.11101L211.543 7.60501C211.226 7.49293 210.883 7.47993 210.559 7.56775C210.234 7.65557 209.944 7.84004 209.727 8.09666L209.634 8.20534C207.842 10.3175 206.445 12.7349 205.509 15.342L205.462 15.4766C205.355 15.7773 205.336 16.1028 205.408 16.414C205.481 16.7252 205.642 17.0088 205.871 17.231C205.897 17.2517 205.918 17.2775 205.944 17.2982L209.375 20.2274V20.2326C209.215 21.2055 209.137 22.194 209.137 23.1825C209.137 24.1761 209.215 25.1698 209.375 26.1375L205.944 29.0667C205.688 29.2856 205.505 29.5771 205.419 29.9025C205.333 30.2279 205.348 30.5718 205.462 30.8884L205.509 31.023C206.446 33.6313 207.833 36.0378 209.634 38.1596L209.727 38.2683C209.98 38.5633 210.317 38.7548 210.684 38.8221C210.964 38.8738 211.259 38.8583 211.543 38.76L215.782 37.254C215.787 37.2591 215.797 37.2643 215.803 37.2695C217.34 38.5271 219.053 39.5259 220.905 40.2245L221.723 44.6442C221.784 44.9752 221.945 45.2797 222.183 45.5173C222.422 45.7548 222.727 45.9142 223.058 45.9742L223.198 46.0001C224.549 46.2434 225.931 46.3676 227.312 46.3676H227.328C228.704 46.3676 230.086 46.2434 231.427 46.0001L231.566 45.9742ZM229.507 42.5327C228.045 42.6983 226.569 42.6983 225.108 42.5327L224.181 37.5024L222.225 36.752C220.75 36.193 219.379 35.396 218.152 34.3869L216.527 33.0465L211.693 34.7647C210.814 33.5795 210.079 32.3013 209.489 30.9557L213.396 27.6177L213.06 25.5476C212.936 24.7765 212.868 23.9795 212.868 23.1928C212.868 22.401 212.93 21.6092 213.06 20.8381L213.396 18.768L209.489 15.43C210.074 14.0792 210.814 12.8061 211.693 11.621L216.527 13.3392L218.152 11.9988C219.379 10.9896 220.75 10.1926 222.225 9.63371L224.186 8.89365L225.113 3.86332C226.567 3.69771 228.052 3.69771 229.512 3.86332L230.438 8.8833L232.41 9.62336C233.895 10.1823 235.277 10.9793 236.514 11.9936L238.139 13.3288L242.942 11.6262C243.821 12.8113 244.556 14.0896 245.146 15.4352L241.28 18.7421L241.617 20.807C241.746 21.5885 241.813 22.3907 241.813 23.1928C241.813 23.995 241.746 24.7972 241.617 25.5786L241.275 27.6539L245.141 30.9609C244.555 32.311 243.815 33.5891 242.936 34.7698L238.134 33.0672L236.509 34.4024C235.272 35.4167 233.895 36.2137 232.405 36.7727L230.433 37.5127L229.507 42.5327Z" fill="#7E84B7"/>
<g opacity="0.74">
<path d="M103.551 58.6691L87.0788 52.6882L93.065 36.2183L87.9975 34.3846L80.1403 55.9288L101.704 63.732L103.551 58.6691Z" fill="#FF0D0D" fill-opacity="0.35"/>
<path d="M103.551 58.6691L87.0788 52.6882L93.065 36.2183L87.9975 34.3846L80.1403 55.9288L101.704 63.732L103.551 58.6691Z" stroke="black"/>
<path d="M121.718 50.1841L127.704 33.7142L111.233 27.7333L113.079 22.6704L134.643 30.4736L126.786 52.0178L121.718 50.1841Z" fill="#FF0D0D" fill-opacity="0.35"/>
<line x1="102.487" y1="20.8208" x2="112.718" y2="59.1684" stroke="#FF0505" stroke-opacity="0.35" stroke-width="6"/>
<path d="M100.29 60.1923L83.8178 54.2114L89.804 37.7416L84.7365 35.9078L76.8793 57.452L98.4431 65.2552L100.29 60.1923Z" fill="#FF0D0D"/>
<path d="M100.29 60.1923L83.8178 54.2114L89.804 37.7416L84.7365 35.9078L76.8793 57.452L98.4431 65.2552L100.29 60.1923Z" stroke="black"/>
<path d="M118.457 51.7073L124.443 35.2374L107.972 29.2565L109.818 24.1936L131.382 31.9968L123.525 53.541L118.457 51.7073Z" fill="#FF0D0D"/>
<line x1="99.2264" y1="22.3441" x2="109.457" y2="60.6917" stroke="#FF0505" stroke-width="6"/>
</g>
<g opacity="0.74">
<path d="M332.72 35.2547C333.365 33.8772 333.557 32.3412 333.263 30.9153C332.969 29.4895 332.206 28.2646 331.11 27.4551C330.014 26.6455 328.653 26.3027 327.265 26.4868C325.878 26.6709 324.552 27.37 323.521 28.4619C322.489 29.5538 321.817 30.9689 321.622 32.4597C321.427 33.9505 321.721 35.422 322.454 36.6167C323.186 37.8114 324.31 38.6534 325.629 38.9952C326.947 39.337 328.377 39.1569 329.667 38.4864L340.319 52.4047C339.457 53.4026 338.88 54.6359 338.666 55.9368L321.154 56.6731C320.824 55.1739 319.975 53.9091 318.773 53.1238C317.57 52.3385 316.099 52.0887 314.644 52.4227C313.19 52.7568 311.856 53.6509 310.901 54.9318C309.945 56.2127 309.437 57.7892 309.474 59.3558C309.511 60.9224 310.091 62.3674 311.101 63.4109C312.111 64.4544 313.48 65.022 314.942 65.0037C316.404 64.9855 317.855 64.3827 319.014 63.3121C320.173 62.2415 320.957 60.7794 321.214 59.2092L338.726 58.4729C338.997 59.7094 339.622 60.7935 340.518 61.5793C341.413 62.3652 342.536 62.8151 343.735 62.8685C344.933 62.922 346.151 62.5764 347.223 61.8783C348.295 61.1802 349.171 60.1631 349.733 58.9637C350.294 57.7643 350.514 56.4403 350.363 55.1697C350.212 53.8991 349.698 52.7429 348.889 51.8566C348.08 50.9703 347.015 50.3964 345.838 50.2122C344.661 50.028 343.428 50.2423 342.305 50.8262L331.653 36.9079C332.08 36.4115 332.44 35.854 332.72 35.2547Z" fill="#FB0000" fill-opacity="0.35"/>
<path d="M331.766 31.6578C332.411 30.2803 332.603 28.7443 332.309 27.3185C332.014 25.8926 331.252 24.6678 330.156 23.8582C329.059 23.0486 327.698 22.7059 326.311 22.8899C324.924 23.074 323.598 23.7731 322.566 24.865C321.535 25.9569 320.863 27.3721 320.667 28.8628C320.472 30.3536 320.767 31.8251 321.499 33.0198C322.232 34.2146 323.356 35.0565 324.674 35.3983C325.993 35.7401 327.422 35.56 328.712 34.8896L339.365 48.8079C338.503 49.8058 337.926 51.039 337.711 52.34L320.2 53.0763C319.87 51.577 319.021 50.3122 317.818 49.5269C316.616 48.7417 315.144 48.4918 313.69 48.8259C312.236 49.1599 310.902 50.054 309.946 51.335C308.991 52.6159 308.483 54.1924 308.52 55.7589C308.557 57.3255 309.137 58.7705 310.147 59.814C311.157 60.8575 312.526 61.4251 313.988 61.4069C315.45 61.3886 316.901 60.7858 318.059 59.7152C319.218 58.6446 320.002 57.1825 320.26 55.6123L337.771 54.876C338.043 56.1125 338.668 57.1966 339.563 57.9824C340.459 58.7683 341.581 59.2182 342.78 59.2717C343.979 59.3251 345.196 58.9796 346.269 58.2814C347.341 57.5833 348.217 56.5662 348.778 55.3668C349.34 54.1675 349.56 52.8434 349.409 51.5728C349.258 50.3022 348.743 49.146 347.934 48.2597C347.125 47.3734 346.061 46.7996 344.884 46.6154C343.707 46.4312 342.474 46.6454 341.35 47.2294L330.698 33.3111C331.126 32.8146 331.486 32.2571 331.766 31.6578Z" fill="#FB0000"/>
</g>
<g opacity="0.35">
<path d="M461.998 215.486C457.934 212.96 452.72 213.932 450.41 217.648L448.73 220.35L451.685 222.187L453.365 219.485C454.751 217.256 457.88 216.672 460.318 218.188C462.756 219.704 463.617 222.768 462.231 224.998L460.551 227.7L463.507 229.537L465.187 226.835C467.497 223.12 466.062 218.013 461.998 215.486Z" fill="#424242"/>
<path d="M454.255 248.372L436.522 237.347C434.897 236.337 434.33 234.282 435.263 232.782L442.896 220.505C443.829 219.005 445.922 218.604 447.547 219.615L465.28 230.64C466.905 231.65 467.472 233.705 466.539 235.205L458.906 247.482C457.974 248.982 455.88 249.383 454.255 248.372Z" fill="#FB8C00"/>
<path d="M449.431 236.358C450.737 237.17 452.371 236.902 453.082 235.759C453.792 234.616 453.309 233.032 452.004 232.22C450.698 231.408 449.063 231.676 448.353 232.819C447.643 233.962 448.125 235.546 449.431 236.358Z" fill="#C76E00"/>
</g>
<path d="M459.304 215.762C455.24 213.236 450.025 214.208 447.715 217.924L446.035 220.626L448.991 222.463L450.671 219.761C452.057 217.532 455.186 216.948 457.624 218.464C460.062 219.98 460.923 223.045 459.537 225.274L457.857 227.976L460.812 229.813L462.492 227.111C464.802 223.396 463.368 218.289 459.304 215.762Z" fill="#424242"/>
<path d="M451.561 248.649L433.828 237.624C432.203 236.613 431.636 234.559 432.569 233.058L440.201 220.782C441.134 219.281 443.227 218.88 444.853 219.891L462.585 230.916C464.211 231.927 464.778 233.981 463.845 235.482L456.212 247.758C455.279 249.258 453.186 249.659 451.561 248.649Z" fill="#FB8C00"/>
<path d="M446.737 236.634C448.042 237.446 449.677 237.178 450.387 236.035C451.098 234.893 450.615 233.308 449.309 232.496C448.003 231.685 446.369 231.953 445.659 233.095C444.948 234.238 445.431 235.822 446.737 236.634Z" fill="#C76E00"/>
<g filter="url(#filter0_d)">
<circle cx="30.9959" cy="254.04" r="20.8156" transform="rotate(-94.7134 30.9959 254.04)" fill="url(#paint0_linear)"/>
<path fill-rule="evenodd" clip-rule="evenodd" d="M29.2726 231.738C16.9693 232.752 7.82954 243.633 8.85212 256.036C9.87564 268.449 20.6738 277.683 32.9771 276.668C45.273 275.654 54.4127 264.773 53.3895 252.363C52.3669 239.961 41.5684 230.724 29.2726 231.738ZM32.9365 273.206C30.4385 273.409 27.9249 273.117 25.5393 272.346C23.1538 271.575 20.943 270.34 19.0335 268.713C17.1239 267.085 15.5529 265.097 14.4103 262.861C13.2677 260.624 12.5759 258.185 12.3744 255.681C12.1641 253.179 12.4479 250.66 13.2095 248.268C13.971 245.877 15.1955 243.659 16.8128 241.742C18.4301 239.825 20.4087 238.246 22.6353 237.096C24.8619 235.946 27.293 235.247 29.7896 235.04C32.2863 234.836 34.7986 235.128 37.1831 235.898C39.5677 236.668 41.7776 237.901 43.6866 239.527C45.5957 241.154 47.1665 243.141 48.3093 245.375C49.452 247.61 50.1444 250.048 50.3468 252.55C51.2163 263.097 43.4218 272.342 32.9365 273.206Z" fill="#FE4F4F"/>
<path fill-rule="evenodd" clip-rule="evenodd" d="M74.2199 286.738L73.0248 290.569L69.5219 292.28L46.2528 269.846C46.2528 269.846 46.278 270.442 47.9315 268.478C49.593 266.522 49.1978 266.76 49.1978 266.76L74.2199 286.738Z" fill="#FE4F4F"/>
<path fill-rule="evenodd" clip-rule="evenodd" d="M26.7812 241.765C28.921 241.589 27.9769 240.006 25.003 240.251C19.8782 240.673 16.0688 245.174 16.4923 250.31C16.7387 253.298 18.4473 253.969 18.2702 251.82C18.17 250.6 18.3108 249.372 18.6843 248.206C19.0578 247.04 19.6568 245.959 20.4471 245.025C21.2375 244.092 22.2036 243.323 23.2904 242.764C24.3772 242.204 25.5634 241.865 26.7812 241.765Z" fill="white"/>
</g>
<g opacity="0.4">
<g clip-path="url(#clip0)">
<path d="M343.996 193.492C341.542 193.492 339.552 195.484 339.552 197.941C339.552 199.156 340.038 200.258 340.827 201.06H331.683V208.475C332.498 207.532 333.703 206.935 335.046 206.935C337.501 206.935 339.49 208.926 339.49 211.383C339.49 213.84 337.501 215.832 335.046 215.832C333.703 215.832 332.498 215.234 331.683 214.292V224.813H341.288C340.273 223.997 339.622 222.746 339.622 221.341C339.622 218.884 341.612 216.892 344.066 216.892C346.521 216.892 348.511 218.884 348.511 221.341C348.511 222.746 347.86 223.997 346.845 224.813H355.412V215.519C356.217 216.327 357.33 216.826 358.56 216.826C361.014 216.826 363.004 214.835 363.004 212.378C363.004 209.921 361.014 207.929 358.56 207.929C357.33 207.929 356.217 208.428 355.412 209.236V201.06H347.166C347.955 200.257 348.44 199.156 348.44 197.941C348.44 195.484 346.451 193.492 343.996 193.492Z" fill="#E66000"/>
</g>
<g clip-path="url(#clip1)">
<path d="M205.973 181.66C207.446 181.66 208.64 182.855 208.64 184.329C208.64 185.058 208.348 185.719 207.875 186.201H213.361V190.649C212.872 190.084 212.149 189.725 211.343 189.725C209.87 189.725 208.676 190.92 208.676 192.395C208.676 193.869 209.87 195.064 211.343 195.064C212.149 195.064 212.872 194.705 213.361 194.14V200.452H207.598C208.207 199.963 208.597 199.212 208.597 198.369C208.597 196.895 207.404 195.7 205.931 195.7C204.458 195.7 203.264 196.895 203.264 198.369C203.264 199.212 203.655 199.963 204.264 200.452H199.123V194.876C198.641 195.361 197.973 195.66 197.235 195.66C195.762 195.66 194.568 194.465 194.568 192.991C194.568 191.517 195.762 190.322 197.235 190.322C197.973 190.322 198.641 190.622 199.123 191.106V186.201H204.071C203.598 185.719 203.306 185.058 203.306 184.329C203.306 182.855 204.5 181.66 205.973 181.66Z" fill="#2026A2"/>
</g>
<path d="M323.724 227.055C322.219 227.055 321.567 228.215 320.75 228.215C318.576 228.215 320.554 221.746 320.554 221.746C320.554 221.746 313.439 224.682 313.439 221.625C313.439 220.31 314.754 219.927 314.754 218.469C314.754 217.166 313.735 216.461 312.526 216.461C311.27 216.461 310.121 217.154 310.121 218.529C310.121 220.047 311.27 220.704 311.27 221.529C311.27 224.085 304.894 222.581 304.894 222.581V234.812C304.894 234.812 311.37 236.319 311.37 233.76C311.37 232.936 309.92 232.288 309.92 230.77C309.92 229.395 310.98 228.702 312.225 228.702C313.445 228.702 314.464 229.407 314.464 230.71C314.464 232.169 313.149 232.551 313.149 233.866C313.149 236.098 317.85 234.811 319.719 234.811C319.719 234.811 318.46 230.402 320.655 230.402C321.959 230.402 322.338 231.729 323.784 231.729C325.075 231.729 325.775 230.701 325.775 229.47C325.775 228.215 325.087 227.055 323.724 227.055Z" fill="black"/>
<path d="M382.654 161.765C381.751 161.765 381.36 161.035 380.869 161.035C379.565 161.035 380.752 165.108 380.752 165.108C380.752 165.108 376.483 163.259 376.483 165.184C376.483 166.012 377.272 166.253 377.272 167.171C377.272 167.991 376.661 168.436 375.935 168.436C375.182 168.436 374.492 167.999 374.492 167.133C374.492 166.177 375.182 165.764 375.182 165.244C375.182 163.635 371.356 164.582 371.356 164.582V156.881C371.356 156.881 375.241 155.932 375.241 157.543C375.241 158.062 374.371 158.47 374.371 159.426C374.371 160.291 375.008 160.728 375.754 160.728C376.487 160.728 377.098 160.284 377.098 159.464C377.098 158.545 376.309 158.304 376.309 157.476C376.309 156.071 379.129 156.882 380.251 156.882C380.251 156.882 379.495 159.657 380.813 159.657C381.595 159.657 381.822 158.822 382.69 158.822C383.465 158.822 383.884 159.469 383.884 160.244C383.884 161.035 383.472 161.765 382.654 161.765Z" fill="#0888FE" fill-opacity="0.97"/>
<rect x="155.592" y="148.947" width="19.4884" height="19.4884" fill="#6CD9F6"/>
<rect x="175.08" y="148.947" width="19.4884" height="19.4884" fill="#41AACA"/>
<rect x="310.107" y="168.436" width="19.4884" height="19.4884" fill="#41AACA"/>
<rect x="194.568" y="148.947" width="19.4884" height="19.4884" fill="#3A4C64"/>
<rect x="175.08" y="168.436" width="19.4884" height="19.4884" fill="#F37231"/>
<rect x="155.592" y="187.924" width="19.4884" height="19.4884" fill="#C4C4C4"/>
<rect x="194.568" y="203.932" width="19.4884" height="19.4884" fill="#3E4A65"/>
<rect x="271.13" y="187.924" width="19.4884" height="19.4884" fill="#6CD9F6"/>
<rect x="251.642" y="168.436" width="19.4884" height="19.4884" fill="#2E2D2C"/>
<rect x="271.13" y="148.947" width="19.4884" height="19.4884" fill="#6CD9F6"/>
<rect x="290.618" y="168.436" width="19.4884" height="19.4884" fill="#C4C4C4"/>
<rect x="310.107" y="148.947" width="19.4884" height="19.4884" fill="#2E2D2F"/>
<path d="M227.43 176.134H312.69L302.574 221.655H235.378L227.43 176.134Z" fill="#23373E"/>
<path d="M231.042 179.747H309.8L300.456 218.042H238.384L231.042 179.747Z" fill="#9796A5"/>
<path d="M320.5 241.132L218.759 241.131L236.205 220.988L302.213 220.988L320.5 241.132Z" fill="#3F4256"/>
<path d="M250.89 231.187L240.807 231.187L242.536 229.191L249.078 229.191L250.89 231.187Z" fill="#00D1FF"/>
<path d="M264.247 231.097L254.164 231.097L255.893 229.101L262.435 229.101L264.247 231.097Z" fill="#00D1FF"/>
<path d="M277.604 231.007L267.52 231.007L269.249 229.011L275.791 229.011L277.604 231.007Z" fill="#00D1FF"/>
<path d="M290.96 230.917L280.877 230.917L282.606 228.921L289.148 228.921L290.96 230.917Z" fill="#00D1FF"/>
<path d="M243.293 236.155L233.21 236.155L234.939 234.158L241.481 234.158L243.293 236.155Z" fill="#00D1FF"/>
<path d="M259.189 236.877L249.106 236.877L250.835 234.881L257.377 234.881L259.189 236.877Z" fill="#00D1FF"/>
<path d="M274.363 236.877L264.279 236.877L266.008 234.881L272.55 234.881L274.363 236.877Z" fill="#00D1FF"/>
<path d="M290.981 236.877L280.898 236.877L282.627 234.881L289.169 234.881L290.981 236.877Z" fill="#00D1FF"/>
<path d="M306.155 236.877L296.071 236.877L297.8 234.881L304.342 234.881L306.155 236.877Z" fill="#00D1FF"/>
<rect x="218.759" y="240.441" width="101.156" height="4.33527" fill="#23373E"/>
<path d="M292.459 202.381L292.465 202.384C292.555 201.836 292.598 201.275 292.598 200.721C292.598 200.224 292.56 199.725 292.491 199.237C292.56 199.722 292.595 200.213 292.595 200.703C292.595 201.267 292.549 201.83 292.459 202.381ZM270.385 197.399C270.37 197.388 270.359 197.376 270.344 197.362C270.365 197.382 270.385 197.402 270.408 197.423L272.31 199.045V199.043L270.385 197.399ZM285.964 191.128H285.967L285.517 188.695C285.511 188.666 285.505 188.64 285.497 188.614C285.5 188.628 285.505 188.646 285.508 188.66L285.964 191.128ZM287.532 206.995L288.443 206.246L291.138 207.201C291.631 206.536 292.046 205.822 292.375 205.064L290.206 203.209L290.397 202.045C290.47 201.606 290.508 201.156 290.508 200.706C290.508 200.256 290.47 199.806 290.397 199.368L290.209 198.209L292.377 196.354C292.046 195.599 291.634 194.882 291.141 194.217L288.446 195.172L287.535 194.423C286.841 193.854 286.066 193.407 285.232 193.094L284.126 192.679L283.607 189.862C282.787 189.769 281.959 189.769 281.139 189.862L280.619 192.684L279.519 193.1C278.691 193.413 277.922 193.86 277.234 194.426L276.322 195.178L273.61 194.214C273.117 194.879 272.702 195.593 272.374 196.351L274.566 198.224L274.377 199.385C274.304 199.818 274.27 200.262 274.27 200.706C274.27 201.147 274.307 201.595 274.377 202.027L274.566 203.188L272.374 205.061C272.705 205.816 273.117 206.533 273.61 207.198L276.322 206.234L277.234 206.986C277.922 207.552 278.691 207.999 279.519 208.313L280.616 208.734L281.136 211.556C281.955 211.649 282.788 211.649 283.604 211.556L284.123 208.74L285.229 208.324C286.066 208.011 286.838 207.564 287.532 206.995ZM282.39 205.534C281.505 205.534 280.671 205.308 279.943 204.91C278.349 204.045 277.266 202.358 277.266 200.416C277.266 197.594 279.554 195.306 282.376 195.306C284.318 195.306 286.005 196.389 286.87 197.983C287.268 198.709 287.494 199.542 287.494 200.43C287.494 203.249 285.209 205.534 282.39 205.534ZM273.526 209.439C273.367 209.494 273.201 209.506 273.044 209.474C273.21 209.509 273.384 209.503 273.552 209.445L275.916 208.603C275.913 208.6 275.907 208.597 275.904 208.594L273.526 209.439ZM294.36 197.399L292.459 199.025C292.459 199.031 292.462 199.04 292.462 199.045L294.36 197.423C294.567 197.245 294.683 196.99 294.686 196.726C294.677 196.981 294.561 197.228 294.36 197.399Z" fill="black" fill-opacity="0.15"/>
<path d="M294.68 204.614C294.694 204.751 294.68 204.89 294.63 205.024L294.604 205.099C294.079 206.562 293.295 207.918 292.29 209.103L292.238 209.164C292.116 209.308 291.953 209.411 291.771 209.46C291.589 209.51 291.397 209.502 291.219 209.439L288.859 208.6C287.993 209.314 287.014 209.879 285.964 210.273L285.508 212.74C285.474 212.926 285.384 213.097 285.25 213.23C285.116 213.364 284.945 213.453 284.759 213.487L284.681 213.501C283.922 213.638 283.152 213.707 282.381 213.707H282.39C283.165 213.707 283.94 213.638 284.695 213.501L284.774 213.487C284.959 213.453 285.131 213.364 285.264 213.23C285.398 213.097 285.488 212.926 285.523 212.74L285.978 210.276C287.029 209.881 287.999 209.32 288.87 208.606L291.228 209.445C291.405 209.508 291.598 209.515 291.78 209.466C291.962 209.417 292.125 209.313 292.247 209.169L292.299 209.108C293.309 207.915 294.084 206.571 294.61 205.111L294.636 205.035C294.683 204.899 294.697 204.753 294.68 204.614Z" fill="black" fill-opacity="0.15"/>
<path d="M287.485 200.416C287.485 199.536 287.262 198.706 286.87 197.983C286.005 196.389 284.318 195.306 282.376 195.306C279.554 195.306 277.266 197.594 277.266 200.416C277.266 202.358 278.349 204.045 279.943 204.91C280.666 205.302 281.493 205.526 282.376 205.526C285.198 205.526 287.485 203.238 287.485 200.416ZM279.124 200.416C279.124 199.548 279.464 198.732 280.076 198.116C280.692 197.501 281.507 197.164 282.376 197.164C283.244 197.164 284.059 197.501 284.675 198.116C284.977 198.418 285.217 198.776 285.381 199.171C285.544 199.566 285.628 199.989 285.627 200.416C285.627 201.284 285.288 202.1 284.675 202.715C284.373 203.018 284.015 203.258 283.62 203.421C283.226 203.584 282.803 203.668 282.376 203.668C281.507 203.668 280.692 203.328 280.076 202.715C279.774 202.414 279.534 202.055 279.37 201.661C279.207 201.266 279.123 200.843 279.124 200.416Z" fill="black"/>
<path d="M284.759 213.487C284.945 213.453 285.116 213.364 285.25 213.23C285.383 213.097 285.474 212.926 285.508 212.74L285.964 210.273C287.014 209.879 287.992 209.314 288.858 208.6L291.219 209.439C291.397 209.502 291.589 209.51 291.771 209.46C291.953 209.411 292.116 209.308 292.238 209.164L292.29 209.103C293.3 207.909 294.079 206.562 294.604 205.099L294.63 205.023C294.68 204.89 294.694 204.751 294.68 204.614C294.653 204.385 294.543 204.167 294.36 204.007L292.464 202.384L292.458 202.381C292.548 201.83 292.595 201.267 292.595 200.703C292.595 200.213 292.56 199.719 292.49 199.237C292.482 199.173 292.47 199.109 292.461 199.046C292.461 199.04 292.458 199.031 292.458 199.025L294.36 197.399C294.56 197.228 294.677 196.981 294.685 196.726C294.688 196.61 294.671 196.491 294.63 196.377L294.604 196.302C294.08 194.839 293.297 193.482 292.29 192.298L292.238 192.237C292.116 192.094 291.953 191.991 291.771 191.941C291.589 191.892 291.397 191.899 291.219 191.961L288.858 192.801C287.987 192.086 287.018 191.523 285.967 191.128H285.964L285.508 188.66C285.505 188.646 285.502 188.628 285.496 188.614C285.454 188.438 285.362 188.279 285.231 188.155C285.101 188.03 284.936 187.947 284.759 187.914L284.681 187.9C283.168 187.627 281.577 187.627 280.064 187.9L279.986 187.914C279.8 187.948 279.629 188.037 279.495 188.171C279.361 188.304 279.271 188.475 279.237 188.66L278.778 191.14C277.735 191.535 276.765 192.098 275.904 192.806L273.526 191.961C273.348 191.899 273.156 191.891 272.973 191.941C272.791 191.99 272.629 192.093 272.507 192.237L272.455 192.298C271.449 193.483 270.666 194.839 270.141 196.302L270.115 196.377C270.054 196.546 270.044 196.729 270.084 196.903C270.125 197.078 270.215 197.237 270.344 197.362C270.358 197.373 270.37 197.388 270.385 197.399L272.31 199.043V199.046C272.22 199.591 272.176 200.146 272.176 200.7C272.176 201.258 272.22 201.815 272.31 202.358L270.385 204.001C270.241 204.124 270.139 204.288 270.09 204.47C270.042 204.653 270.051 204.846 270.115 205.023L270.141 205.099C270.666 206.562 271.444 207.912 272.455 209.103L272.507 209.164C272.649 209.329 272.838 209.436 273.044 209.474C273.201 209.503 273.366 209.495 273.526 209.439L275.904 208.595C275.907 208.597 275.913 208.6 275.915 208.603C276.778 209.309 277.739 209.869 278.778 210.261L279.237 212.74C279.271 212.926 279.361 213.097 279.495 213.23C279.629 213.364 279.8 213.453 279.986 213.487L280.064 213.501C280.822 213.638 281.597 213.707 282.372 213.707H282.381C283.153 213.707 283.929 213.638 284.681 213.501L284.759 213.487ZM283.603 211.556C282.783 211.649 281.956 211.649 281.136 211.556L280.616 208.734L279.518 208.313C278.691 207.999 277.922 207.552 277.234 206.986L276.322 206.234L273.61 207.198C273.117 206.533 272.704 205.816 272.373 205.061L274.565 203.189L274.377 202.027C274.307 201.595 274.269 201.148 274.269 200.706C274.269 200.262 274.304 199.818 274.377 199.385L274.565 198.224L272.373 196.351C272.701 195.594 273.117 194.879 273.61 194.214L276.322 195.178L277.234 194.426C277.922 193.86 278.691 193.413 279.518 193.1L280.619 192.684L281.138 189.862C281.954 189.769 282.788 189.769 283.606 189.862L284.126 192.679L285.232 193.094C286.065 193.407 286.841 193.854 287.534 194.423L288.446 195.173L291.14 194.217C291.634 194.882 292.046 195.599 292.377 196.354L290.208 198.209L290.397 199.368C290.47 199.806 290.507 200.256 290.507 200.706C290.507 201.156 290.47 201.606 290.397 202.045L290.206 203.209L292.374 205.064C292.045 205.822 291.63 206.539 291.137 207.201L288.443 206.246L287.532 206.995C286.838 207.564 286.065 208.011 285.229 208.325L284.123 208.74L283.603 211.556Z" fill="black"/>
<path d="M270.734 206.531L270.737 206.533C270.795 206.181 270.823 205.82 270.823 205.464C270.823 205.144 270.799 204.823 270.754 204.51C270.799 204.821 270.821 205.137 270.821 205.452C270.821 205.815 270.792 206.177 270.734 206.531ZM256.54 203.328C256.531 203.321 256.523 203.313 256.514 203.304C256.527 203.317 256.54 203.33 256.555 203.343L257.778 204.386V204.385L256.54 203.328ZM266.558 199.296H266.559L266.27 197.731C266.266 197.713 266.263 197.696 266.257 197.679C266.259 197.688 266.263 197.699 266.265 197.709L266.558 199.296ZM267.566 209.498L268.152 209.016L269.884 209.63C270.202 209.203 270.469 208.744 270.68 208.256L269.285 207.064L269.408 206.315C269.455 206.033 269.479 205.744 269.479 205.454C269.479 205.165 269.455 204.876 269.408 204.594L269.287 203.849L270.681 202.656C270.469 202.171 270.204 201.709 269.886 201.282L268.154 201.896L267.568 201.414C267.121 201.049 266.623 200.761 266.087 200.559L265.376 200.293L265.042 198.482C264.514 198.422 263.982 198.422 263.455 198.482L263.121 200.296L262.413 200.563C261.881 200.765 261.386 201.052 260.944 201.416L260.358 201.9L258.614 201.28C258.297 201.708 258.03 202.167 257.819 202.654L259.228 203.858L259.107 204.605C259.06 204.883 259.038 205.169 259.038 205.454C259.038 205.738 259.062 206.026 259.107 206.304L259.228 207.05L257.819 208.255C258.032 208.74 258.297 209.201 258.614 209.629L260.358 209.009L260.944 209.492C261.386 209.856 261.881 210.144 262.413 210.345L263.119 210.616L263.453 212.431C263.98 212.49 264.515 212.49 265.04 212.431L265.374 210.62L266.085 210.353C266.623 210.151 267.12 209.864 267.566 209.498ZM264.26 208.559C263.69 208.559 263.154 208.413 262.686 208.157C261.661 207.601 260.965 206.517 260.965 205.268C260.965 203.453 262.436 201.982 264.25 201.982C265.499 201.982 266.584 202.678 267.14 203.703C267.396 204.17 267.541 204.706 267.541 205.277C267.541 207.09 266.072 208.559 264.26 208.559ZM258.56 211.07C258.457 211.105 258.351 211.113 258.25 211.092C258.357 211.115 258.469 211.111 258.577 211.073L260.096 210.532C260.095 210.53 260.091 210.528 260.089 210.527L258.56 211.07ZM271.956 203.328L270.734 204.373C270.734 204.377 270.736 204.383 270.736 204.386L271.956 203.343C272.089 203.229 272.164 203.065 272.166 202.895C272.16 203.059 272.085 203.218 271.956 203.328Z" fill="black" fill-opacity="0.15"/>
<path d="M272.162 207.967C272.171 208.055 272.162 208.144 272.13 208.23L272.113 208.279C271.776 209.219 271.272 210.091 270.626 210.853L270.592 210.892C270.514 210.985 270.409 211.051 270.292 211.083C270.175 211.115 270.051 211.11 269.937 211.07L268.419 210.53C267.862 210.989 267.233 211.352 266.558 211.605L266.265 213.192C266.242 213.312 266.185 213.422 266.099 213.507C266.013 213.593 265.902 213.65 265.783 213.672L265.733 213.681C265.245 213.77 264.75 213.814 264.254 213.814H264.26C264.758 213.814 265.257 213.769 265.742 213.681L265.792 213.672C265.912 213.65 266.022 213.593 266.108 213.507C266.194 213.422 266.252 213.312 266.274 213.192L266.567 211.607C267.243 211.353 267.866 210.993 268.426 210.534L269.942 211.073C270.057 211.114 270.18 211.119 270.298 211.087C270.415 211.055 270.519 210.989 270.598 210.896L270.631 210.857C271.281 210.09 271.779 209.225 272.117 208.286L272.134 208.238C272.164 208.15 272.173 208.057 272.162 207.967Z" fill="black" fill-opacity="0.15"/>
<path d="M267.536 205.268C267.536 204.702 267.392 204.168 267.14 203.703C266.584 202.678 265.499 201.982 264.25 201.982C262.436 201.982 260.965 203.453 260.965 205.268C260.965 206.517 261.661 207.601 262.686 208.158C263.151 208.41 263.683 208.553 264.25 208.553C266.065 208.553 267.536 207.082 267.536 205.268ZM262.159 205.268C262.159 204.709 262.378 204.185 262.772 203.789C263.167 203.393 263.692 203.177 264.25 203.177C264.808 203.177 265.333 203.393 265.729 203.789C265.923 203.983 266.077 204.214 266.183 204.467C266.288 204.721 266.342 204.993 266.341 205.268C266.341 205.826 266.123 206.35 265.729 206.746C265.535 206.941 265.304 207.095 265.051 207.2C264.797 207.305 264.525 207.359 264.25 207.359C263.692 207.359 263.167 207.14 262.772 206.746C262.577 206.552 262.423 206.322 262.318 206.068C262.213 205.814 262.159 205.542 262.159 205.268Z" fill="#00D1FF"/>
<path d="M265.783 213.672C265.903 213.651 266.013 213.593 266.099 213.507C266.185 213.422 266.243 213.312 266.265 213.192L266.558 211.606C267.233 211.352 267.862 210.989 268.419 210.53L269.937 211.07C270.051 211.11 270.175 211.115 270.292 211.083C270.409 211.052 270.514 210.985 270.592 210.892L270.626 210.853C271.275 210.086 271.776 209.22 272.114 208.279L272.13 208.23C272.162 208.144 272.171 208.055 272.162 207.967C272.145 207.82 272.074 207.68 271.957 207.577L270.738 206.533L270.734 206.532C270.792 206.177 270.822 205.815 270.822 205.452C270.822 205.137 270.799 204.82 270.754 204.51C270.749 204.469 270.741 204.428 270.736 204.387C270.736 204.383 270.734 204.377 270.734 204.373L271.957 203.328C272.086 203.218 272.16 203.059 272.166 202.895C272.168 202.82 272.156 202.744 272.13 202.671L272.114 202.622C271.777 201.682 271.273 200.809 270.626 200.048L270.592 200.009C270.514 199.916 270.409 199.85 270.292 199.818C270.175 199.787 270.051 199.791 269.937 199.831L268.419 200.371C267.859 199.912 267.235 199.55 266.56 199.296H266.558L266.265 197.709C266.263 197.7 266.261 197.688 266.257 197.679C266.23 197.566 266.171 197.464 266.087 197.384C266.003 197.304 265.897 197.25 265.783 197.229L265.733 197.22C264.76 197.044 263.737 197.044 262.764 197.22L262.714 197.229C262.595 197.251 262.484 197.308 262.398 197.394C262.312 197.48 262.254 197.589 262.232 197.709L261.937 199.303C261.267 199.557 260.643 199.919 260.089 200.375L258.56 199.831C258.446 199.791 258.322 199.786 258.205 199.818C258.088 199.85 257.983 199.916 257.905 200.009L257.871 200.048C257.225 200.81 256.721 201.682 256.384 202.622L256.367 202.671C256.328 202.779 256.321 202.897 256.347 203.009C256.373 203.121 256.431 203.224 256.514 203.304C256.524 203.311 256.531 203.321 256.54 203.328L257.778 204.385V204.387C257.72 204.737 257.692 205.094 257.692 205.451C257.692 205.809 257.72 206.167 257.778 206.517L256.54 207.573C256.448 207.652 256.382 207.757 256.351 207.875C256.32 207.992 256.326 208.116 256.367 208.23L256.384 208.279C256.721 209.22 257.222 210.088 257.871 210.853L257.905 210.892C257.997 210.999 258.118 211.068 258.25 211.092C258.351 211.111 258.458 211.105 258.56 211.07L260.089 210.527C260.091 210.528 260.095 210.53 260.097 210.532C260.651 210.986 261.269 211.346 261.937 211.598L262.232 213.192C262.254 213.312 262.312 213.422 262.398 213.507C262.484 213.593 262.595 213.651 262.714 213.672L262.764 213.681C263.252 213.769 263.75 213.814 264.249 213.814H264.254C264.751 213.814 265.249 213.769 265.733 213.681L265.783 213.672ZM265.04 212.431C264.513 212.49 263.981 212.49 263.453 212.431L263.119 210.616L262.413 210.345C261.881 210.144 261.387 209.856 260.944 209.492L260.358 209.009L258.614 209.629C258.297 209.201 258.032 208.74 257.819 208.255L259.229 207.05L259.107 206.304C259.062 206.026 259.038 205.738 259.038 205.454C259.038 205.169 259.061 204.883 259.107 204.605L259.229 203.858L257.819 202.654C258.03 202.167 258.297 201.708 258.614 201.28L260.358 201.9L260.944 201.416C261.387 201.052 261.881 200.765 262.413 200.563L263.121 200.296L263.455 198.482C263.98 198.422 264.516 198.422 265.042 198.482L265.376 200.293L266.087 200.56C266.623 200.761 267.122 201.049 267.568 201.415L268.154 201.896L269.886 201.282C270.204 201.709 270.469 202.171 270.682 202.656L269.287 203.849L269.408 204.594C269.455 204.876 269.479 205.165 269.479 205.454C269.479 205.744 269.455 206.033 269.408 206.315L269.285 207.064L270.68 208.256C270.468 208.744 270.202 209.205 269.885 209.63L268.152 209.016L267.566 209.498C267.12 209.864 266.623 210.151 266.086 210.353L265.374 210.62L265.04 212.431Z" fill="#00D1FF"/>
<path d="M266.399 192.081L266.403 192.082C266.46 191.73 266.488 191.369 266.488 191.013C266.488 190.693 266.464 190.372 266.419 190.059C266.464 190.371 266.487 190.686 266.487 191.002C266.487 191.364 266.457 191.726 266.399 192.081ZM252.205 188.877C252.196 188.87 252.189 188.862 252.179 188.853C252.192 188.866 252.205 188.879 252.22 188.892L253.443 189.936V189.934L252.205 188.877ZM262.223 184.845H262.225L261.935 183.28C261.932 183.262 261.928 183.245 261.922 183.228C261.924 183.237 261.928 183.249 261.93 183.258L262.223 184.845ZM263.231 195.047L263.817 194.565L265.549 195.179C265.867 194.752 266.134 194.293 266.345 193.806L264.95 192.613L265.073 191.864C265.12 191.582 265.144 191.293 265.144 191.003C265.144 190.714 265.12 190.425 265.073 190.143L264.952 189.398L266.347 188.205C266.134 187.72 265.869 187.259 265.551 186.831L263.819 187.445L263.233 186.964C262.787 186.598 262.288 186.31 261.752 186.109L261.041 185.842L260.707 184.031C260.18 183.971 259.647 183.971 259.12 184.031L258.786 185.845L258.078 186.112C257.546 186.314 257.052 186.601 256.609 186.965L256.023 187.449L254.279 186.829C253.962 187.257 253.695 187.716 253.484 188.203L254.894 189.407L254.772 190.154C254.726 190.432 254.703 190.718 254.703 191.003C254.703 191.287 254.727 191.575 254.772 191.853L254.894 192.6L253.484 193.804C253.697 194.289 253.962 194.75 254.279 195.178L256.023 194.558L256.609 195.041C257.052 195.405 257.546 195.693 258.078 195.894L258.784 196.165L259.118 197.98C259.645 198.039 260.18 198.039 260.705 197.98L261.039 196.169L261.75 195.902C262.288 195.7 262.785 195.413 263.231 195.047ZM259.925 194.108C259.355 194.108 258.82 193.962 258.351 193.707C257.326 193.15 256.63 192.066 256.63 190.817C256.63 189.002 258.101 187.531 259.915 187.531C261.164 187.531 262.249 188.227 262.805 189.252C263.061 189.719 263.207 190.255 263.207 190.826C263.207 192.639 261.737 194.108 259.925 194.108ZM254.225 196.619C254.123 196.654 254.016 196.662 253.915 196.641C254.022 196.664 254.134 196.66 254.242 196.623L255.762 196.081C255.76 196.079 255.756 196.077 255.754 196.076L254.225 196.619ZM267.622 188.877L266.399 189.922C266.399 189.926 266.401 189.932 266.401 189.936L267.622 188.892C267.754 188.778 267.829 188.614 267.831 188.444C267.825 188.608 267.75 188.767 267.622 188.877Z" fill="#0888FE" fill-opacity="0.97"/>
<path d="M267.827 193.516C267.836 193.604 267.827 193.694 267.795 193.779L267.778 193.828C267.441 194.768 266.937 195.64 266.29 196.402L266.257 196.442C266.178 196.534 266.074 196.601 265.957 196.632C265.84 196.664 265.716 196.659 265.601 196.619L264.084 196.079C263.527 196.538 262.898 196.901 262.222 197.155L261.929 198.742C261.907 198.861 261.849 198.971 261.763 199.056C261.677 199.142 261.567 199.2 261.448 199.221L261.397 199.231C260.909 199.319 260.415 199.363 259.919 199.363H259.924C260.423 199.363 260.921 199.318 261.407 199.231L261.457 199.221C261.577 199.2 261.687 199.142 261.773 199.056C261.859 198.971 261.917 198.861 261.939 198.742L262.232 197.157C262.908 196.903 263.531 196.542 264.091 196.083L265.607 196.623C265.721 196.663 265.845 196.668 265.962 196.636C266.079 196.604 266.184 196.538 266.262 196.445L266.296 196.406C266.946 195.639 267.444 194.774 267.782 193.835L267.799 193.787C267.829 193.699 267.838 193.606 267.827 193.516Z" fill="#0888FE" fill-opacity="0.97"/>
<path d="M263.201 190.817C263.201 190.251 263.057 189.717 262.805 189.252C262.249 188.227 261.164 187.531 259.915 187.531C258.101 187.531 256.63 189.002 256.63 190.817C256.63 192.066 257.326 193.15 258.351 193.707C258.816 193.959 259.348 194.102 259.915 194.102C261.73 194.102 263.201 192.631 263.201 190.817ZM257.825 190.817C257.825 190.259 258.043 189.734 258.437 189.338C258.833 188.942 259.357 188.726 259.915 188.726C260.474 188.726 260.998 188.942 261.394 189.338C261.588 189.532 261.743 189.763 261.848 190.016C261.953 190.27 262.007 190.542 262.006 190.817C262.006 191.375 261.788 191.9 261.394 192.295C261.2 192.49 260.97 192.644 260.716 192.749C260.462 192.854 260.19 192.908 259.915 192.908C259.357 192.908 258.833 192.689 258.437 192.295C258.242 192.101 258.088 191.871 257.983 191.617C257.878 191.363 257.824 191.091 257.825 190.817Z" fill="#20373B"/>
<path d="M261.448 199.221C261.567 199.2 261.677 199.142 261.763 199.056C261.849 198.971 261.907 198.861 261.929 198.741L262.222 197.155C262.898 196.901 263.527 196.538 264.084 196.079L265.601 196.619C265.716 196.659 265.84 196.664 265.957 196.632C266.074 196.601 266.178 196.534 266.257 196.442L266.29 196.402C266.94 195.635 267.44 194.769 267.778 193.828L267.795 193.779C267.827 193.694 267.836 193.604 267.827 193.516C267.81 193.369 267.739 193.229 267.621 193.126L266.402 192.082L266.399 192.081C266.456 191.726 266.486 191.364 266.486 191.002C266.486 190.686 266.464 190.369 266.419 190.059C266.414 190.018 266.406 189.977 266.4 189.936C266.4 189.932 266.399 189.926 266.399 189.923L267.621 188.877C267.75 188.767 267.825 188.608 267.83 188.444C267.832 188.369 267.821 188.293 267.795 188.22L267.778 188.171C267.442 187.231 266.937 186.358 266.29 185.597L266.257 185.558C266.178 185.466 266.074 185.399 265.957 185.368C265.84 185.336 265.716 185.34 265.601 185.381L264.084 185.92C263.524 185.461 262.9 185.099 262.224 184.845H262.222L261.929 183.258C261.928 183.249 261.926 183.237 261.922 183.228C261.895 183.115 261.836 183.013 261.752 182.933C261.667 182.853 261.562 182.799 261.448 182.778L261.397 182.769C260.425 182.593 259.402 182.593 258.429 182.769L258.379 182.778C258.259 182.8 258.149 182.857 258.063 182.943C257.977 183.029 257.919 183.139 257.897 183.258L257.602 184.852C256.932 185.106 256.307 185.468 255.754 185.924L254.225 185.381C254.111 185.34 253.987 185.335 253.87 185.367C253.753 185.399 253.648 185.465 253.57 185.558L253.536 185.597C252.89 186.359 252.386 187.231 252.048 188.171L252.031 188.22C251.993 188.328 251.986 188.446 252.012 188.558C252.038 188.67 252.096 188.773 252.179 188.853C252.188 188.86 252.196 188.87 252.205 188.877L253.443 189.934V189.936C253.385 190.287 253.357 190.643 253.357 191C253.357 191.358 253.385 191.717 253.443 192.066L252.205 193.122C252.113 193.201 252.047 193.306 252.016 193.424C251.985 193.541 251.99 193.665 252.031 193.779L252.048 193.828C252.386 194.769 252.886 195.637 253.536 196.402L253.57 196.442C253.661 196.548 253.783 196.617 253.915 196.641C254.016 196.66 254.122 196.654 254.225 196.619L255.754 196.076C255.756 196.077 255.76 196.079 255.761 196.081C256.316 196.535 256.934 196.895 257.602 197.147L257.897 198.741C257.919 198.861 257.977 198.971 258.063 199.056C258.149 199.142 258.259 199.2 258.379 199.221L258.429 199.231C258.916 199.318 259.415 199.363 259.913 199.363H259.919C260.415 199.363 260.914 199.318 261.397 199.231L261.448 199.221ZM260.705 197.98C260.178 198.04 259.645 198.04 259.118 197.98L258.784 196.165L258.078 195.895C257.546 195.693 257.051 195.405 256.609 195.041L256.023 194.558L254.279 195.178C253.962 194.75 253.697 194.289 253.484 193.804L254.893 192.6L254.772 191.853C254.727 191.575 254.703 191.287 254.703 191.003C254.703 190.718 254.725 190.432 254.772 190.154L254.893 189.407L253.484 188.203C253.695 187.716 253.962 187.257 254.279 186.829L256.023 187.449L256.609 186.965C257.051 186.601 257.546 186.314 258.078 186.112L258.786 185.845L259.12 184.031C259.644 183.971 260.18 183.971 260.707 184.031L261.041 185.842L261.752 186.109C262.288 186.31 262.786 186.598 263.232 186.964L263.819 187.445L265.551 186.831C265.868 187.259 266.134 187.72 266.346 188.205L264.952 189.398L265.073 190.143C265.12 190.425 265.144 190.714 265.144 191.003C265.144 191.293 265.12 191.582 265.073 191.864L264.95 192.613L266.344 193.806C266.133 194.293 265.866 194.754 265.549 195.18L263.817 194.565L263.231 195.047C262.784 195.413 262.288 195.7 261.75 195.902L261.039 196.169L260.705 197.98Z" fill="#20373B"/>
<rect x="290.618" y="187.924" width="19.4884" height="19.4884" fill="#F37231"/>
</g>
<rect x="233.545" y="221.333" width="19.4884" height="19.4884" fill="#6CD9F6"/>
<g filter="url(#filter1_d)">
<rect x="243.613" y="292.754" width="46.2982" height="2.46247" rx="1.23123" transform="rotate(-90 243.613 292.754)" fill="url(#paint1_linear)"/>
<rect x="125.323" y="246.455" width="137.898" height="2.62985" rx="1.31493" fill="url(#paint2_linear)"/>
<rect x="149.818" y="292.581" width="46.1261" height="2.46247" rx="1.23123" transform="rotate(-90 149.818 292.581)" fill="url(#paint3_linear)"/>
<path d="M177 210.766C177 206.613 180.594 203.374 184.724 203.803L201.344 205.531C204.91 205.902 207.62 208.908 207.62 212.494V221.762C207.62 225.407 204.822 228.442 201.189 228.739L184.569 230.093C180.492 230.425 177 227.207 177 223.116V210.766Z" fill="#938585"/>
<path d="M181 247C183.876 246.28 185.485 245.851 187.946 242.287C189.247 240.131 189.595 238.706 189.498 235.659C189.613 232.353 189.297 230.82 187.946 228.736L195.218 228C196.33 233.054 196.309 236.825 194.81 243.465C194.602 244.935 193.502 247 193.502 247H181Z" fill="#938585"/>
<path d="M181.271 205.84C182.883 205.84 205.364 208.335 205.364 208.335C194.603 208.096 184.665 205.964 180.868 206.959C180.238 207.321 180.147 216.662 179.337 227.01V207.303C179.745 206.186 179.659 205.84 181.271 205.84Z" fill="#CDCDCD"/>
<path d="M202.383 225.977L193.041 226.837C198.463 226.338 203.752 225.44 203.833 224.6C204.738 221.978 204.8 217.371 204.8 218.662V224.858C204.656 225.535 204.207 225.805 202.383 225.977Z" fill="#CDCDCD"/>
<ellipse cx="193.197" cy="214.876" rx="1.04752" ry="2.06535" fill="#D5BEBE"/>
<g clip-path="url(#clip2)">
<path d="M250.199 245.248C250.199 246.06 249.817 246.718 248.749 246.718H245.366C243.433 246.718 243.433 241.575 245.366 241.575H248.749C249.817 241.575 250.199 242.233 250.199 243.044V245.248Z" fill="#553788"/>
<path d="M259.383 245.983H258.899V242.31H259.383C259.511 242.31 259.634 242.271 259.725 242.202C259.815 242.133 259.866 242.04 259.866 241.942C259.866 241.845 259.815 241.752 259.725 241.683C259.634 241.614 259.511 241.575 259.383 241.575H247.783C245.849 241.575 245.849 246.718 247.783 246.718H259.383C259.511 246.718 259.634 246.679 259.725 246.61C259.815 246.541 259.866 246.448 259.866 246.351C259.866 246.253 259.815 246.16 259.725 246.091C259.634 246.022 259.511 245.983 259.383 245.983Z" fill="#9266CC"/>
<path d="M259.466 245.983H248.266C247.299 245.983 247.299 242.31 248.266 242.31H259.466C260 242.31 260 245.983 259.466 245.983Z" fill="#CCD6DD"/>
<path d="M248.508 243.044H259.794C259.729 242.613 259.62 242.31 259.466 242.31H248.266C247.468 242.31 247.329 244.811 247.849 245.685C247.659 244.598 247.879 243.044 248.508 243.044Z" fill="#99AAB5"/>
<path d="M248.749 236.8C248.749 237.189 248.546 237.563 248.183 237.839C247.821 238.114 247.329 238.269 246.816 238.269H244.883C242.949 238.269 242.949 234.228 244.883 234.228H246.816C247.329 234.228 247.821 234.383 248.183 234.659C248.546 234.934 248.749 235.308 248.749 235.698V236.8Z" fill="#226699"/>
<path d="M257.933 237.534H257.449V234.963H257.933C258.061 234.963 258.184 234.924 258.275 234.855C258.365 234.786 258.416 234.693 258.416 234.596C258.416 234.498 258.365 234.405 258.275 234.336C258.184 234.267 258.061 234.228 257.933 234.228H246.333C244.399 234.228 244.399 238.269 246.333 238.269H257.933C258.061 238.269 258.184 238.23 258.275 238.161C258.365 238.093 258.416 237.999 258.416 237.902C258.416 237.804 258.365 237.711 258.275 237.642C258.184 237.573 258.061 237.534 257.933 237.534Z" fill="#55ACEE"/>
<path d="M258.016 237.534H246.816C245.849 237.534 245.849 234.963 246.816 234.963H258.016C258.55 234.963 258.55 237.534 258.016 237.534Z" fill="#CCD6DD"/>
<path d="M246.816 235.698H258.38C258.325 235.284 258.204 234.963 258.016 234.963H246.816C246.239 234.963 246.009 235.877 246.121 236.616C246.196 236.117 246.426 235.698 246.816 235.698Z" fill="#99AAB5"/>
<path d="M252.616 240.106C252.616 240.495 252.412 240.869 252.05 241.145C251.687 241.42 251.195 241.575 250.683 241.575H245.849C243.916 241.575 243.916 238.269 245.849 238.269H250.683C251.195 238.269 251.687 238.424 252.05 238.699C252.412 238.975 252.616 239.349 252.616 239.738V240.106Z" fill="#F4900C"/>
<path d="M259.866 240.84H259.383V239.004H259.866C259.994 239.004 260.117 238.965 260.208 238.896C260.299 238.827 260.35 238.734 260.35 238.636C260.35 238.539 260.299 238.446 260.208 238.377C260.117 238.308 259.994 238.269 259.866 238.269H250.199C248.266 238.269 248.266 241.575 250.199 241.575H259.866C259.994 241.575 260.117 241.536 260.208 241.468C260.299 241.399 260.35 241.305 260.35 241.208C260.35 241.11 260.299 241.017 260.208 240.948C260.117 240.879 259.994 240.84 259.866 240.84Z" fill="#FFAC33"/>
<path d="M259.949 240.84H250.683C249.716 240.84 249.716 239.004 250.683 239.004H259.949C260.483 239.004 260.483 240.84 259.949 240.84Z" fill="#CCD6DD"/>
<path d="M250.683 239.738H260.342C260.31 239.348 260.18 239.004 259.949 239.004H250.683C250.067 239.004 249.845 239.748 250.014 240.289C250.11 239.981 250.332 239.738 250.683 239.738Z" fill="#99AAB5"/>
</g>
</g>
<path d="M307.894 238.037C310.348 238.037 312.338 240.029 312.338 242.486C312.338 243.701 311.852 244.802 311.063 245.605H320.207V253.02C319.392 252.077 318.187 251.48 316.844 251.48C314.389 251.48 312.399 253.471 312.399 255.928C312.399 258.385 314.389 260.377 316.844 260.377C318.187 260.377 319.392 259.779 320.207 258.837V269.358H310.602C311.617 268.542 312.268 267.29 312.268 265.886C312.268 263.429 310.278 261.437 307.823 261.437C305.369 261.437 303.379 263.429 303.379 265.886C303.379 267.29 304.03 268.542 305.045 269.358H296.478V260.064C295.673 260.872 294.56 261.371 293.33 261.371C290.876 261.371 288.886 259.38 288.886 256.923C288.886 254.466 290.876 252.474 293.33 252.474C294.56 252.474 295.673 252.973 296.478 253.781V245.605H304.724C303.935 244.802 303.449 243.701 303.449 242.486C303.449 240.029 305.439 238.037 307.894 238.037Z" fill="#F70000" fill-opacity="0.27"/>
<path fill-rule="evenodd" clip-rule="evenodd" d="M402.35 252H351.127C347.191 252 344 254.44 344 257.449V288.783C344 291.792 347.191 294.232 351.127 294.232H402.35C406.286 294.232 409.477 291.792 409.477 288.783V257.449C409.477 254.44 406.286 252 402.35 252ZM395.224 261.536C396.208 261.536 397.005 262.146 397.005 262.899V283.334C397.005 284.086 396.208 284.696 395.224 284.696H358.254C357.27 284.696 356.472 284.086 356.472 283.334V262.899C356.472 262.146 357.27 261.536 358.254 261.536H395.224Z" fill="#C5CFD6"/>
<path d="M370.23 217.613C369.739 216.283 365.907 216.473 361.67 218.037C357.434 219.602 354.398 221.948 354.889 223.278C355.38 224.607 359.212 224.417 363.449 222.853C367.685 221.289 370.721 218.943 370.23 217.613Z" fill="#FD4322"/>
<path d="M381.577 244.019C390.492 242.573 396.546 234.173 395.099 225.258C393.653 216.343 385.253 210.289 376.338 211.735C367.423 213.182 361.369 221.582 362.815 230.497C364.262 239.412 372.662 245.466 381.577 244.019Z" fill="#FD4322"/>
<path d="M386.409 240.712H381.441L382.413 251.371L386.418 250.283L386.409 240.712Z" fill="#FD4322"/>
<path d="M375.579 240.739H370.611L371.583 251.399L375.406 250.283L375.579 240.739Z" fill="#FD4322"/>
<path d="M371.441 251.9C373.722 251.733 375.51 251.508 375.447 250.653C375.924 246.9 373.495 248.636 371.215 248.803C368.935 248.97 367.137 249.798 367.199 250.653C367.262 251.508 369.161 252.066 371.441 251.9Z" fill="#353232"/>
<path d="M378.543 229.326C381.63 229.326 384.132 226.824 384.132 223.737C384.132 220.651 381.63 218.148 378.543 218.148C375.457 218.148 372.954 220.651 372.954 223.737C372.954 226.824 375.457 229.326 378.543 229.326Z" fill="white"/>
<path d="M378.543 225.6C379.572 225.6 380.406 224.766 380.406 223.737C380.406 222.708 379.572 221.874 378.543 221.874C377.514 221.874 376.68 222.708 376.68 223.737C376.68 224.766 377.514 225.6 378.543 225.6Z" fill="#FEEDE2"/>
<path d="M394.467 226.837C397.864 229.813 401.375 231.36 402.309 230.294C403.243 229.227 401.246 225.951 397.849 222.975C394.452 220 390.941 218.452 390.007 219.519C389.073 220.585 391.07 223.862 394.467 226.837Z" fill="#FD4322"/>
<path d="M370.979 236.309C370.979 234.99 374.375 232.385 378.144 232.385C381.913 232.385 385.447 236.099 385.447 237.418C385.447 238.737 381.913 237.162 378.144 237.162C374.375 237.162 370.979 237.629 370.979 236.309Z" fill="white"/>
<path d="M382.336 251.874C384.617 251.707 386.71 251.329 386.648 250.474C386.648 246.661 384.39 248.61 382.11 248.777C379.829 248.943 378.031 249.772 378.094 250.627C378.156 251.482 380.056 252.04 382.336 251.874Z" fill="#3D3D3E"/>
<path d="M380.402 217.73C380.956 218.157 381.104 218.535 381.137 219.407C381.187 225.267 381.112 227.785 381.01 232.53C379.766 233.718 379.061 234.293 377.794 235.195C376.414 234.09 375.76 233.392 374.838 231.985C375.776 224.586 376.159 219.844 378.32 217.547L380.402 217.73Z" fill="black" fill-opacity="0.85"/>
<path d="M381.769 215.582C381.395 216.456 381.091 216.999 380.372 218.065C379.355 217.998 378.902 217.907 378.503 217.558C378.182 216.942 378.061 216.525 377.935 215.656C379.335 215.228 380.167 215.179 381.769 215.582Z" fill="black" fill-opacity="0.87"/>
<path d="M394.82 212.669C396.141 206.756 391.92 200.78 385.393 199.323C378.865 197.866 372.504 201.478 371.183 207.391C369.863 213.305 374.188 215.486 380.716 216.943C387.243 218.401 393.5 218.583 394.82 212.669Z" fill="#AF91F3"/>
<path d="M147 240.488C155.284 240.488 162 233.772 162 225.488C162 217.204 155.284 210.488 147 210.488C138.716 210.488 132 217.204 132 225.488C132 233.772 138.716 240.488 147 240.488Z" fill="#FD4322"/>
<path d="M144.722 237.26H140.165V245.425H144.722V237.26Z" fill="#FD4322"/>
<path d="M153.835 237.26H149.278V245.425H153.835V237.26Z" fill="#FD4322"/>
<path d="M143.962 246.944C146.059 246.944 147.76 246.306 147.76 245.52C147.76 244.733 146.059 244.095 143.962 244.095C141.865 244.095 140.165 244.733 140.165 245.52C140.165 246.306 141.865 246.944 143.962 246.944Z" fill="#FD4322"/>
<path d="M153.076 246.754C155.173 246.754 156.873 246.116 156.873 245.33C156.873 244.543 155.173 243.906 153.076 243.906C150.979 243.906 149.278 244.543 149.278 245.33C149.278 246.116 150.979 246.754 153.076 246.754Z" fill="#FD4322"/>
<path d="M147.38 226.817C150.211 226.817 152.506 224.522 152.506 221.691C152.506 218.859 150.211 216.564 147.38 216.564C144.548 216.564 142.253 218.859 142.253 221.691C142.253 224.522 144.548 226.817 147.38 226.817Z" fill="white"/>
<path d="M147.38 223.399C148.324 223.399 149.089 222.634 149.089 221.69C149.089 220.747 148.324 219.982 147.38 219.982C146.436 219.982 145.671 220.747 145.671 221.69C145.671 222.634 146.436 223.399 147.38 223.399Z" fill="#FEEDE2"/>
<path d="M132.45 211.538C131.238 206.114 135.11 200.633 141.097 199.296C147.084 197.959 152.92 201.273 154.131 206.697C155.342 212.121 151.374 214.122 145.387 215.459C139.4 216.796 133.661 216.963 132.45 211.538Z" fill="#F8A700"/>
<defs>
<filter id="filter0_d" x="0.00012207" y="220.902" width="93.6419" height="90.1323" filterUnits="userSpaceOnUse" color-interpolation-filters="sRGB">
<feFlood flood-opacity="0" result="BackgroundImageFix"/>
<feColorMatrix in="SourceAlpha" type="matrix" values="0 0 0 0 0 0 0 0 0 0 0 0 0 0 0 0 0 0 127 0"/>
<feOffset dx="6" dy="4"/>
<feGaussianBlur stdDeviation="6.5"/>
<feColorMatrix type="matrix" values="0 0 0 0 0 0 0 0 0 0 0 0 0 0 0 0 0 0 0.25 0"/>
<feBlend mode="normal" in2="BackgroundImageFix" result="effect1_dropShadow"/>
<feBlend mode="normal" in="SourceGraphic" in2="effect1_dropShadow" result="shape"/>
</filter>
<filter id="filter1_d" x="125.323" y="199.765" width="145.898" height="96.9886" filterUnits="userSpaceOnUse" color-interpolation-filters="sRGB">
<feFlood flood-opacity="0" result="BackgroundImageFix"/>
<feColorMatrix in="SourceAlpha" type="matrix" values="0 0 0 0 0 0 0 0 0 0 0 0 0 0 0 0 0 0 127 0"/>
<feOffset dx="4"/>
<feGaussianBlur stdDeviation="2"/>
<feColorMatrix type="matrix" values="0 0 0 0 0 0 0 0 0 0 0 0 0 0 0 0 0 0 0.25 0"/>
<feBlend mode="normal" in2="BackgroundImageFix" result="effect1_dropShadow"/>
<feBlend mode="normal" in="SourceGraphic" in2="effect1_dropShadow" result="shape"/>
</filter>
<linearGradient id="paint0_linear" x1="37.1963" y1="239.07" x2="30.9073" y2="272.553" gradientUnits="userSpaceOnUse">
<stop stop-color="#FFF1F1"/>
<stop offset="1" stop-color="#FFF7F7" stop-opacity="0"/>
</linearGradient>
<linearGradient id="paint1_linear" x1="266.762" y1="292.754" x2="266.762" y2="295.216" gradientUnits="userSpaceOnUse">
<stop stop-color="#5A5555"/>
<stop offset="1" stop-color="#9D9393" stop-opacity="0.47"/>
</linearGradient>
<linearGradient id="paint2_linear" x1="194.272" y1="246.455" x2="194.272" y2="249.085" gradientUnits="userSpaceOnUse">
<stop stop-color="#5A5555"/>
<stop offset="1" stop-color="#413939" stop-opacity="0.72"/>
</linearGradient>
<linearGradient id="paint3_linear" x1="172.882" y1="292.581" x2="172.882" y2="295.044" gradientUnits="userSpaceOnUse">
<stop stop-color="#5A5555"/>
<stop offset="1" stop-color="#9D9393" stop-opacity="0.47"/>
</linearGradient>
<clipPath id="clip0">
<rect width="31.3207" height="31.3207" fill="white" transform="translate(331.683 193.492)"/>
</clipPath>
<clipPath id="clip1">
<rect width="18.7924" height="18.7924" fill="white" transform="matrix(-1 0 0 1 213.361 181.66)"/>
</clipPath>
<clipPath id="clip2">
<rect width="17.4004" height="13.2243" fill="white" transform="translate(242.949 233.861)"/>
</clipPath>
</defs>
</svg>
