<svg width="503" height="467" viewBox="0 0 503 467" fill="none" xmlns="http://www.w3.org/2000/svg">
<path d="M149.071 460.754C63.2561 433.093 29.7705 408.378 7.15953 340.936C-13.8706 217.434 8.92031 139.501 109.132 92.3788C180.916 45.4241 225.827 46.2331 307.553 57.1134C454.463 78.6658 507.424 129.081 499.176 277.629C481.097 324.324 465.522 349.032 423.972 389.373C405.453 427.178 383.116 439.103 330.072 450.132C260.6 468.469 220.914 470.153 149.071 460.754Z" fill="#FBE9DB"/>
<path d="M96.7649 389.751C10.9499 362.09 17.2479 341.314 17.2479 330.446C-3.78228 206.944 97.251 243.125 197.463 196.003C269.246 149.049 272.519 135.412 354.245 146.292C441.347 146.292 492.933 150.703 484.685 299.25C466.606 345.946 434.46 349.41 392.91 389.751C374.391 427.556 267.927 402.515 214.883 413.544C145.411 431.882 168.608 399.15 96.7649 389.751Z" fill="#FEF7F1"/>
<path d="M162.521 454.239C31.2731 468.296 11.4397 392.647 32.9307 284.71C30.1891 160.861 79.2432 205.681 111.959 106.683C144.675 7.68467 270.866 8.53436 301.883 59.5206C332.899 110.507 490.457 231.855 494.717 268.318C498.977 304.78 510.837 341.242 469.287 381.583C451.669 422.406 406.113 416.287 351.594 422.372C283.584 413.258 235.57 440.974 162.521 454.239Z" stroke="#D9D5D2" stroke-width="5"/>
<path fill-rule="evenodd" clip-rule="evenodd" d="M374.114 222.136C380.863 211.974 382.641 199.804 383.631 187.882C385.556 164.673 387.602 151.351 402.17 131.545C410.739 119.897 419.912 107.666 420.682 92.6601C421.244 81.7335 417.187 67.1018 406.227 62.2192C388.05 55.8013 369.615 65.3392 356.717 78.225C340.732 94.1962 336.777 111.147 343.307 131.975C346.988 143.709 347.084 153.463 342.776 165.072C339.332 174.356 332.907 183.439 330.891 193.185C327.877 207.756 331.324 219.993 341.958 229.77C352.366 203.69 361.508 175.725 365.409 147.915C365.885 145.22 365.366 132.087 369.448 131.431C373.944 130.71 369.466 148.355 369.486 148.24C368.147 156.492 366.242 164.682 364.229 172.842C364.216 172.837 364.203 172.827 364.189 172.821C362.135 181.208 359.976 189.628 357.686 198.03C356.659 201.513 355.567 204.979 354.362 208.429C352.595 213.491 345.369 225.2 346.087 230.485C346.241 231.616 346.553 232.52 346.981 233.253C345.066 238.857 343.067 244.423 340.927 249.914C335.339 264.256 328.497 278.265 318.683 290.239C315.819 293.734 302.667 303.873 302.139 308.249C301.171 316.251 308.811 307.794 311.219 305.364C331.149 285.229 343.157 262.092 351.997 235.638C359.418 235.342 371.379 226.252 374.114 222.136Z" fill="#00D1FF" fill-opacity="0.48"/>
<path fill-rule="evenodd" clip-rule="evenodd" d="M135.832 199.427C128.923 189.74 126.205 178.317 124.205 167.15C120.313 145.409 117.25 132.904 102.538 113.983C93.8858 102.856 84.6453 91.1657 82.5468 77.123C81.018 66.8975 83.2092 53.3418 92.4051 49.0918C107.816 43.6129 124.963 53.0498 137.548 65.4571C153.145 80.8354 158.234 96.7865 154.45 116.061C152.317 126.92 153.155 136.031 158.049 147C161.962 155.773 168.483 164.443 171.182 173.607C175.216 187.308 173.337 198.644 164.89 207.476C153.252 182.811 142.55 156.421 136.481 130.326C135.807 127.794 135.022 115.538 131.363 114.808C127.333 114.006 132.948 130.621 132.92 130.513C134.881 138.262 137.334 145.968 139.88 153.65C139.891 153.645 139.901 153.637 139.913 153.632C142.516 161.526 145.216 169.455 148.028 177.371C149.263 180.655 150.553 183.924 151.941 187.182C153.977 191.963 161.452 203.108 161.32 208.026C161.291 209.078 161.101 209.914 160.794 210.587C163.011 215.877 165.3 221.135 167.705 226.327C173.986 239.886 181.34 253.171 191.121 264.639C193.975 267.986 206.525 277.833 207.404 281.937C209.014 289.442 201.481 281.323 199.129 278.983C179.662 259.602 166.892 237.642 156.599 212.673C150.031 212.185 138.631 203.351 135.832 199.427Z" fill="#38B6FC" fill-opacity="0.62"/>
<path fill-rule="evenodd" clip-rule="evenodd" d="M403.053 227.911C385.075 227.624 367.621 234.486 358.915 239.259C348.141 245.166 340.429 252.216 334.512 259.105C324.764 270.454 322.657 283.641 321.717 295.877C321.603 297.351 319.511 315.314 325.49 315.422C331.413 315.53 328.942 296.57 329.708 292.73C331.34 284.536 330.29 276.275 336.326 268.484C342.575 260.418 353.523 253.159 367.169 246.75C368.921 245.928 372.729 242.686 376.733 243.766C380.649 244.822 369.339 248.717 367.717 249.513C361.018 252.8 355.152 256.364 350.242 260.102C341.042 267.104 335.991 274.741 335.59 282.931C349.175 284.595 361.245 282.577 366.137 278.182C370.364 274.383 371.071 269.68 375.82 266.139C379.091 263.7 384.162 261.785 390.304 260.291C406.508 256.351 423.155 256.219 428.448 248.216C432.597 241.942 428.895 228.331 403.053 227.911Z" fill="#B7E6F1"/>
<path d="M83.7593 162.515C111.862 185.144 143.485 260.086 180.904 294.655C214.416 333.334 225.048 339.832 201.374 272.025L201.346 271.965C176.513 218.041 162.582 187.789 112.903 139.885C84.2355 116.125 55.6566 139.885 83.7593 162.515Z" fill="#39779C" fill-opacity="0.73"/>
<path d="M96.2495 150.392C100.005 153.526 103.586 156.598 107.005 159.619M194.782 293.846C180.338 257.301 168.722 230.643 149.622 204.945M100.76 165.747L121.923 173.48M121.923 173.48C127.068 178.53 131.786 183.482 136.148 188.399M121.923 173.48C117.311 168.953 112.356 164.348 107.005 159.619M113.944 184.74L136.148 188.399M136.148 188.399C141.055 193.929 145.511 199.415 149.622 204.945M129.209 204.945H149.622M107.005 142.714V159.619" stroke="white" stroke-opacity="0.55" stroke-width="4" stroke-linecap="round"/>
<g opacity="0.5">
<path fill-rule="evenodd" clip-rule="evenodd" d="M417.282 365.077C406.13 352.145 389.289 344.749 379.751 342.036C367.949 338.678 357.124 338.313 347.573 339.103C331.837 340.403 319.398 348.439 308.498 356.613C307.185 357.598 290.733 369.096 294.431 373.405C298.094 377.675 312.494 362.228 316.213 359.996C324.147 355.231 330.439 348.519 340.825 347.163C351.578 345.758 364.63 348.262 378.675 353.29C380.478 353.936 385.621 354.29 387.25 357.903C388.842 361.438 378.395 356.247 376.696 355.674C369.682 353.307 362.963 351.731 356.704 350.956C344.976 349.503 335.343 351.446 328.193 357.079C335.402 367.897 344.752 374.981 351.553 375.269C357.431 375.517 361.84 372.618 367.831 373.421C371.958 373.975 376.785 376.18 381.936 379.448C395.524 388.07 406.186 399.757 416.28 397.721C424.193 396.125 433.308 383.671 417.282 365.077Z" fill="#7E84B7"/>
<path fill-rule="evenodd" clip-rule="evenodd" d="M314.674 361.556L311.861 362.894C311.281 361.164 310.761 359.409 310.595 357.505C309.974 350.367 312.812 338.101 327.853 329.743C328.408 329.435 330.509 328.428 333.091 327.284C334.154 326.403 335.419 325.575 336.825 324.854C349.819 318.135 366.861 315.952 375.619 317.948C382.679 319.558 384.343 325.288 383.218 331.1C382.464 334.991 379.782 341.302 372.072 345.017C362.425 349.665 359.383 344.47 357.691 341.392C355.44 337.3 352.523 334.191 343.839 334.801C341.815 334.943 339.671 335.242 337.634 335.402C334.445 335.653 330.961 336.014 329.802 334.472C328.202 332.345 330.934 330.527 335.621 328.835C336.419 328.546 344.854 326.454 343.127 325.759C342.6 325.547 341.188 325.851 339.479 326.389C335.235 328.156 330.176 330.27 328.821 331.088C314.202 339.91 312.808 352.383 314.131 359.258C314.281 360.036 314.468 360.8 314.674 361.556Z" fill="#38B6FC"/>
</g>
<path d="M159.823 324.99C183.132 330.887 193.779 331.52 209.352 328.876C205.412 315.389 204.581 308.105 184.949 297.248C165.316 286.391 118.722 235.264 100.93 234.014C83.1389 232.764 77.3632 232.453 85.5233 257.751C111.31 292.679 127.469 307.693 159.823 324.99Z" fill="#B7E6F1"/>
<path d="M97.3447 242.773C106.003 242.743 113.864 250.953 119.82 256.592C123.785 260.346 127.434 264.455 131.564 268.028C138.281 273.841 144.732 279.934 151.577 285.616C163.381 295.413 175.678 304.207 186.812 314.827C192.356 320.115 198.53 324.746 204.531 329.228" stroke="white" stroke-opacity="0.55" stroke-width="4" stroke-linecap="round" stroke-linejoin="round"/>
<path d="M105.849 265.573C110.193 264.805 113.921 262.533 118.108 261.647C119.489 261.356 121.223 261.544 122.293 260.579" stroke="white" stroke-opacity="0.55" stroke-width="4" stroke-linecap="round" stroke-linejoin="round"/>
<path d="M120.105 281.188C125.946 280.158 133.428 279.178 138.155 275.306" stroke="white" stroke-opacity="0.55" stroke-width="4" stroke-linecap="round" stroke-linejoin="round"/>
<path d="M153.25 278.36C154.247 281.422 156.179 284.263 156.65 287.464C156.833 288.712 156.94 289.583 157.626 290.601" stroke="white" stroke-opacity="0.55" stroke-width="4" stroke-linecap="round" stroke-linejoin="round"/>
<path d="M315.154 271.998C301.861 219.075 265.72 175.492 278.183 110.739C229.579 116.965 180.976 123.814 132.373 130.04C109.109 250.829 209.639 317.45 185.961 438.239C229.995 403.995 275.69 373.486 319.309 339.864C323.878 316.205 320.139 291.922 315.154 271.998Z" fill="#727272"/>
<path d="M132.789 293.168C145.666 281.96 158.96 270.753 171.837 258.923C180.561 270.753 188.454 283.828 193.024 299.394C179.315 309.356 165.606 319.941 152.313 329.903C152.728 320.563 152.728 311.846 152.313 303.752C146.082 300.017 139.435 296.281 132.789 293.168Z" fill="#933434"/>
<path d="M350.465 265.772C335.095 204.755 293.554 154.945 308.093 80.2299C252.428 87.7014 196.347 95.1729 140.682 102.644C113.68 240.867 228.749 317.45 201.747 456.295C252.012 417.07 304.77 382.203 355.035 342.978C360.435 315.582 356.281 288.187 350.465 265.772Z" fill="#B5BEC5"/>
<path d="M105.371 201.019C122.403 193.548 139.85 185.454 156.882 177.982C165.191 195.416 171.837 214.094 174.745 234.641C156.882 240.867 139.435 246.471 121.572 252.697C124.065 242.112 125.311 232.15 126.142 221.566C119.495 214.094 112.849 207.868 105.371 201.019" fill="#ED4C5C"/>
<g filter="url(#filter0_d)">
<path d="M148.158 88.9467C125.311 222.188 242.873 286.941 219.609 420.183C269.044 380.335 320.139 343.6 369.574 303.752C374.143 277.602 369.158 251.452 362.927 230.905C345.48 173.624 302.692 128.795 315.155 57.8155C259.489 68.4001 203.824 78.9847 148.158 88.9467Z" fill="url(#paint0_linear)"/>
<path d="M148.158 88.9467C125.311 222.188 242.873 286.941 219.609 420.183C269.044 380.335 320.139 343.6 369.574 303.752C374.143 277.602 369.158 251.452 362.927 230.905C345.48 173.624 302.692 128.795 315.155 57.8155C259.489 68.4001 203.824 78.9847 148.158 88.9467Z" fill="url(#paint1_linear)"/>
</g>
<path d="M166.853 135.021C167.268 140.002 168.099 144.983 168.514 149.341L294.384 111.984C293.969 108.248 293.138 104.512 292.723 100.777C250.766 112.606 208.809 123.814 166.853 135.021Z" fill="#B4BEC1"/>
<path d="M178.485 187.944C219.611 173.001 260.737 158.058 302.278 143.115C301.032 139.379 299.785 136.266 298.955 132.53C257.413 146.851 215.872 160.549 174.331 174.869C175.577 179.227 177.238 183.586 178.485 187.944Z" fill="#B4BEC1"/>
<path d="M193.439 223.434C233.734 206 273.614 188.567 313.909 171.133C312.248 168.02 311.001 164.284 309.34 161.171C268.629 177.982 228.334 194.17 187.624 210.981C189.701 215.34 191.362 219.698 193.439 223.434Z" fill="#B4BEC1"/>
<path d="M238.304 342.355C239.135 347.336 239.55 351.694 239.965 356.675C258.244 343.6 276.937 329.902 295.215 316.827C294.8 312.469 294.385 308.111 293.554 303.752C275.275 316.205 256.997 329.28 238.304 342.355Z" fill="#B4BEC1"/>
<path d="M331.929 394.918C334.177 389.381 334.503 384.354 332.656 383.69C330.809 383.025 327.49 386.975 325.242 392.512C322.993 398.049 322.668 403.076 324.514 403.741C326.361 404.405 329.68 400.455 331.929 394.918Z" fill="#FD4322"/>
<path d="M330.017 413.363C332.035 401.661 323.592 390.635 311.161 388.736C298.729 386.837 287.016 394.784 284.998 406.486C282.981 418.189 291.424 429.214 303.855 431.113C316.287 433.012 328 425.065 330.017 413.363Z" fill="#FD4322"/>
<path d="M304.043 426.771H297.116V438.455H304.043V426.771Z" fill="#FD4322"/>
<path d="M317.899 426.771H310.972V438.455H317.899V426.771Z" fill="#FD4322"/>
<path d="M302.889 440.629C306.077 440.629 308.662 439.716 308.662 438.591C308.662 437.465 306.077 436.553 302.889 436.553C299.7 436.553 297.116 437.465 297.116 438.591C297.116 439.716 299.7 440.629 302.889 440.629Z" fill="#FD4322"/>
<path d="M316.745 440.357C319.933 440.357 322.518 439.445 322.518 438.319C322.518 437.194 319.933 436.281 316.745 436.281C313.556 436.281 310.972 437.194 310.972 438.319C310.972 439.445 313.556 440.357 316.745 440.357Z" fill="#FD4322"/>
<path opacity="0.85" d="M308.085 411.827C312.389 411.827 315.879 408.542 315.879 404.491C315.879 400.439 312.389 397.154 308.085 397.154C303.78 397.154 300.291 400.439 300.291 404.491C300.291 408.542 303.78 411.827 308.085 411.827Z" fill="white"/>
<path d="M308.084 406.936C309.519 406.936 310.682 405.841 310.682 404.491C310.682 403.14 309.519 402.045 308.084 402.045C306.649 402.045 305.486 403.14 305.486 404.491C305.486 405.841 306.649 406.936 308.084 406.936Z" fill="#FEEDE2"/>
<path d="M285.387 389.963C283.546 382.2 289.432 374.357 298.534 372.444C307.636 370.531 316.507 375.272 318.348 383.035C320.189 390.797 314.157 393.66 305.055 395.573C295.953 397.486 287.228 397.725 285.387 389.963Z" fill="#6C63FF"/>
<path d="M293.015 402.014C293.393 400.187 288.688 397.789 282.506 396.657C276.325 395.526 271.008 396.089 270.631 397.916C270.253 399.742 274.958 402.141 281.14 403.272C287.321 404.404 292.638 403.84 293.015 402.014Z" fill="#FD4322"/>
<path opacity="0.85" d="M296.306 417.669C296.306 419.77 302.052 423.918 308.429 423.918C314.806 423.918 320.785 418.004 320.785 415.903C320.785 413.802 314.806 416.31 308.429 416.31C302.052 416.31 296.306 415.568 296.306 417.669Z" fill="white"/>
<path d="M312.877 375.477L310.102 365.727L283.316 372.483L286.092 382.233C290.803 376.699 307.26 373.044 312.877 375.477Z" fill="url(#paint2_linear)"/>
<rect width="0.742492" height="7.00906" transform="matrix(-1.00532 0.0400046 -0.00643067 0.991873 276.122 371.766)" fill="#C1BFAA"/>
<path d="M276.564 380.356L278.562 388.724L275.39 388.85L275.401 387.139L273.773 388.915L272.778 388.954L275.445 380.401L276.564 380.356Z" fill="#FF0606"/>
<ellipse rx="1.85623" ry="1.61747" transform="matrix(-1.00532 0.0400046 -0.00643067 0.991873 275.7 379.375)" fill="#FDC501"/>
<path d="M324.73 359.287L293.209 359.427L268.074 373.577L296.978 372.667L324.73 359.287Z" fill="url(#paint3_linear)" stroke="white"/>
<g opacity="0.44">
<path d="M263.363 34.9924L263.375 34.9987C263.571 33.8046 263.666 32.5851 263.666 31.3783C263.666 30.2978 263.584 29.211 263.432 28.1495C263.584 29.2047 263.66 30.2725 263.66 31.3403C263.66 32.5661 263.559 33.7919 263.363 34.9924ZM215.323 24.1499C215.292 24.1246 215.266 24.0994 215.235 24.0678C215.279 24.112 215.323 24.1562 215.374 24.2004L219.512 27.7325V27.7262L215.323 24.1499ZM249.228 10.502H249.235L248.255 5.20707C248.243 5.14388 248.23 5.08702 248.211 5.03015C248.217 5.06174 248.23 5.09965 248.236 5.13125L249.228 10.502ZM252.64 45.0325L254.624 43.4023L260.488 45.4811C261.562 44.0342 262.466 42.4798 263.18 40.8307L258.46 36.7932L258.877 34.2595C259.035 33.3054 259.117 32.326 259.117 31.3467C259.117 30.3673 259.035 29.3879 258.877 28.4338L258.466 25.9128L263.186 21.8752C262.466 20.2324 261.568 18.6718 260.494 17.2248L254.631 19.3036L252.647 17.6735C251.137 16.435 249.449 15.462 247.636 14.7796L245.229 13.876L244.098 7.7471C242.313 7.54491 240.512 7.54491 238.727 7.7471L237.596 13.8887L235.201 14.7922C233.401 15.4746 231.726 16.4477 230.229 17.6798L228.245 19.3163L222.343 17.2185C221.269 18.6655 220.365 20.2198 219.651 21.8689L224.422 25.9444L224.011 28.4717C223.853 29.4132 223.777 30.3799 223.777 31.3467C223.777 32.3071 223.86 33.2801 224.011 34.2216L224.422 36.749L219.651 40.8244C220.372 42.4672 221.269 44.0279 222.343 45.4748L228.245 43.3771L230.229 45.0136C231.726 46.2457 233.401 47.2187 235.201 47.9011L237.59 48.8173L238.721 54.9589C240.503 55.161 242.316 55.161 244.091 54.9589L245.222 48.8299L247.63 47.9264C249.449 47.244 251.13 46.2709 252.64 45.0325ZM241.45 41.8543C239.523 41.8543 237.71 41.3615 236.124 40.4958C232.655 38.6129 230.298 34.9419 230.298 30.7148C230.298 24.5732 235.277 19.5943 241.419 19.5943C245.646 19.5943 249.317 21.9511 251.2 25.4199C252.065 26.9995 252.558 28.8129 252.558 30.7464C252.558 36.8817 247.586 41.8543 241.45 41.8543ZM222.16 50.3527C221.812 50.4727 221.452 50.498 221.111 50.4285C221.471 50.5043 221.85 50.4917 222.217 50.3653L227.36 48.533C227.354 48.5266 227.341 48.5203 227.335 48.514L222.16 50.3527ZM267.501 24.1499L263.363 27.6883C263.363 27.7009 263.369 27.7198 263.369 27.7325L267.501 24.2004C267.95 23.815 268.203 23.259 268.209 22.684C268.19 23.24 267.937 23.7771 267.501 24.1499Z" fill="#F70000" fill-opacity="0.27"/>
<path d="M268.196 39.8514C268.228 40.1483 268.196 40.4516 268.089 40.7423L268.032 40.9066C266.89 44.0896 265.184 47.041 262.996 49.6198L262.882 49.7525C262.617 50.0658 262.263 50.291 261.867 50.3982C261.471 50.5054 261.052 50.4896 260.665 50.3527L255.528 48.5267C253.643 50.0793 251.515 51.3091 249.228 52.1661L248.236 57.5368C248.161 57.941 247.965 58.3127 247.674 58.6028C247.383 58.8928 247.01 59.0874 246.606 59.1607L246.435 59.1923C244.784 59.4908 243.109 59.6409 241.431 59.6409H241.45C243.137 59.6409 244.824 59.4893 246.467 59.1923L246.638 59.1607C247.042 59.0874 247.415 58.8928 247.706 58.6028C247.997 58.3127 248.193 57.941 248.268 57.5368L249.26 52.1724C251.547 51.3131 253.657 50.0937 255.553 48.5393L260.684 50.3653C261.07 50.5022 261.49 50.5181 261.886 50.4108C262.282 50.3036 262.636 50.0784 262.901 49.7651L263.015 49.6324C265.214 47.0355 266.901 44.11 268.045 40.9318L268.101 40.7676C268.203 40.4706 268.234 40.1547 268.196 39.8514Z" fill="black" fill-opacity="0.15"/>
<path d="M252.539 30.7148C252.539 28.8003 252.053 26.9933 251.2 25.4199C249.317 21.9511 245.646 19.5943 241.419 19.5943C235.277 19.5943 230.298 24.5733 230.298 30.7148C230.298 34.9419 232.655 38.613 236.124 40.4959C237.697 41.3489 239.498 41.8354 241.419 41.8354C247.56 41.8354 252.539 36.8564 252.539 30.7148ZM234.342 30.7148C234.342 28.8256 235.081 27.0501 236.415 25.7106C237.754 24.3711 239.53 23.6381 241.419 23.6381C243.308 23.6381 245.084 24.3711 246.423 25.7106C247.081 26.367 247.603 27.147 247.959 28.0058C248.315 28.8646 248.497 29.7853 248.496 30.7148C248.496 32.6041 247.756 34.3796 246.423 35.7191C245.767 36.3773 244.987 36.8993 244.128 37.255C243.269 37.6106 242.348 37.793 241.419 37.7916C239.53 37.7916 237.754 37.0523 236.415 35.7191C235.756 35.0627 235.234 34.2827 234.879 33.4239C234.523 32.5651 234.341 31.6444 234.342 30.7148Z" fill="#7E84B7"/>
<path d="M246.606 59.1606C247.011 59.0874 247.383 58.8928 247.674 58.6027C247.966 58.3127 248.162 57.9409 248.236 57.5368L249.228 52.1661C251.515 51.309 253.643 50.0792 255.528 48.5266L260.665 50.3527C261.052 50.4895 261.471 50.5054 261.867 50.3982C262.263 50.2909 262.618 50.0657 262.883 49.7524L262.996 49.6197C265.195 47.0228 266.889 44.091 268.032 40.9065L268.089 40.7422C268.197 40.4516 268.228 40.1483 268.197 39.8513C268.14 39.3522 267.9 38.8783 267.501 38.5308L263.376 34.9987L263.363 34.9924C263.559 33.7919 263.66 32.5661 263.66 31.3403C263.66 30.2725 263.584 29.1984 263.432 28.1495C263.413 28.0105 263.388 27.8715 263.369 27.7325C263.369 27.7198 263.363 27.7009 263.363 27.6882L267.501 24.1499C267.937 23.7771 268.19 23.24 268.209 22.684C268.215 22.4313 268.178 22.1722 268.089 21.9258L268.032 21.7615C266.893 18.5771 265.187 15.6252 262.996 13.0483L262.883 12.9156C262.617 12.6032 262.263 12.3786 261.867 12.2714C261.471 12.1643 261.052 12.1796 260.665 12.3154L255.528 14.1414C253.632 12.5871 251.522 11.3613 249.235 10.5019H249.228L248.236 5.13123C248.23 5.09964 248.224 5.06173 248.211 5.03014C248.12 4.64812 247.92 4.30083 247.635 4.0305C247.35 3.76016 246.993 3.57842 246.606 3.50738L246.436 3.47579C243.144 2.88185 239.681 2.88185 236.389 3.47579L236.219 3.50738C235.814 3.58065 235.442 3.77524 235.151 4.06529C234.859 4.35534 234.663 4.72712 234.588 5.13123L233.59 10.5272C231.321 11.3867 229.208 12.6119 227.335 14.154L222.16 12.3154C221.773 12.1785 221.354 12.1626 220.958 12.2699C220.561 12.3771 220.207 12.6023 219.942 12.9156L219.828 13.0483C217.641 15.627 215.935 18.5785 214.793 21.7615L214.736 21.9258C214.604 22.293 214.581 22.6904 214.67 23.0703C214.758 23.4502 214.955 23.7966 215.235 24.0677C215.267 24.093 215.292 24.1246 215.323 24.1499L219.513 27.7262V27.7325C219.317 28.9203 219.222 30.1272 219.222 31.334C219.222 32.5472 219.317 33.7603 219.513 34.9419L215.323 38.5181C215.011 38.7854 214.788 39.1413 214.683 39.5386C214.578 39.9359 214.596 40.3557 214.736 40.7422L214.793 40.9065C215.936 44.091 217.63 47.0291 219.828 49.6197L219.942 49.7524C220.252 50.1126 220.663 50.3464 221.111 50.4285C221.452 50.4917 221.812 50.4727 222.16 50.3527L227.335 48.514C227.341 48.5203 227.354 48.5266 227.36 48.5329C229.237 50.0683 231.328 51.2878 233.59 52.1408L234.588 57.5368C234.663 57.9409 234.859 58.3127 235.151 58.6027C235.442 58.8928 235.814 59.0874 236.219 59.1606L236.389 59.1922C238.038 59.4892 239.725 59.6409 241.412 59.6409H241.431C243.112 59.6409 244.799 59.4892 246.436 59.1922L246.606 59.1606ZM244.091 54.9588C242.307 55.161 240.505 55.161 238.721 54.9588L237.59 48.8173L235.201 47.9011C233.401 47.2187 231.726 46.2456 230.229 45.0135L228.245 43.3771L222.343 45.4748C221.269 44.0279 220.372 42.4672 219.652 40.8244L224.422 36.749L224.011 34.2216C223.86 33.2801 223.778 32.3071 223.778 31.3466C223.778 30.3799 223.853 29.4132 224.011 28.4717L224.422 25.9443L219.652 21.8689C220.366 20.2198 221.269 18.6654 222.343 17.2185L228.245 19.3162L230.229 17.6798C231.726 16.4476 233.401 15.4746 235.201 14.7922L237.596 13.8887L238.727 7.74709C240.503 7.5449 242.316 7.5449 244.098 7.74709L245.229 13.876L247.636 14.7796C249.45 15.462 251.137 16.435 252.647 17.6734L254.631 19.3036L260.494 17.2248C261.568 18.6718 262.466 20.2324 263.186 21.8752L258.466 25.9127L258.877 28.4338C259.035 29.3879 259.117 30.3673 259.117 31.3466C259.117 32.326 259.035 33.3054 258.877 34.2595L258.46 36.7932L263.18 40.8307C262.464 42.4791 261.561 44.0396 260.488 45.4811L254.624 43.4023L252.64 45.0325C251.13 46.2709 249.45 47.244 247.63 47.9264L245.223 48.8299L244.091 54.9588Z" fill="#7E84B7"/>
</g>
<path d="M261.09 31.9621L261.102 31.9684C261.298 30.7742 261.393 29.5548 261.393 28.3479C261.393 27.2675 261.311 26.1807 261.159 25.1192C261.311 26.1744 261.387 27.2422 261.387 28.31C261.387 29.5358 261.286 30.7616 261.09 31.9621ZM213.05 21.1196C213.019 21.0943 212.994 21.069 212.962 21.0374C213.006 21.0817 213.05 21.1259 213.101 21.1701L217.24 24.7022V24.6958L213.05 21.1196ZM246.955 7.47163H246.962L245.982 2.17673C245.97 2.11355 245.957 2.05668 245.938 1.99982C245.944 2.03141 245.957 2.06932 245.963 2.10091L246.955 7.47163ZM250.367 42.0022L252.351 40.372L258.215 42.4508C259.289 41.0039 260.193 39.4495 260.907 37.8004L256.187 33.7629L256.604 31.2291C256.762 30.2751 256.844 29.2957 256.844 28.3163C256.844 27.337 256.762 26.3576 256.604 25.4035L256.193 22.8824L260.913 18.8449C260.193 17.2021 259.295 15.6414 258.221 14.1945L252.358 16.2733L250.374 14.6431C248.864 13.4047 247.177 12.4316 245.363 11.7492L242.956 10.8457L241.825 4.71677C240.04 4.51457 238.239 4.51457 236.454 4.71677L235.323 10.8583L232.928 11.7619C231.128 12.4443 229.453 13.4173 227.956 14.6494L225.972 16.2859L220.07 14.1882C218.996 15.6351 218.093 17.1895 217.379 18.8386L222.149 22.914L221.738 25.4414C221.58 26.3829 221.505 27.3496 221.505 28.3163C221.505 29.2767 221.587 30.2498 221.738 31.1912L222.149 33.7186L217.379 37.7941C218.099 39.4369 218.996 40.9975 220.07 42.4445L225.972 40.3467L227.956 41.9832C229.453 43.2153 231.128 44.1884 232.928 44.8708L235.317 45.787L236.448 51.9285C238.23 52.1307 240.043 52.1307 241.818 51.9285L242.949 45.7996L245.357 44.896C247.177 44.2136 248.857 43.2406 250.367 42.0022ZM239.177 38.824C237.25 38.824 235.437 38.3311 233.851 37.4655C230.382 35.5826 228.025 31.9115 228.025 27.6845C228.025 21.5429 233.004 16.5639 239.146 16.5639C243.373 16.5639 247.044 18.9207 248.927 22.3896C249.792 23.9692 250.285 25.7826 250.285 27.7161C250.285 33.8513 245.313 38.824 239.177 38.824ZM219.887 47.3223C219.539 47.4424 219.179 47.4677 218.838 47.3982C219.198 47.474 219.577 47.4614 219.944 47.335L225.087 45.5026C225.081 45.4963 225.068 45.49 225.062 45.4837L219.887 47.3223ZM265.228 21.1196L261.09 24.6579C261.09 24.6706 261.096 24.6895 261.096 24.7022L265.228 21.1701C265.677 20.7847 265.93 20.2287 265.936 19.6537C265.917 20.2097 265.664 20.7468 265.228 21.1196Z" fill="#F70000" fill-opacity="0.27"/>
<path d="M265.924 36.821C265.955 37.118 265.924 37.4212 265.816 37.7119L265.76 37.8762C264.617 41.0592 262.911 44.0106 260.724 46.5894L260.61 46.7221C260.345 47.0354 259.991 47.2606 259.595 47.3678C259.198 47.475 258.779 47.4592 258.392 47.3223L253.255 45.4963C251.371 47.0489 249.242 48.2787 246.956 49.1357L245.964 54.5064C245.889 54.9106 245.693 55.2823 245.402 55.5724C245.11 55.8624 244.738 56.057 244.334 56.1303L244.163 56.1619C242.512 56.4604 240.837 56.6105 239.159 56.6105H239.178C240.865 56.6105 242.552 56.4589 244.195 56.1619L244.365 56.1303C244.77 56.057 245.142 55.8624 245.433 55.5724C245.724 55.2823 245.92 54.9106 245.995 54.5064L246.987 49.142C249.275 48.2827 251.385 47.0633 253.281 45.5089L258.411 47.335C258.798 47.4718 259.217 47.4877 259.614 47.3804C260.01 47.2732 260.364 47.048 260.629 46.7347L260.743 46.602C262.941 44.0051 264.629 41.0796 265.772 37.9014L265.829 37.7372C265.93 37.4402 265.962 37.1243 265.924 36.821Z" fill="black" fill-opacity="0.15"/>
<path d="M250.266 27.6844C250.266 25.7699 249.78 23.9629 248.927 22.3896C247.044 18.9207 243.373 16.5639 239.146 16.5639C233.004 16.5639 228.025 21.5429 228.025 27.6844C228.025 31.9115 230.382 35.5826 233.851 37.4655C235.424 38.3185 237.225 38.805 239.146 38.805C245.288 38.805 250.266 33.826 250.266 27.6844ZM232.069 27.6844C232.069 25.7952 232.808 24.0197 234.142 22.6802C235.481 21.3407 237.257 20.6077 239.146 20.6077C241.035 20.6077 242.811 21.3407 244.15 22.6802C244.808 23.3366 245.33 24.1166 245.686 24.9754C246.042 25.8342 246.224 26.7549 246.223 27.6844C246.223 29.5737 245.483 31.3492 244.15 32.6887C243.494 33.3469 242.714 33.8689 241.855 34.2246C240.996 34.5802 240.075 34.7626 239.146 34.7612C237.257 34.7612 235.481 34.0219 234.142 32.6887C233.483 32.0323 232.961 31.2523 232.606 30.3935C232.25 29.5347 232.068 28.614 232.069 27.6844Z" fill="#7E84B7"/>
<path d="M244.333 56.1303C244.738 56.057 245.11 55.8624 245.401 55.5724C245.693 55.2824 245.889 54.9106 245.963 54.5065L246.955 49.1357C249.242 48.2787 251.37 47.0489 253.255 45.4963L258.392 47.3223C258.779 47.4592 259.198 47.475 259.594 47.3678C259.991 47.2606 260.345 47.0354 260.61 46.7221L260.723 46.5894C262.922 43.9925 264.616 41.0607 265.759 37.8762L265.816 37.7119C265.924 37.4213 265.955 37.118 265.924 36.821C265.867 36.3218 265.627 35.848 265.229 35.5004L261.103 31.9684L261.09 31.9621C261.286 30.7616 261.387 29.5358 261.387 28.31C261.387 27.2422 261.311 26.168 261.159 25.1192C261.14 24.9802 261.115 24.8411 261.096 24.7021C261.096 24.6895 261.09 24.6705 261.09 24.6579L265.229 21.1196C265.665 20.7468 265.917 20.2097 265.936 19.6537C265.943 19.4009 265.905 19.1419 265.816 18.8954L265.759 18.7312C264.62 15.5468 262.914 12.5949 260.723 10.018L260.61 9.88528C260.344 9.57284 259.99 9.34825 259.594 9.24109C259.198 9.13394 258.779 9.14925 258.392 9.28502L253.255 11.1111C251.359 9.55672 249.249 8.33093 246.962 7.47162H246.955L245.963 2.1009C245.957 2.06931 245.951 2.03139 245.938 1.9998C245.847 1.61778 245.647 1.2705 245.362 1.00016C245.077 0.729827 244.72 0.54809 244.333 0.477046L244.163 0.445454C240.871 -0.148485 237.408 -0.148485 234.116 0.445454L233.946 0.477046C233.541 0.55032 233.169 0.744907 232.878 1.03495C232.586 1.325 232.39 1.69678 232.316 2.1009L231.317 7.49689C229.048 8.35638 226.935 9.58152 225.062 11.1237L219.887 9.28502C219.5 9.14818 219.081 9.13231 218.685 9.23953C218.288 9.34674 217.934 9.57197 217.669 9.88528L217.556 10.018C215.368 12.5967 213.662 15.5481 212.52 18.7312L212.463 18.8954C212.331 19.2627 212.308 19.6601 212.397 20.04C212.485 20.4199 212.682 20.7662 212.962 21.0374C212.994 21.0627 213.019 21.0943 213.05 21.1196L217.24 24.6958V24.7021C217.044 25.89 216.949 27.0968 216.949 28.3037C216.949 29.5168 217.044 30.73 217.24 31.9115L213.05 35.4878C212.738 35.755 212.515 36.111 212.41 36.5082C212.305 36.9055 212.323 37.3254 212.463 37.7119L212.52 37.8762C213.663 41.0607 215.357 43.9988 217.556 46.5894L217.669 46.7221C217.979 47.0822 218.39 47.316 218.838 47.3982C219.179 47.4613 219.54 47.4424 219.887 47.3223L225.062 45.4837C225.068 45.49 225.081 45.4963 225.087 45.5026C226.964 47.038 229.055 48.2575 231.317 49.1105L232.316 54.5065C232.39 54.9106 232.586 55.2824 232.878 55.5724C233.169 55.8624 233.541 56.057 233.946 56.1303L234.116 56.1619C235.765 56.4589 237.452 56.6105 239.14 56.6105H239.158C240.839 56.6105 242.526 56.4589 244.163 56.1619L244.333 56.1303ZM241.819 51.9285C240.034 52.1307 238.232 52.1307 236.448 51.9285L235.317 45.7869L232.928 44.8708C231.128 44.1884 229.453 43.2153 227.956 41.9832L225.972 40.3467L220.07 42.4445C218.996 40.9975 218.099 39.4369 217.379 37.7941L222.149 33.7186L221.738 31.1912C221.587 30.2498 221.505 29.2767 221.505 28.3163C221.505 27.3496 221.58 26.3829 221.738 25.4414L222.149 22.914L217.379 18.8386C218.093 17.1895 218.996 15.6351 220.07 14.1882L225.972 16.2859L227.956 14.6494C229.453 13.4173 231.128 12.4443 232.928 11.7619L235.323 10.8583L236.454 4.71675C238.23 4.51456 240.043 4.51456 241.825 4.71675L242.956 10.8457L245.363 11.7492C247.177 12.4316 248.864 13.4047 250.374 14.6431L252.358 16.2733L258.221 14.1945C259.295 15.6414 260.193 17.2021 260.913 18.8449L256.193 22.8824L256.604 25.4035C256.762 26.3576 256.844 27.3369 256.844 28.3163C256.844 29.2957 256.762 30.275 256.604 31.2291L256.187 33.7629L260.907 37.8004C260.191 39.4488 259.288 41.0092 258.215 42.4508L252.351 40.372L250.367 42.0022C248.857 43.2406 247.177 44.2136 245.357 44.896L242.95 45.7996L241.819 51.9285Z" fill="#7E84B7"/>
<g opacity="0.74">
<path d="M50.3313 102.737L30.2208 95.4349L37.5294 75.3267L31.3425 73.0878L21.7496 99.3913L48.077 108.918L50.3313 102.737Z" fill="#FF0D0D" fill-opacity="0.35"/>
<path d="M50.3313 102.737L30.2208 95.4349L37.5294 75.3267L31.3425 73.0878L21.7496 99.3913L48.077 108.918L50.3313 102.737Z" stroke="black"/>
<path d="M72.5123 92.3775L79.8209 72.2693L59.7103 64.9671L61.9647 58.7858L88.2921 68.3128L78.6992 94.6163L72.5123 92.3775Z" fill="#FF0D0D" fill-opacity="0.35"/>
<line x1="48.3928" y1="56.6987" x2="60.8837" y2="103.517" stroke="#FF0505" stroke-opacity="0.35" stroke-width="6"/>
<path d="M46.3504 104.596L26.2398 97.2942L33.5484 77.186L27.3615 74.9472L17.7686 101.251L44.0961 110.778L46.3504 104.596Z" fill="#FF0D0D"/>
<path d="M46.3504 104.596L26.2398 97.2942L33.5484 77.186L27.3615 74.9472L17.7686 101.251L44.0961 110.778L46.3504 104.596Z" stroke="black"/>
<path d="M68.5313 94.237L75.8399 74.1288L55.7294 66.8266L57.9837 60.6453L84.3111 70.1723L74.7183 96.4758L68.5313 94.237Z" fill="#FF0D0D"/>
<line x1="44.4118" y1="58.5581" x2="56.9027" y2="105.377" stroke="#FF0505" stroke-width="6"/>
</g>
<g opacity="0.74">
<path d="M350.631 44.4068C351.418 42.725 351.653 40.8496 351.294 39.1088C350.934 37.368 350.004 35.8726 348.665 34.8841C347.326 33.8957 345.665 33.4773 343.971 33.702C342.277 33.9267 340.659 34.7803 339.399 36.1134C338.14 37.4465 337.319 39.1743 337.081 40.9943C336.843 42.8144 337.202 44.611 338.097 46.0696C338.991 47.5283 340.363 48.5562 341.973 48.9735C343.583 49.3908 345.328 49.171 346.903 48.3524L359.908 65.3454C358.856 66.5637 358.152 68.0694 357.89 69.6578L336.51 70.5567C336.107 68.7263 335.071 67.1821 333.602 66.2233C332.134 65.2645 330.338 64.9595 328.562 65.3674C326.786 65.7752 325.158 66.8668 323.991 68.4307C322.825 69.9946 322.204 71.9194 322.25 73.832C322.295 75.7446 323.003 77.5089 324.236 78.7829C325.47 80.0569 327.141 80.7499 328.925 80.7276C330.71 80.7053 332.482 79.9693 333.897 78.6622C335.311 77.3552 336.269 75.5701 336.583 73.653L357.963 72.754C358.294 74.2637 359.058 75.5872 360.151 76.5467C361.244 77.5061 362.615 78.0554 364.078 78.1207C365.542 78.186 367.028 77.7641 368.338 76.9117C369.647 76.0594 370.716 74.8176 371.401 73.3533C372.087 71.889 372.355 70.2724 372.171 68.7211C371.987 67.1698 371.359 65.7582 370.371 64.6761C369.384 63.594 368.084 62.8934 366.647 62.6685C365.21 62.4436 363.704 62.7052 362.333 63.4182L349.327 46.4252C349.85 45.8191 350.289 45.1384 350.631 44.4068Z" fill="#FB0000" fill-opacity="0.35"/>
<path d="M349.466 40.0153C350.253 38.3336 350.488 36.4582 350.128 34.7174C349.769 32.9766 348.839 31.4811 347.5 30.4927C346.161 29.5043 344.5 29.0858 342.806 29.3106C341.112 29.5353 339.494 30.3889 338.234 31.722C336.975 33.0551 336.154 34.7828 335.916 36.6029C335.678 38.423 336.037 40.2196 336.932 41.6782C337.826 43.1369 339.198 44.1648 340.808 44.5821C342.418 44.9994 344.163 44.7796 345.738 43.961L358.743 60.9539C357.691 62.1723 356.987 63.678 356.725 65.2663L335.345 66.1653C334.942 64.3349 333.906 62.7906 332.437 61.8319C330.969 60.8731 329.173 60.5681 327.397 60.9759C325.621 61.3838 323.992 62.4754 322.826 64.0393C321.66 65.6032 321.039 67.528 321.085 69.4406C321.13 71.3532 321.838 73.1175 323.071 74.3915C324.305 75.6655 325.976 76.3585 327.76 76.3362C329.545 76.3139 331.317 75.5779 332.732 74.2708C334.146 72.9637 335.104 71.1787 335.418 69.2616L356.798 68.3626C357.129 69.8723 357.893 71.1958 358.986 72.1553C360.079 73.1147 361.45 73.664 362.913 73.7293C364.377 73.7946 365.863 73.3726 367.173 72.5203C368.482 71.668 369.551 70.4262 370.236 68.9619C370.922 67.4975 371.19 65.881 371.006 64.3297C370.822 62.7784 370.194 61.3668 369.206 60.2847C368.219 59.2026 366.919 58.502 365.482 58.2771C364.045 58.0522 362.539 58.3138 361.168 59.0267L348.162 42.0338C348.685 41.4277 349.124 40.747 349.466 40.0153Z" fill="#FB0000"/>
</g>
<g opacity="0.35">
<path d="M468.835 138.173C463.873 135.088 457.506 136.275 454.686 140.812L452.635 144.111L456.243 146.354L458.295 143.055C459.987 140.333 463.807 139.621 466.784 141.472C469.76 143.322 470.812 147.064 469.119 149.785L467.068 153.084L470.677 155.328L472.728 152.029C475.548 147.492 473.796 141.257 468.835 138.173Z" fill="#424242"/>
<path d="M459.381 178.324L437.731 164.863C435.746 163.629 435.054 161.121 436.193 159.289L445.512 144.301C446.651 142.469 449.207 141.979 451.191 143.213L472.841 156.674C474.826 157.908 475.518 160.416 474.379 162.248L465.06 177.236C463.921 179.068 461.365 179.557 459.381 178.324Z" fill="#FB8C00"/>
<path d="M453.491 163.655C455.086 164.646 457.081 164.319 457.949 162.924C458.816 161.529 458.227 159.595 456.632 158.603C455.038 157.612 453.043 157.94 452.175 159.335C451.308 160.73 451.897 162.664 453.491 163.655Z" fill="#C76E00"/>
</g>
<path d="M465.545 138.51C460.584 135.425 454.217 136.613 451.397 141.149L449.346 144.448L452.954 146.691L455.005 143.392C456.697 140.67 460.517 139.958 463.494 141.809C466.471 143.659 467.522 147.401 465.83 150.122L463.779 153.421L467.387 155.665L469.438 152.366C472.258 147.83 470.507 141.594 465.545 138.51Z" fill="#424242"/>
<path d="M456.091 178.661L434.441 165.2C432.457 163.966 431.765 161.458 432.904 159.626L442.223 144.638C443.362 142.806 445.917 142.316 447.902 143.55L469.552 157.011C471.536 158.245 472.228 160.753 471.089 162.585L461.77 177.573C460.631 179.405 458.076 179.894 456.091 178.661Z" fill="#FB8C00"/>
<path d="M450.202 163.992C451.796 164.983 453.792 164.656 454.659 163.261C455.526 161.866 454.937 159.932 453.343 158.94C451.748 157.949 449.753 158.277 448.886 159.672C448.018 161.067 448.608 163.001 450.202 163.992Z" fill="#C76E00"/>
<g filter="url(#filter1_d)">
<path d="M350.66 263.614C350.002 261.654 348.239 262.156 347.344 261.335C346.528 260.408 346.633 258.25 344.922 257.809C343.211 257.369 341.501 259.086 340.106 259.435C338.711 259.785 337.763 258.448 335.631 259.679C333.499 260.909 332.525 263.235 331.156 264.602C329.788 265.97 328.077 266.076 326.339 268.538C324.602 271 324.734 272.991 323.918 274.86C323.023 276.714 321.286 278.234 320.601 280.969C319.917 283.704 321.154 284.601 321.154 286.273C321.154 287.944 319.838 290.315 320.601 292.215C321.365 294.114 323.023 293.673 323.918 294.494C324.734 295.421 324.629 297.579 326.339 298.02C328.05 298.46 329.761 296.743 331.156 296.394C332.551 296.044 333.499 297.381 335.631 296.151C337.763 294.92 338.737 292.594 340.106 291.227C341.474 289.859 343.185 289.753 344.922 287.291C346.66 284.829 346.528 282.838 347.344 280.969C348.239 279.115 349.976 277.595 350.66 274.86C351.345 272.125 350.108 271.228 350.108 269.556C350.108 267.885 351.424 265.514 350.66 263.614ZM335.631 290.072C333.549 291.274 331.513 291.736 329.782 291.4C328.05 291.064 326.701 289.944 325.904 288.183C325.107 286.421 324.898 284.097 325.305 281.505C325.711 278.912 326.714 276.167 328.186 273.616C329.659 271.066 331.535 268.825 333.577 267.177C335.619 265.528 337.736 264.547 339.66 264.356C341.584 264.166 343.228 264.775 344.385 266.106C345.542 267.437 346.159 269.431 346.159 271.836C346.159 275.06 345.05 278.793 343.076 282.213C341.101 285.633 338.423 288.46 335.631 290.072ZM340.895 274.875C340.895 276.077 340.586 277.431 340.008 278.765C339.43 280.098 338.607 281.352 337.645 282.367C336.684 283.383 335.625 284.114 334.604 284.469C333.583 284.824 332.645 284.787 331.909 284.362C331.172 283.937 330.671 283.143 330.468 282.081C330.265 281.019 330.369 279.737 330.767 278.396C331.166 277.056 331.841 275.717 332.706 274.549C333.572 273.381 334.59 272.437 335.631 271.836C337.027 271.03 338.366 270.897 339.353 271.467C340.341 272.037 340.895 273.263 340.895 274.875ZM340.132 298.293L338.474 310.192L336.552 323.854L329.682 320.252L320.996 329.674L324.497 304.858C326.04 304.857 327.748 304.309 329.472 303.263C330.529 303.583 331.724 303.594 332.999 303.293C333.851 303.107 334.739 302.749 335.631 302.229C337.206 301.326 338.755 299.971 340.132 298.293ZM351.213 301.682L344.422 302.807L345.765 293.096C346.566 292.31 347.32 291.414 348.002 290.437L348.318 289.95L351.213 301.682Z" fill="#FF0707"/>
</g>
<g filter="url(#filter2_d)">
<g clip-path="url(#clip0)">
<path d="M134.582 417.269L144.939 427.487L98.9555 449.443C98.9555 449.443 92.8797 452.205 89.9798 447.786C78.6567 430.111 134.582 417.269 134.582 417.269Z" fill="#962C2C"/>
<path d="M97.8504 436.601C97.8504 436.601 89.0128 439.639 90.6699 445.577C92.3269 451.653 99.3694 447.924 99.3694 447.924L143.005 427.625C143.005 427.625 140.519 421.135 144.938 416.854L97.8504 436.601Z" fill="#D9E3E8"/>
<path d="M105.169 375.704L147.01 416.44L97.5746 435.773L65.8145 386.337L105.169 375.704Z" fill="#ED4C5C"/>
<path d="M106.412 384.956L114.422 393.518L84.4565 404.289L77.4141 393.38L106.412 384.956Z" fill="white"/>
<path d="M142.867 421.273L113.731 433.149L142.453 420.031L142.867 421.273Z" fill="#94989B"/>
<path d="M142.453 424.864L111.383 437.706L141.901 423.483L142.453 424.864Z" fill="#94989B"/>
<path d="M142.729 426.797L103.098 443.92L142.177 425.554L142.729 426.797Z" fill="#94989B"/>
<path d="M89.9797 447.786C85.1466 437.706 97.5745 435.911 97.5745 435.911L65.8143 386.337C65.8143 386.337 58.6338 386.199 58.6338 393.656C58.6338 396.694 60.0147 399.041 60.0147 399.041L89.9797 447.786Z" fill="#C94747"/>
</g>
<g clip-path="url(#clip1)">
<path d="M145.605 389.485L158.535 396.305L121.091 431C121.091 431 116.102 435.45 112.02 432.037C95.9546 418.305 145.605 389.485 145.605 389.485Z" fill="#962C2C"/>
<path d="M116.226 418.931C116.226 418.931 108.679 424.458 112.024 429.702C115.41 435.079 121.036 429.412 121.036 429.412L156.728 397.006C156.728 397.006 152.427 391.472 155.382 386.043L116.226 418.931Z" fill="#D9E3E8"/>
<path d="M105.164 358.011L157.239 385.035L115.717 418.212L70.6979 379.831L105.164 358.011Z" fill="#FFCE31"/>
<path d="M109.096 366.574L119.29 372.484L93.8411 391.68L83.8743 383.221L109.096 366.574Z" fill="white"/>
<path d="M154.712 390.916L130.382 410.935L153.948 389.838L154.712 390.916Z" fill="#94989B"/>
<path d="M155.381 394.503L129.49 416.022L154.443 393.332L155.381 394.503Z" fill="#94989B"/>
<path d="M156.218 396.287L123.453 424.586L155.321 395.25L156.218 396.287Z" fill="#94989B"/>
<path d="M112.019 432.037C104.41 423.728 115.758 418.345 115.758 418.345L70.6979 379.831C70.6979 379.831 63.7931 381.807 66.0043 389.003C66.9052 391.935 68.9212 393.795 68.9212 393.795L112.019 432.037Z" fill="#FF8736"/>
</g>
<path d="M140.124 384.946L150.409 394.937L104.741 416.403C104.741 416.403 98.7073 419.104 95.8274 414.783C84.5819 397.502 140.124 384.946 140.124 384.946Z" fill="#256382"/>
<path d="M103.399 403.897C103.399 403.897 94.5757 406.944 96.2301 412.898C97.8844 418.991 104.915 415.252 104.915 415.252L148.479 394.897C148.479 394.897 145.997 388.389 150.409 384.096L103.399 403.897Z" fill="#D9E3E8"/>
<path d="M110.509 342.457L152.108 383.373L102.958 402.791L71.3804 353.137L110.509 342.457Z" fill="#42ADE2"/>
<path d="M111.91 352.654L119.817 360.934L90.2309 371.349L83.2773 360.8L111.91 352.654Z" fill="white"/>
<path d="M148.282 388.417L119.21 400.266L147.869 387.177L148.282 388.417Z" fill="#94989B"/>
<path d="M147.868 391.999L116.868 404.813L147.317 390.621L147.868 391.999Z" fill="#94989B"/>
<path d="M148.144 393.928L108.602 411.15L147.593 392.688L148.144 393.928Z" fill="#94989B"/>
<path d="M95.198 414.688C90.3465 404.651 102.822 402.863 102.822 402.863L70.9404 353.504C70.9404 353.504 63.7324 353.367 63.7324 360.791C63.7324 363.816 65.1186 366.153 65.1186 366.153L95.198 414.688Z" fill="#428BC1"/>
<path d="M72.3184 368.8L62.0329 379.054L107.7 401.086C107.7 401.086 113.735 403.857 116.615 399.423C127.86 381.687 72.3184 368.8 72.3184 368.8Z" fill="#547725"/>
<path d="M109.043 387.752C109.043 387.752 117.866 390.798 116.211 396.752C114.557 402.845 107.526 399.106 107.526 399.106L63.9627 378.751C63.9627 378.751 66.4442 372.243 62.0327 367.95L109.043 387.752Z" fill="#D9E3E8"/>
<path d="M101.521 327.161L59.4836 368.077L109.152 387.495L141.062 337.841L101.521 327.161Z" fill="#83BF4F"/>
<path d="M100.532 336.509L92.6245 345.164L122.211 356.053L129.165 345.025L100.532 336.509Z" fill="white"/>
<path d="M64.1215 372.924L93.1929 384.773L64.5348 371.684L64.1215 372.924Z" fill="#94989B"/>
<path d="M64.5348 376.506L95.5352 389.319L65.086 375.128L64.5348 376.506Z" fill="#94989B"/>
<path d="M64.2591 378.435L103.802 395.657L64.8103 377.195L64.2591 378.435Z" fill="#94989B"/>
<path d="M116.394 399.392C121.245 389.355 108.77 387.568 108.77 387.568L140.651 338.208C140.651 338.208 147.859 338.071 147.859 345.495C147.859 348.52 146.473 350.858 146.473 350.858L116.394 399.392Z" fill="#699635"/>
</g>
<path d="M473.787 330.043C475.335 328.881 479.592 331.936 483.295 336.867C486.998 341.798 488.745 346.737 487.197 347.9C485.649 349.062 481.393 346.007 477.69 341.076C473.986 336.146 472.239 331.206 473.787 330.043Z" fill="#FD4322"/>
<path d="M424.337 334.823C423.196 333.26 426.309 329.045 431.29 325.409C436.271 321.774 441.234 320.094 442.375 321.658C443.516 323.222 440.404 327.436 435.423 331.072C430.442 334.707 425.479 336.387 424.337 334.823Z" fill="#FD4322"/>
<path d="M455.954 359.764C443.621 359.764 433.623 349.766 433.623 337.433C433.623 325.1 443.621 315.102 455.954 315.102C468.287 315.102 478.285 325.1 478.285 337.433C478.285 349.766 468.287 359.764 455.954 359.764Z" fill="#FD4322"/>
<path d="M459.346 354.959H466.13V367.114H459.346V354.959Z" fill="#FD4322"/>
<path d="M445.778 354.959H452.562V367.114H445.778V354.959Z" fill="#FD4322"/>
<path d="M460.477 369.375C457.355 369.375 454.824 368.426 454.824 367.255C454.824 366.084 457.355 365.135 460.477 365.135C463.599 365.135 466.896 363.084 466.245 367.255C466.245 368.426 463.599 369.375 460.477 369.375Z" fill="#A5321E"/>
<path d="M446.909 369.093C443.786 369.093 441.255 368.143 441.255 366.973C441.255 365.802 443.786 364.852 446.909 364.852C450.031 364.852 453.228 363.735 452.562 366.973C452.562 368.143 450.031 369.093 446.909 369.093Z" fill="#A5321E"/>
<path d="M455.389 339.412C451.174 339.412 447.757 335.995 447.757 331.78C447.757 327.565 451.174 324.148 455.389 324.148C459.604 324.148 463.021 327.565 463.021 331.78C463.021 335.995 459.604 339.412 455.389 339.412Z" fill="white"/>
<path d="M455.389 334.324C453.984 334.324 452.845 333.185 452.845 331.78C452.845 330.375 453.984 329.236 455.389 329.236C456.794 329.236 457.933 330.375 457.933 331.78C457.933 333.185 456.794 334.324 455.389 334.324Z" fill="#FEEDE2"/>
<path d="M477.616 316.666C479.419 308.591 473.655 300.431 464.742 298.441C455.829 296.451 447.142 301.384 445.339 309.459C443.535 317.534 449.443 320.512 458.356 322.503C467.269 324.493 475.813 324.741 477.616 316.666Z" fill="#F8A700"/>
<path d="M465.731 310.584C471.459 310.244 474.616 310.11 477.969 312.248C478.418 313.071 478.411 313.412 477.835 313.758C475.025 311.171 466.497 311.311 466.356 311.85C466.214 312.389 465.731 310.584 465.731 310.584Z" fill="#483333" stroke="black"/>
<path d="M446.311 307.599C446.402 306.98 446.456 306.693 446.167 306.964C446.05 307.145 446 307.238 445.945 307.385C446.303 306.943 446.222 307.764 446.142 307.923C446.062 308.082 446.311 307.599 446.311 307.599Z" fill="#483333" stroke="black"/>
<path d="M457.912 309.804C456.874 309.017 454.837 308.951 454.837 308.951L454.88 309.783C455.886 309.723 456.453 309.876 457.47 310.501L457.912 309.804Z" fill="#483333" stroke="black"/>
<path d="M457.307 311.457C456.877 314.433 458.072 316.858 460.576 317.553C462.827 317.904 465.429 316.583 466.127 313.91C466.825 311.238 465.362 308.509 462.859 307.815C460.356 307.121 458.005 308.785 457.307 311.457Z" fill="url(#paint4_linear)"/>
<path d="M446.118 308.438C445.687 311.414 446.883 313.839 449.386 314.533C451.638 314.885 454.24 313.563 454.938 310.891C455.636 308.219 454.172 305.49 451.669 304.796C449.166 304.102 446.816 305.766 446.118 308.438Z" fill="url(#paint5_linear)"/>
<mask id="path-111-inside-1" fill="white">
<path d="M457.042 311.475C456.344 314.147 457.808 316.876 460.311 317.57C462.814 318.264 465.409 316.661 466.107 313.988C466.805 311.316 465.342 308.587 462.839 307.893C460.336 307.199 457.74 308.802 457.042 311.475ZM465.569 313.839C464.954 316.194 462.667 317.608 460.461 316.996C458.255 316.384 456.965 313.979 457.58 311.624C458.195 309.268 460.483 307.855 462.689 308.467C464.895 309.079 466.185 311.484 465.569 313.839Z"/>
</mask>
<path d="M457.042 311.475C456.344 314.147 457.808 316.876 460.311 317.57C462.814 318.264 465.409 316.661 466.107 313.988C466.805 311.316 465.342 308.587 462.839 307.893C460.336 307.199 457.74 308.802 457.042 311.475ZM465.569 313.839C464.954 316.194 462.667 317.608 460.461 316.996C458.255 316.384 456.965 313.979 457.58 311.624C458.195 309.268 460.483 307.855 462.689 308.467C464.895 309.079 466.185 311.484 465.569 313.839Z" fill="#483333" stroke="black" stroke-width="2" mask="url(#path-111-inside-1)"/>
<mask id="path-112-inside-2" fill="white">
<path d="M445.873 308.378C445.175 311.05 446.638 313.779 449.141 314.473C451.645 315.167 454.24 313.563 454.938 310.891C455.636 308.219 454.172 305.49 451.669 304.796C449.166 304.102 446.571 305.705 445.873 308.378ZM454.4 310.742C453.785 313.097 451.498 314.511 449.291 313.899C447.085 313.287 445.796 310.882 446.411 308.527C447.026 306.171 449.313 304.758 451.519 305.37C453.726 305.982 455.015 308.387 454.4 310.742Z"/>
</mask>
<path d="M445.873 308.378C445.175 311.05 446.638 313.779 449.141 314.473C451.645 315.167 454.24 313.563 454.938 310.891C455.636 308.219 454.172 305.49 451.669 304.796C449.166 304.102 446.571 305.705 445.873 308.378ZM454.4 310.742C453.785 313.097 451.498 314.511 449.291 313.899C447.085 313.287 445.796 310.882 446.411 308.527C447.026 306.171 449.313 304.758 451.519 305.37C453.726 305.982 455.015 308.387 454.4 310.742Z" fill="#483333" stroke="black" stroke-width="2" mask="url(#path-112-inside-2)"/>
<path d="M426.815 324.265C427.697 323.642 429.414 324.877 429.901 325.954C430.118 326.437 430.099 326.783 430.097 326.979L430.004 337.483L423.475 342.938L422.265 342.018L422.356 331.788L429.055 326.624C428.704 326.007 427.907 325.251 427.303 325.546L421.338 329.827L421.237 341.223L420.023 340.301L420.124 328.905L426.815 324.265Z" fill="#3F3737"/>
<defs>
<filter id="filter0_d" x="129.196" y="57.8155" width="242.153" height="387.368" filterUnits="userSpaceOnUse" color-interpolation-filters="sRGB">
<feFlood flood-opacity="0" result="BackgroundImageFix"/>
<feColorMatrix in="SourceAlpha" type="matrix" values="0 0 0 0 0 0 0 0 0 0 0 0 0 0 0 0 0 0 127 0"/>
<feOffset dx="-12" dy="21"/>
<feGaussianBlur stdDeviation="2"/>
<feColorMatrix type="matrix" values="0 0 0 0 0 0 0 0 0 0 0 0 0 0 0 0 0 0 0.25 0"/>
<feBlend mode="normal" in2="BackgroundImageFix" result="effect1_dropShadow"/>
<feBlend mode="normal" in="SourceGraphic" in2="effect1_dropShadow" result="shape"/>
</filter>
<filter id="filter1_d" x="316.363" y="257.737" width="38.8499" height="79.9368" filterUnits="userSpaceOnUse" color-interpolation-filters="sRGB">
<feFlood flood-opacity="0" result="BackgroundImageFix"/>
<feColorMatrix in="SourceAlpha" type="matrix" values="0 0 0 0 0 0 0 0 0 0 0 0 0 0 0 0 0 0 127 0"/>
<feOffset dy="4"/>
<feGaussianBlur stdDeviation="2"/>
<feColorMatrix type="matrix" values="0 0 0 0 0 0 0 0 0 0 0 0 0 0 0 0 0 0 0.25 0"/>
<feBlend mode="normal" in2="BackgroundImageFix" result="effect1_dropShadow"/>
<feBlend mode="normal" in="SourceGraphic" in2="effect1_dropShadow" result="shape"/>
</filter>
<filter id="filter2_d" x="58.6338" y="327.161" width="120.685" height="139.015" filterUnits="userSpaceOnUse" color-interpolation-filters="sRGB">
<feFlood flood-opacity="0" result="BackgroundImageFix"/>
<feColorMatrix in="SourceAlpha" type="matrix" values="0 0 0 0 0 0 0 0 0 0 0 0 0 0 0 0 0 0 127 0"/>
<feOffset dx="6" dy="5"/>
<feGaussianBlur stdDeviation="2"/>
<feColorMatrix type="matrix" values="0 0 0 0 0 0 0 0 0 0 0 0 0 0 0 0 0 0 0.25 0"/>
<feBlend mode="normal" in2="BackgroundImageFix" result="effect1_dropShadow"/>
<feBlend mode="normal" in="SourceGraphic" in2="effect1_dropShadow" result="shape"/>
</filter>
<linearGradient id="paint0_linear" x1="292.745" y1="254.081" x2="367.16" y2="370.411" gradientUnits="userSpaceOnUse">
<stop stop-color="white"/>
<stop offset="1" stop-color="#4AAADA" stop-opacity="0"/>
</linearGradient>
<linearGradient id="paint1_linear" x1="317.814" y1="297.419" x2="271.501" y2="219.241" gradientUnits="userSpaceOnUse">
<stop stop-color="white"/>
<stop offset="1" stop-color="white" stop-opacity="0"/>
</linearGradient>
<linearGradient id="paint2_linear" x1="293.582" y1="375.461" x2="312.885" y2="367.814" gradientUnits="userSpaceOnUse">
<stop stop-color="#040404"/>
<stop offset="1" stop-color="#1C1919" stop-opacity="0.54"/>
<stop offset="1" stop-color="#4D4646" stop-opacity="0.54"/>
</linearGradient>
<linearGradient id="paint3_linear" x1="295.908" y1="369.83" x2="320.944" y2="357.74" gradientUnits="userSpaceOnUse">
<stop/>
<stop offset="1" stop-color="#4D4646" stop-opacity="0.54"/>
</linearGradient>
<linearGradient id="paint4_linear" x1="462.98" y1="307.848" x2="460.31" y2="317.479" gradientUnits="userSpaceOnUse">
<stop stop-color="#FFFCFC"/>
<stop offset="1" stop-color="#FFFEFE" stop-opacity="0.44"/>
</linearGradient>
<linearGradient id="paint5_linear" x1="451.791" y1="304.829" x2="449.12" y2="314.46" gradientUnits="userSpaceOnUse">
<stop stop-color="#FFFCFC"/>
<stop offset="1" stop-color="#FFFEFE" stop-opacity="0.44"/>
</linearGradient>
<clipPath id="clip0">
<rect width="88.376" height="88.376" fill="white" transform="translate(58.6338 368.8)"/>
</clipPath>
<clipPath id="clip1">
<rect width="88.376" height="89.2258" fill="white" transform="translate(58.6338 365.015) rotate(-17.0804)"/>
</clipPath>
</defs>
</svg>
