<svg width="19" height="20" viewBox="0 0 19 20" fill="none" xmlns="http://www.w3.org/2000/svg">
<rect width="18.998" height="18.998" rx="9" fill="#FF6C36"/>
<path d="M9.49902 1.83112C5.51018 1.83112 2.23005 4.85522 1.8256 8.73645C1.79592 9.00361 1.78107 9.27448 1.78107 9.54906C1.78107 9.82364 1.79592 10.0945 1.8256 10.3617C2.23005 14.2429 5.51018 17.267 9.49902 17.267C13.7624 17.267 17.217 13.8125 17.217 9.54906C17.217 5.28564 13.7624 1.83112 9.49902 1.83112ZM14.5379 13.9312C13.6957 13.6121 12.3302 13.1446 11.4805 12.8923C11.3914 12.8663 11.3803 12.8589 11.3803 12.4952C11.3803 12.1947 11.5027 11.8904 11.6252 11.6307C11.7587 11.3524 11.9109 10.8812 11.9665 10.4581C12.1224 10.2763 12.3376 9.92012 12.4712 9.23738C12.5899 8.63627 12.5343 8.41734 12.4563 8.21326C12.4489 8.191 12.4378 8.16874 12.4341 8.15018C12.4044 8.00918 12.4452 7.2782 12.5491 6.71049C12.6196 6.32088 12.5305 5.49343 11.9962 4.80698C11.6586 4.37284 11.0092 3.84223 9.82555 3.76802H9.1762C8.01109 3.84223 7.36545 4.37284 7.02408 4.80698C6.48605 5.49343 6.397 6.32088 6.4675 6.71049C6.5714 7.2782 6.61221 8.00918 6.58253 8.15018C6.57511 8.17616 6.56769 8.19471 6.56026 8.21697C6.48234 8.42105 6.42297 8.63998 6.54542 9.24109C6.68271 9.92383 6.89421 10.28 7.05006 10.4619C7.10572 10.8849 7.26156 11.3524 7.39143 11.6344C7.4879 11.8385 7.53243 12.1168 7.53243 12.5101C7.53243 12.8774 7.51759 12.8811 7.43595 12.9071C6.55655 13.1668 5.25044 13.627 4.46751 13.9386C3.39887 12.7179 2.82003 11.178 2.82003 9.54906C2.82003 7.76429 3.5139 6.08712 4.77549 4.82553C6.03708 3.56394 7.71425 2.87007 9.49902 2.87007C11.2838 2.87007 12.961 3.56394 14.2226 4.82553C15.4841 6.08712 16.178 7.76429 16.178 9.54906C16.178 11.178 15.5992 12.7179 14.5379 13.9312Z" fill="white"/>
</svg>
