<svg width="20" height="19" viewBox="0 0 20 19" fill="none" xmlns="http://www.w3.org/2000/svg">
<g clip-path="url(#clip0_6_169)">
<path fill-rule="evenodd" clip-rule="evenodd" d="M12.8561 12.3941C12.9662 12.2839 13.0969 12.1964 13.2408 12.1368C13.3847 12.0772 13.5389 12.0464 13.6947 12.0464C13.8504 12.0464 14.0047 12.0772 14.1486 12.1368C14.2925 12.1964 14.4232 12.2839 14.5333 12.3941L19.0966 16.9574C19.319 17.1797 19.444 17.4812 19.4442 17.7956C19.4443 18.11 19.3195 18.4116 19.0972 18.634C18.875 18.8564 18.5735 18.9815 18.259 18.9816C17.9446 18.9817 17.643 18.8569 17.4206 18.6346L12.8573 14.0713C12.7471 13.9612 12.6596 13.8305 12.6 13.6866C12.5403 13.5427 12.5096 13.3884 12.5096 13.2327C12.5096 13.0769 12.5403 12.9227 12.6 12.7788C12.6596 12.6349 12.7471 12.5042 12.8573 12.3941H12.8561Z" fill="#FC6C6C"/>
<path fill-rule="evenodd" clip-rule="evenodd" d="M8.18412 14.2408C9.04022 14.2408 9.88794 14.0722 10.6789 13.7446C11.4698 13.417 12.1885 12.9368 12.7938 12.3314C13.3992 11.7261 13.8794 11.0074 14.207 10.2165C14.5346 9.42554 14.7032 8.57782 14.7032 7.72172C14.7032 6.86562 14.5346 6.0179 14.207 5.22697C13.8794 4.43604 13.3992 3.71738 12.7938 3.11202C12.1885 2.50667 11.4698 2.02648 10.6789 1.69886C9.88794 1.37125 9.04022 1.20262 8.18412 1.20262C6.45515 1.20262 4.79699 1.88946 3.57443 3.11202C2.35186 4.33459 1.66503 5.99275 1.66503 7.72172C1.66503 9.45069 2.35186 11.1089 3.57443 12.3314C4.79699 13.554 6.45515 14.2408 8.18412 14.2408ZM15.8885 7.72172C15.8885 9.76505 15.0768 11.7247 13.6319 13.1695C12.1871 14.6144 10.2275 15.4261 8.18412 15.4261C6.14079 15.4261 4.18115 14.6144 2.7363 13.1695C1.29145 11.7247 0.479736 9.76505 0.479736 7.72172C0.479736 5.67839 1.29145 3.71875 2.7363 2.2739C4.18115 0.829044 6.14079 0.017334 8.18412 0.017334C10.2275 0.017334 12.1871 0.829044 13.6319 2.2739C15.0768 3.71875 15.8885 5.67839 15.8885 7.72172Z" fill="#FC6C6C"/>
</g>
<defs>
<clipPath id="clip0_6_169">
<rect width="18.9646" height="18.9646" fill="white" transform="translate(0.479736 0.017334)"/>
</clipPath>
</defs>
</svg>
